<?xml version="1.0" encoding="UTF-8" standalone="no"?>
<svg
   xmlns:dc="http://purl.org/dc/elements/1.1/"
   xmlns:cc="http://creativecommons.org/ns#"
   xmlns:rdf="http://www.w3.org/1999/02/22-rdf-syntax-ns#"
   xmlns:svg="http://www.w3.org/2000/svg"
   xmlns="http://www.w3.org/2000/svg"
   viewBox="0 0 70.400002 70.400002"
   height="70.400002"
   width="70.400002"
   xml:space="preserve"
   id="svg2"
   version="1.1"><metadata
     id="metadata8"><rdf:RDF><cc:Work
         rdf:about=""><dc:format>image/svg+xml</dc:format><dc:type
           rdf:resource="http://purl.org/dc/dcmitype/StillImage" /></cc:Work></rdf:RDF></metadata><defs
     id="defs6" /><g
     transform="matrix(1.3333333,0,0,-1.3333333,0,70.4)"
     id="g10"><g
       transform="scale(0.1)"
       id="g12"><path
         id="path14"
         style="fill:#559ad9;fill-opacity:1;fill-rule:nonzero;stroke:none"
         d="m 399.605,153.145 c 6.817,-6.836 6.817,-17.918 -0.019,-24.747 -3.418,-3.41 -7.891,-5.117 -12.363,-5.117 -4.493,0 -8.965,1.707 -12.383,5.137 L 264,239.387 153.164,128.418 c -3.418,-3.43 -7.898,-5.137 -12.383,-5.137 -4.472,0 -8.945,1.707 -12.363,5.117 -6.836,6.829 -6.855,17.911 -0.02,24.747 L 239.121,264.004 128.398,374.863 c -6.835,6.836 -6.816,17.918 0.02,24.746 6.836,6.817 17.922,6.836 24.746,-0.019 L 264,288.621 374.84,399.59 c 6.836,6.848 17.91,6.836 24.746,0.019 6.836,-6.828 6.836,-17.91 0.019,-24.746 L 288.883,264.004 Z M 264,528.008 C 118.438,528.008 0,409.57 0,264.004 0,118.438 118.438,0 264,0 409.566,0 528.004,118.438 528.004,264.004 528.004,409.57 409.566,528.008 264,528.008" /></g></g></svg>