<?xml version="1.0" standalone="no"?>
<!DOCTYPE svg PUBLIC "-//W3C//DTD SVG 1.1//EN" "http://www.w3.org/Graphics/SVG/1.1/DTD/svg11.dtd" >
<svg>
<metadata>
Created by FontForge 20090914 at Mon Jan  8 12:52:14 2018
 By www-data
&#194;&#169; Copyright 1999-2004 WinSoft
</metadata>
<defs>
<font id="WinSoftPro-Medium" horiz-adv-x="0" >
  <font-face 
    font-family="WinSoft Pro"
    font-weight="500"
    font-stretch="normal"
    units-per-em="2048"
    panose-1="2 11 6 0 6 2 0 0 0 0"
    ascent="1638"
    descent="-410"
    x-height="772"
    cap-height="1055"
    bbox="-258 -999 1999 1974"
    underline-thickness="102"
    underline-position="-461"
    unicode-range="U+0020-U+FEFC"
  />
<missing-glyph horiz-adv-x="1024" 
d="M129 0v1497h768v-1497h-768zM256 129h512v1241h-512v-1241z" />
    <glyph glyph-name="alefmaddaabovearabic" unicode="&#x627;&#x653;" horiz-adv-x="401" 
d="M-55 1159l52.999 64c46.667 54.667 84.334 82 113.001 82c8 0 62.333 -20.667 163 -62c34.667 -13.333 55.334 -20 62.001 -20c9.33301 0 51.666 19.667 126.999 59l-76 -84c-36.667 -36.667 -68.667 -55 -96 -55c-26 0 -86.667 23.667 -182 71
c-14 4.66699 -26.333 7 -37 7c-8.66699 0 -36 -12.333 -82 -37zM128.999 -68c8 105.333 11.999 194.334 11.999 267.001c0 96.667 -4.66699 227.667 -14 393c-8 135.333 -17 237 -27 305l164 203l39 -242l-37 -43l2 -24c12.667 -148 19 -270.333 19 -367
s-10.333 -182 -31 -256c-15.333 -54.667 -57.666 -133.334 -126.999 -236.001z" />
    <glyph glyph-name="alefhamzaabovearabic" unicode="&#x627;&#x654;" horiz-adv-x="401" 
d="M291 1229l-37.001 -94c-96.667 -14 -176 -55 -238 -123c7.33301 46 27.333 88.333 60 127c-50.667 10.667 -76 40 -76 88c0 38 21 82.333 63 133c34.667 40.667 81.334 61 140.001 61c34 0 51 -11.667 51 -35c0 -17.333 -9 -40.333 -27 -69c-16 5.33301 -31 8 -45 8
c-52 0 -93.667 -19.667 -125 -59c40 -37.333 90 -56 150 -56c20.667 0 48.667 6.33301 84 19zM128.999 -68c8 105.333 11.999 194.334 11.999 267.001c0 96.667 -4.66699 227.667 -14 393c-8 135.333 -17 237 -27 305l164 203l39 -242l-37 -43l2 -24
c12.667 -148 19 -270.333 19 -367s-10.333 -182 -31 -256c-15.333 -54.667 -57.666 -133.334 -126.999 -236.001z" />
    <glyph glyph-name="wawhamzaabovearabic" unicode="&#x648;&#x654;" horiz-adv-x="625" 
d="M406 844l-37 -93.999c-100 -14 -178.667 -55 -236 -123c6.66699 50 26.667 92.333 60 127c-50.667 12 -76 42 -76 90c0 39.333 21 83.666 63 132.999c34 39.333 79.667 59 137 59c36 0 54 -11.667 54 -35c0 -17.333 -9 -40.333 -27 -69c-18 5.33301 -33.667 8 -47 8
c-50.667 0 -91.667 -19.667 -123 -59c38 -36 88 -54 150 -54c22.667 0 50 5.66699 82 17zM436 0.000976562l-139 -0.00195312c-49.333 0 -82.666 1.33301 -99.999 4c-36 5.33301 -65.833 22 -89.5 50s-35.5 60.667 -35.5 98c0 56 15 117 45 183s68 123.667 114 173
c27.333 28.667 58.333 43 93 43c43.333 0 85.666 -28.667 126.999 -86c68 -97.333 102 -212.666 102 -345.999c0 -153.333 -50.667 -292.666 -152 -417.999c-56 -69.333 -107.667 -104 -155 -104c-53.333 0 -130 64.667 -230 194c49.333 -18 93 -27 131 -27
c62 0 118.833 21.167 170.5 63.5s91.167 99.833 118.5 172.5zM422 192.999c-15.333 125.333 -53 188 -113 188c-26 0 -50.167 -13.667 -72.5 -41s-33.5 -56 -33.5 -86c0 -40.667 25.333 -61 76 -61h143z" />
    <glyph glyph-name="alefhamzabelowarabic" unicode="&#x627;&#x655;" horiz-adv-x="401" 
d="M340 -373l-37.001 -93.999c-98 -13.333 -177 -55 -237 -125c6.66699 50.667 26.334 93.667 59.001 129c-50.667 11.333 -76 40.666 -76 87.999c0 38.667 21.333 83 64 133c34 41.333 79.667 62 137 62c35.333 0 53 -12.333 53 -37c0 -19.333 -9 -42 -27 -68
c-17.333 6 -33 9 -47 9c-50 0 -91 -20 -123 -60c40 -36.667 90 -55 150 -55c19.333 0 47.333 6 84 18zM128.999 -67.999c8 105.333 11.999 194.334 11.999 267.001c0 96.667 -4.66699 227.667 -14 393c-8 135.333 -17 237 -27 305l164 203l39 -242l-37 -43l2 -24
c12.667 -148 19 -270.333 19 -367s-10.333 -182 -31 -256c-15.333 -54.667 -57.666 -133.334 -126.999 -236.001z" />
    <glyph glyph-name="yehhamzaabovearabic" unicode="&#x64a;&#x654;" horiz-adv-x="1001" 
d="M266 590l-37.002 -94.002c-99.333 -14 -177.666 -55 -234.999 -123c6.66699 50.667 26.334 93 59.001 127c-50.667 9.33301 -76 39.333 -76 90c0 36.667 21.333 80.334 64 131.001c34 40.667 79.667 61 137 61c35.333 0 53 -11.333 53 -34
c0 -19.333 -8.66699 -42.666 -26 -69.999c-18 5.33301 -33.667 8 -47 8c-50.667 0 -91.667 -19.667 -123 -59c39.333 -37.333 89 -56 149 -56c18 0 45.333 6.33301 82 19zM577.998 284.998l249 -110.999c56 -24.667 84 -48.667 84 -72c0 -18.667 -13 -52.667 -39 -102
l-22 -43l-74 -145c-50.667 -49.333 -101.667 -88.333 -153 -117c-101.333 -56 -197.666 -84 -288.999 -84c-86 0 -156 28 -210 84s-81 128.333 -81 217c0 68 18.333 153.333 55 256c19.333 53.333 40.666 103.666 63.999 150.999l-8 -32c-19.333 -76.667 -29 -145 -29 -205
c0 -188.667 75 -283 225 -283c67.333 0 139.833 20.5 217.5 61.5s134.167 88.167 169.5 141.5l-243 111c-33.333 14.667 -54 26.167 -62 34.5s-12 21.833 -12 40.5c0 30 15.667 71 47 123c117.333 194 255.333 291 414 291c57.333 0 86 -19.667 86 -59
c0 -7.33301 -8.33301 -35.333 -25 -84l-18 -56c-36 15.333 -72.333 23 -109 23c-96.667 0 -175.667 -47 -237 -141z" />
    <glyph glyph-name="lammeemjeeminitialarabic" unicode="&#xfedf;&#xfee4;&#xfea0;" horiz-adv-x="1116" 
d="M473 -223l100 88l127 -117l-100 -92zM1040 627l-104.001 -144c-125.333 75.333 -214.666 113 -267.999 113c-37.333 0 -90.666 -15.667 -159.999 -47l-8 -4l39 -23c150 -87.333 272.667 -145.333 368 -174c57.333 -17.333 122.333 -30.333 195 -39l-96 -164l-27 7
c-35.333 8 -76.333 12 -123 12c-106.667 0 -192.667 -28.667 -258 -86l-49 -43c-23.333 -20.667 -48 -31.667 -74 -33c-10.667 0 -28.334 -0.666992 -53.001 -2h-447v193h533c27.333 20 60.666 40.333 99.999 61c-65.333 46.667 -122 82.667 -170 108
c-69.333 37.333 -126.666 56 -171.999 56c-22 0 -47.333 -5 -76 -15l134 191c20 27.333 56 54 108 80c30 14.667 66.333 30.334 109 47.001c47.333 19.333 92.333 33.666 135 42.999l-31 393c-35.333 15.333 -53 31.666 -53 48.999c0 12.667 13.667 41.334 41 86.001l61 103
c4 -31.333 11.833 -52.833 23.5 -64.5s37.5 -26.5 77.5 -44.5l104 -47l-70 -154l-32 15l16 -234c1.33301 -20 4 -46.667 8 -80c5.33301 -24 34 -51 86 -81z" />
    <glyph glyph-name="lammeemkhahinitialarabic" unicode="&#xfedf;&#xfee4;&#xfea8;" horiz-adv-x="1116" 
d="M250 995l100 90l129 -116l-102 -92zM1040 627l-104.001 -144c-125.333 75.333 -214.666 113 -267.999 113c-37.333 0 -90.666 -15.667 -159.999 -47l-8 -4l39 -23c150 -87.333 272.667 -145.333 368 -174c57.333 -17.333 122.333 -30.333 195 -39l-96 -164l-27 7
c-35.333 8 -76.333 12 -123 12c-106.667 0 -192.667 -28.667 -258 -86l-49 -43c-23.333 -20.667 -48 -31.667 -74 -33c-10.667 0 -28.334 -0.666992 -53.001 -2h-447v193h533c27.333 20 60.666 40.333 99.999 61c-65.333 46.667 -122 82.667 -170 108
c-69.333 37.333 -126.666 56 -171.999 56c-22 0 -47.333 -5 -76 -15l134 191c20 27.333 56 54 108 80c30 14.667 66.333 30.334 109 47.001c47.333 19.333 92.333 33.666 135 42.999l-31 393c-35.333 15.333 -53 31.666 -53 48.999c0 12.667 13.667 41.334 41 86.001l61 103
c4 -31.333 11.833 -52.833 23.5 -64.5s37.5 -26.5 77.5 -44.5l104 -47l-70 -154l-32 15l16 -234c1.33301 -20 4 -46.667 8 -80c5.33301 -24 34 -51 86 -81z" />
    <glyph glyph-name="uni05DC05B9" unicode="&#x5dc;&#x5b9;" horiz-adv-x="690" 
d="M-45 946c0 -47.333 -22 -72.001 -66 -74.001h-18c-18.667 1.33301 -34.667 8.33301 -48 21s-20 30.334 -20 53.001c0 49.333 24.667 74 74 74h4c49.333 0 74 -24.667 74 -74zM618 157.999v-8.00098c-1.33301 -6.66699 -2.16602 -12.667 -2.49902 -18s-1.5 -11 -3.5 -17
l-20 -47c-1.33301 -1.33301 -2.5 -2.83301 -3.5 -4.5s-2.5 -3.16699 -4.5 -4.5c-1.33301 -1.33301 -2.5 -2.66602 -3.5 -3.99902s-2.83301 -2.66602 -5.5 -3.99902l-12 -12c-6 -5.33301 -12.333 -10.333 -19 -15s-13.334 -8.66699 -20.001 -12l-28 -8
c-5.33301 -1.33301 -10.833 -2.33301 -16.5 -3s-11.167 -1 -16.5 -1h-178v143h141c3.33301 1.33301 6.33301 3 9 5s5.66699 4 9 6l9 6l4 6c2.66699 2.66699 4 4.66699 4 6c2 3.33301 3.5 5.66602 4.5 6.99902s2.16699 3 3.5 5v482h-434v440h164v-299h419v-649z" />
    <glyph glyph-name="uni05DC05BC05B9" unicode="&#x5dc;&#x5bc;&#x5b9;" horiz-adv-x="850" 
d="M775 158c0 -24.667 -4.66602 -46.834 -13.999 -66.501s-21.5 -36.167 -36.5 -49.5s-32 -23.666 -51 -30.999s-37.833 -11 -56.5 -11h-178v143h129c9.33301 0 17.5 1.83301 24.5 5.5s12.667 8 17 13s7.66602 10 9.99902 15s3.5 8.83301 3.5 11.5v478h-434v440h166v-299
h420v-649zM474.001 434c0 -17.333 -6.16797 -32.168 -18.501 -44.501s-27.166 -18.5 -44.499 -18.5c-19.333 0 -34.833 5.83301 -46.5 17.5s-17.5 26.834 -17.5 45.501c0 16.667 5.83301 31.5 17.5 44.5s27.167 19.5 46.5 19.5c16 0 30.5 -6.16699 43.5 -18.5
s19.5 -27.5 19.5 -45.5zM153 949.998c0 -42 -21 -63.001 -63 -63.001c-19.333 0 -34.833 5.83301 -46.5 17.5s-17.5 26.834 -17.5 45.501c0 42.667 21.333 64 64 64c42 0 63 -21.333 63 -64z" />
    <glyph glyph-name="shaddawithfathatan" unicode="&#x64b;&#x651;" 
d="M639 1700l-37 -43c-94 -108 -215.333 -163.333 -364 -166c-53.333 -1.33301 -121.666 4 -204.999 16c94 23.333 191.167 50 291.5 80s205.166 67.667 314.499 113zM639 1904l-37 -43.002c-94 -107.333 -215.333 -162.666 -364 -165.999
c-53.333 -1.33301 -121.666 4.33398 -204.999 17.001c94 23.333 191.167 50 291.5 80s205.166 67.333 314.499 112zM436 1474c52 -61.333 78.001 -116 78.001 -164c0 -26 -9.66699 -61.333 -29 -106h-145l-25 37l-41 -37c-92.667 0 -146.334 4 -161.001 12
c-36 19.333 -54 51.333 -54 96c0 45.333 15.667 92 47 140c-6.66699 -36 -10 -60 -10 -72c0 -57.333 33.667 -86 101 -86h84l-78 115l45 47l112 -162h99c-10 48 -34.667 91 -74 129z" />
    <glyph glyph-name="uni05E905C1" unicode="&#x5e9;&#x5c1;" horiz-adv-x="1044" 
d="M970 807c-4 -8.66699 -6.33301 -15.332 -7 -19.999s-1 -9.66699 -1 -15v-268c0 -38.667 -5.5 -79.834 -16.5 -123.501s-26.5 -86.334 -46.5 -128.001s-43.667 -80.667 -71 -117s-57.333 -65.833 -90 -88.5c-66.667 -46.667 -153.334 -70 -260.001 -70
c-43.333 0 -83.666 4.5 -120.999 13.5s-72 24 -104 45s-61.167 48.5 -87.5 82.5s-49.5 76 -69.5 126c-7.33301 18.667 -12.666 46.667 -15.999 84s-5 85 -5 143v336h164v-414c24.667 0.666992 50.167 4.5 76.5 11.5s50.333 17.5 72 31.5s39.5 31.833 53.5 53.5
s21 47.5 21 77.5v240h151v-260c0 -35.333 -8.5 -69.666 -25.5 -102.999s-41.167 -63.166 -72.5 -89.499s-69.166 -47.833 -113.499 -64.5s-93.833 -25.334 -148.5 -26.001c8 -20 19.167 -38.667 33.5 -56s31.333 -32.5 51 -45.5s41.834 -23.167 66.501 -30.5
s51.334 -11 80.001 -11c27.333 0 52.666 3 75.999 9s45.666 15.833 66.999 29.5s41.666 32 60.999 55s38.666 51.5 57.999 85.5c37.333 65.333 56 118.333 56 159v348h168zM957 950.002c0 -17.333 -6.66699 -32.167 -20 -44.5s-27.666 -18.5 -42.999 -18.5
c-42.667 0 -64 21 -64 63c0 42.667 21.333 64 64 64c13.333 0 27.166 -5.5 41.499 -16.5s21.5 -26.833 21.5 -47.5z" />
    <glyph glyph-name="uni05E905C2" unicode="&#x5e9;&#x5c2;" horiz-adv-x="1044" 
d="M970 807c-4 -8.66699 -6.33301 -15.332 -7 -19.999s-1 -9.66699 -1 -15v-268c0 -38.667 -5.5 -79.834 -16.5 -123.501s-26.5 -86.334 -46.5 -128.001s-43.667 -80.667 -71 -117s-57.333 -65.833 -90 -88.5c-66.667 -46.667 -153.334 -70 -260.001 -70
c-43.333 0 -83.666 4.5 -120.999 13.5s-72 24 -104 45s-61.167 48.5 -87.5 82.5s-49.5 76 -69.5 126c-7.33301 18.667 -12.666 46.667 -15.999 84s-5 85 -5 143v336h164v-414c24.667 0.666992 50.167 4.5 76.5 11.5s50.333 17.5 72 31.5s39.5 31.833 53.5 53.5
s21 47.5 21 77.5v240h151v-260c0 -35.333 -8.5 -69.666 -25.5 -102.999s-41.167 -63.166 -72.5 -89.499s-69.166 -47.833 -113.499 -64.5s-93.833 -25.334 -148.5 -26.001c8 -20 19.167 -38.667 33.5 -56s31.333 -32.5 51 -45.5s41.834 -23.167 66.501 -30.5
s51.334 -11 80.001 -11c27.333 0 52.666 3 75.999 9s45.666 15.833 66.999 29.5s41.666 32 60.999 55s38.666 51.5 57.999 85.5c37.333 65.333 56 118.333 56 159v348h168zM206 950.002c0 -17.333 -6.83203 -32.167 -20.499 -44.5s-27.834 -18.5 -42.501 -18.5
c-42.667 0 -64 21 -64 63c0 42.667 21.333 64 64 64c42 0 63 -21.333 63 -64z" />
    <glyph glyph-name="uni05E905BC05C1" unicode="&#x5e9;&#x5c1;&#x5bc;" horiz-adv-x="1044" 
d="M970 807c-4 -8.66699 -6.33301 -15.332 -7 -19.999s-1 -9.66699 -1 -15v-268c0 -38.667 -5.5 -79.834 -16.5 -123.501s-26.5 -86.334 -46.5 -128.001s-43.667 -80.667 -71 -117s-57.333 -65.833 -90 -88.5c-66.667 -46.667 -153.334 -70 -260.001 -70
c-43.333 0 -83.666 4.5 -120.999 13.5s-72 24 -104 45s-61.167 48.5 -87.5 82.5s-49.5 76 -69.5 126c-7.33301 18.667 -12.666 46.667 -15.999 84s-5 85 -5 143v336h164v-414c24.667 0.666992 50.167 4.5 76.5 11.5s50.333 17.5 72 31.5s39.5 31.833 53.5 53.5
s21 47.5 21 77.5v240h151v-260c0 -35.333 -8.5 -69.666 -25.5 -102.999s-41.167 -63.166 -72.5 -89.499s-69.166 -47.833 -113.499 -64.5s-93.833 -25.334 -148.5 -26.001c8 -20 19.167 -38.667 33.5 -56s31.333 -32.5 51 -45.5s41.834 -23.167 66.501 -30.5
s51.334 -11 80.001 -11c27.333 0 52.666 3 75.999 9s45.666 15.833 66.999 29.5s41.666 32 60.999 55s38.666 51.5 57.999 85.5c37.333 65.333 56 118.333 56 159v348h168zM706 343.002c0 -17.333 -6.16797 -32.168 -18.501 -44.501s-27.166 -18.5 -44.499 -18.5
c-19.333 0 -34.833 5.83301 -46.5 17.5s-17.5 26.834 -17.5 45.501c0 16.667 5.83301 31.5 17.5 44.5s27.167 19.5 46.5 19.5c16 0 30.5 -6.16699 43.5 -18.5s19.5 -27.5 19.5 -45.5zM956.999 950c0 -17.333 -6.66699 -32.167 -20 -44.5s-27.666 -18.5 -42.999 -18.5
c-42.667 0 -64 21 -64 63c0 42.667 21.333 64 64 64c13.333 0 27.166 -5.5 41.499 -16.5s21.5 -26.833 21.5 -47.5z" />
    <glyph glyph-name="uni05E905BC05C2" unicode="&#x5e9;&#x5c2;&#x5bc;" horiz-adv-x="1044" 
d="M970 807c-4 -8.66699 -6.33301 -15.332 -7 -19.999s-1 -9.66699 -1 -15v-268c0 -38.667 -5.5 -79.834 -16.5 -123.501s-26.5 -86.334 -46.5 -128.001s-43.667 -80.667 -71 -117s-57.333 -65.833 -90 -88.5c-66.667 -46.667 -153.334 -70 -260.001 -70
c-43.333 0 -83.666 4.5 -120.999 13.5s-72 24 -104 45s-61.167 48.5 -87.5 82.5s-49.5 76 -69.5 126c-7.33301 18.667 -12.666 46.667 -15.999 84s-5 85 -5 143v336h164v-414c24.667 0.666992 50.167 4.5 76.5 11.5s50.333 17.5 72 31.5s39.5 31.833 53.5 53.5
s21 47.5 21 77.5v240h151v-260c0 -35.333 -8.5 -69.666 -25.5 -102.999s-41.167 -63.166 -72.5 -89.499s-69.166 -47.833 -113.499 -64.5s-93.833 -25.334 -148.5 -26.001c8 -20 19.167 -38.667 33.5 -56s31.333 -32.5 51 -45.5s41.834 -23.167 66.501 -30.5
s51.334 -11 80.001 -11c27.333 0 52.666 3 75.999 9s45.666 15.833 66.999 29.5s41.666 32 60.999 55s38.666 51.5 57.999 85.5c37.333 65.333 56 118.333 56 159v348h168zM721 353.002c0 -17.333 -6.16797 -32.168 -18.501 -44.501s-27.166 -18.5 -44.499 -18.5
c-19.333 0 -34.833 5.83301 -46.5 17.5s-17.5 26.834 -17.5 45.501c0 16.667 5.83301 31.5 17.5 44.5s27.167 19.5 46.5 19.5c16 0 30.5 -6.16699 43.5 -18.5s19.5 -27.5 19.5 -45.5zM219.999 950c0 -17.333 -6.83203 -32.167 -20.499 -44.5s-27.834 -18.5 -42.501 -18.5
c-42.667 0 -64 21 -64 63c0 42.667 21.333 64 64 64c42 0 63 -21.333 63 -64z" />
    <glyph glyph-name="uni05D105BC" unicode="&#x5d1;&#x5bc;" horiz-adv-x="789" 
d="M743 0h-712.001v143h452v256c0 44 -3.33301 82.833 -10 116.5s-20.5 62 -41.5 85s-51.167 40.333 -90.5 52s-91.666 17.5 -156.999 17.5c-7.33301 0 -21.333 -1 -42 -3s-49 -5.33301 -85 -10l-16 140c39.333 6 74.833 10.5 106.5 13.5s61.167 4.5 88.5 4.5
c142 0 246.333 -31 313 -93s100 -158 100 -288v-291h94v-143zM374.999 372c0 -17.333 -6.16797 -32.168 -18.501 -44.501s-27.166 -18.5 -44.499 -18.5c-19.333 0 -34.833 5.83301 -46.5 17.5s-17.5 26.834 -17.5 45.501c0 16.667 5.83301 31.5 17.5 44.5
s27.167 19.5 46.5 19.5c16 0 30.5 -6.16699 43.5 -18.5s19.5 -27.5 19.5 -45.5z" />
    <glyph glyph-name="uni05D205BC" unicode="&#x5d2;&#x5bc;" horiz-adv-x="614" 
d="M233 469c0 -20.667 -6.5 -38.167 -19.5 -52.5s-30.833 -21.5 -53.5 -21.5c-20.667 0 -38.5 6.5 -53.5 19.5s-22.5 31.167 -22.5 54.5c0 10 2 19.333 6 28s9.5 16.5 16.5 23.5s15.167 12.5 24.5 16.5s19 6 29 6c18.667 0 35.5 -7.16699 50.5 -21.5
s22.5 -31.833 22.5 -52.5zM563 0l-161.998 0.000976562l-55 193c-26.667 -1.33301 -50.834 -10.333 -72.501 -27s-41.167 -42.667 -58.5 -78l-47 -88h-170l70 139c28.667 58.667 64.667 102.5 108 131.5s92 45.167 146 48.5v195c0 25.333 -1.5 47.833 -4.5 67.5
s-8.83301 36 -17.5 49s-21 22.833 -37 29.5s-37.333 10 -64 10c-7.33301 0 -15 -0.333008 -23 -1s-16.667 -1.66699 -26 -3l-39 -2l-17 133c46.667 12 91.667 18 135 18c50.667 0 92.667 -6.33301 126 -19s59.666 -31.334 78.999 -56.001s33 -55.5 41 -92.5
s12 -79.5 12 -127.5v-237z" />
    <glyph glyph-name="uni05D305BC" unicode="&#x5d3;&#x5bc;" horiz-adv-x="799" 
d="M737 664h-116v-664h-166v664h-412v143h694v-143zM381 376c0 -17.333 -6.16797 -32.168 -18.501 -44.501s-27.166 -18.5 -44.499 -18.5c-19.333 0 -34.833 5.83301 -46.5 17.5s-17.5 26.834 -17.5 45.501c0 16.667 5.83301 31.5 17.5 44.5s27.167 19.5 46.5 19.5
c16 0 30.5 -6.16699 43.5 -18.5s19.5 -27.5 19.5 -45.5z" />
    <glyph glyph-name="uni05D405BC" unicode="&#x5d4;&#x5bc;" horiz-adv-x="870" 
d="M233 0h-163v465h163v-465zM776 0l-166.001 0.000976562v399c0 48 -4 89.167 -12 123.5s-23.167 62.5 -45.5 84.5s-53.166 38 -92.499 48s-90.333 15 -153 15c-32 0 -67 -2 -105 -6s-80.667 -9.66699 -128 -17l-17 144c96.667 16 188.334 24 275.001 24
c76.667 0 143 -6.5 199 -19.5s102.167 -34.5 138.5 -64.5s63.166 -69.333 80.499 -118s26 -108.334 26 -179.001v-434zM494.999 376.001c0 -17.333 -6.16797 -32.168 -18.501 -44.501s-27.166 -18.5 -44.499 -18.5c-19.333 0 -34.833 5.83301 -46.5 17.5
s-17.5 26.834 -17.5 45.501c0 16.667 5.83301 31.5 17.5 44.5s27.167 19.5 46.5 19.5c16 0 30.5 -6.16699 43.5 -18.5s19.5 -27.5 19.5 -45.5z" />
    <glyph glyph-name="uni05D605BC" unicode="&#x5d6;&#x5bc;" horiz-adv-x="655" 
d="M584 682c-36.667 0 -70.001 -5.16113 -100.001 -15.4941s-55.5 -25.333 -76.5 -45s-37.167 -43.334 -48.5 -71.001s-17 -58.834 -17 -93.501c0 -11.333 1.16699 -23 3.5 -35s4.5 -27 6.5 -45c5.33301 -56.667 9.5 -106.834 12.5 -150.501s4.5 -78.834 4.5 -105.501v-121
h-166v139c0 19.333 -1 49.333 -3 90s-5.66699 91.334 -11 152.001v-2c-3.33301 23.333 -5.16602 42.666 -5.49902 57.999s-0.5 26.666 -0.5 33.999c0 18.667 1.66699 37.667 5 57s8.5 38.166 15.5 56.499s15.333 35.833 25 52.5s21.167 31.667 34.5 45h-179v125h500v-125z
M142.999 382.006c0 -17.333 -6.16797 -32.168 -18.501 -44.501s-27.166 -18.5 -44.499 -18.5c-19.333 0 -34.833 5.83301 -46.5 17.5s-17.5 26.834 -17.5 45.501c0 16.667 5.83301 31.5 17.5 44.5s27.167 19.5 46.5 19.5c16 0 30.5 -6.16699 43.5 -18.5
s19.5 -27.5 19.5 -45.5z" />
    <glyph glyph-name="uni05D805BC" unicode="&#x5d8;&#x5bc;" horiz-adv-x="903" 
d="M821 436c0 -111.333 -9.3291 -192.334 -27.9961 -243.001c-11.333 -30 -26.666 -57.833 -45.999 -83.5s-43 -48.167 -71 -67.5s-60.333 -34.5 -97 -45.5s-77.334 -16.5 -122.001 -16.5c-37.333 0 -72.833 5.16699 -106.5 15.5s-64.834 24.5 -93.501 42.5
s-53.834 39.333 -75.501 64s-38.5 51.334 -50.5 80.001c-10 28 -18 62.167 -24 102.5s-9 87.5 -9 141.5v381h166v-418c0 -181.333 64.333 -272 193 -272c39.333 0 71.666 5.66699 96.999 17s45.5 29 60.5 53s25.5 54.833 31.5 92.5s9 83.167 9 136.5v98
c0 54 -6.83301 94.167 -20.5 120.5s-35.5 39.5 -65.5 39.5c-44 0 -86.333 -29.333 -127 -88l-59 94c28.667 48 61.167 83.833 97.5 107.5s76.166 35.5 119.499 35.5c147.333 0 221 -109.667 221 -329v-58zM538.004 399.999c0 -17.333 -6.16797 -32.168 -18.501 -44.501
s-27.166 -18.5 -44.499 -18.5c-19.333 0 -34.833 5.83301 -46.5 17.5s-17.5 26.834 -17.5 45.501c0 16.667 5.83301 31.5 17.5 44.5s27.167 19.5 46.5 19.5c16 0 30.5 -6.16699 43.5 -18.5s19.5 -27.5 19.5 -45.5z" />
    <glyph glyph-name="uni05D905BC" unicode="&#x5d9;&#x5bc;" horiz-adv-x="512" 
d="M379 269l-162 1v549l162 -1v-549zM160 538c0 -47.333 -24 -71.001 -72 -71.001c-18 0 -34.5 6.5 -49.5 19.5s-22.5 30.167 -22.5 51.5c0 18 6.5 34.5 19.5 49.5s30.5 22.5 52.5 22.5c18 0 34.5 -6.16699 49.5 -18.5s22.5 -30.166 22.5 -53.499z" />
    <glyph glyph-name="uni05DA05BC" unicode="&#x5da;&#x5bc;" horiz-adv-x="765" 
d="M682 -299l-165.999 -0.000976562v698c0 52.667 -5.66699 96.5 -17 131.5s-28.5 62.833 -51.5 83.5s-52 35.167 -87 43.5s-76.5 12.5 -124.5 12.5c-28 0 -58.5 -1.5 -91.5 -4.5s-69.5 -7.16699 -109.5 -12.5l-10 144c45.333 6 85.833 10.5 121.5 13.5s68.167 4.5 97.5 4.5
c76.667 0 142.667 -7 198 -21s100.666 -36.167 135.999 -66.5s61.5 -69.666 78.5 -117.999s25.5 -106.833 25.5 -175.5v-733zM381.001 297.999c0 -17.333 -6.16797 -32.168 -18.501 -44.501s-27.166 -18.5 -44.499 -18.5c-19.333 0 -34.833 5.83301 -46.5 17.5
s-17.5 26.834 -17.5 45.501c0 16.667 5.83301 31.5 17.5 44.5s27.167 19.5 46.5 19.5c16 0 30.5 -6.16699 43.5 -18.5s19.5 -27.5 19.5 -45.5z" />
    <glyph glyph-name="uni05DB05BC" unicode="&#x5db;&#x5bc;" horiz-adv-x="706" 
d="M647 403c0 -56.667 -8.99902 -110.167 -26.999 -160.5s-45 -94.333 -81 -132s-80.667 -67.5 -134 -89.5s-115.333 -33 -186 -33c-25.333 0 -51.666 2 -78.999 6s-57.666 10 -90.999 18l25 154c28 -8 54.333 -14.5 79 -19.5s48.667 -7.5 72 -7.5
c38.667 0 73.334 6.16699 104.001 18.5s56.667 29.833 78 52.5s37.666 50.334 48.999 83.001s17 69.334 17 110.001c0 38.667 -5.33301 74.167 -16 106.5s-26.5 60.166 -47.5 83.499s-46.833 41.666 -77.5 54.999s-66.334 20 -107.001 20c-23.333 0 -47.333 -2.33301 -72 -7
s-51 -10.667 -79 -18l-25 152c33.333 8 63.666 14 90.999 18s53.666 6 78.999 6c64.667 0 123.334 -10 176.001 -30s97.667 -48.167 135 -84.5s66.166 -80 86.499 -131s30.5 -107.833 30.5 -170.5zM358.001 400c0 -17.333 -6.16797 -32.168 -18.501 -44.501
s-27.166 -18.5 -44.499 -18.5c-19.333 0 -34.833 5.83301 -46.5 17.5s-17.5 26.834 -17.5 45.501c0 16.667 5.83301 31.5 17.5 44.5s27.167 19.5 46.5 19.5c16 0 30.5 -6.16699 43.5 -18.5s19.5 -27.5 19.5 -45.5z" />
    <glyph glyph-name="uni05DC05BC" unicode="&#x5dc;&#x5bc;" horiz-adv-x="709" 
d="M623 158c0 -24.667 -4.66602 -46.834 -13.999 -66.501s-21.5 -36.167 -36.5 -49.5s-32 -23.666 -51 -30.999s-37.833 -11 -56.5 -11h-178v143h129c9.33301 0 17.5 1.83301 24.5 5.5s12.667 8 17 13s7.66602 10 9.99902 15s3.5 8.83301 3.5 11.5v478h-434v440h166v-299
h420v-649zM381.001 434c0 -17.333 -6.16797 -32.168 -18.501 -44.501s-27.166 -18.5 -44.499 -18.5c-19.333 0 -34.833 5.83301 -46.5 17.5s-17.5 26.834 -17.5 45.501c0 16.667 5.83301 31.5 17.5 44.5s27.167 19.5 46.5 19.5c16 0 30.5 -6.16699 43.5 -18.5
s19.5 -27.5 19.5 -45.5z" />
    <glyph glyph-name="uni05DE05BC" unicode="&#x5de;&#x5bc;" horiz-adv-x="933" 
d="M825 0h-427.997v143h260v217c0 56 -1.5 103.667 -4.5 143s-9 71.333 -18 96s-21.833 42.667 -38.5 54s-38.667 17 -66 17c-55.333 0 -100.833 -31.333 -136.5 -94s-65.834 -155 -90.501 -277l-29.5 -149.5l-28.5 -149.5h-166l64 319c0 2.66699 0.333008 5 1 7
s1.66699 4.66699 3 8c3.33301 14 7.16602 32.833 11.499 56.5s10.833 49.834 19.5 78.501l-59 169.5l-60 170.5h160l49 -154c14 22 31.167 42.667 51.5 62s42.166 36.333 65.499 51s47.5 26.167 72.5 34.5s49.833 12.5 74.5 12.5c50.667 0 94.5 -8 131.5 -24
s67.5 -42 91.5 -78s41.667 -83.333 53 -142s17 -130.334 17 -215.001v-356zM598.003 376c0 -17.333 -6.16797 -32.168 -18.501 -44.501s-27.166 -18.5 -44.499 -18.5c-19.333 0 -34.833 5.83301 -46.5 17.5s-17.5 26.834 -17.5 45.501c0 16.667 5.83301 31.5 17.5 44.5
s27.167 19.5 46.5 19.5c16 0 30.5 -6.16699 43.5 -18.5s19.5 -27.5 19.5 -45.5z" />
    <glyph glyph-name="uni05E005BC" unicode="&#x5e0;&#x5bc;" horiz-adv-x="552" 
d="M471 0l-403 -0.00195312v143h237v371c0 56 -8.83301 95.333 -26.5 118s-50.5 35.334 -98.5 38.001c-6.66699 -1.33301 -15.5 -2.66602 -26.5 -3.99902l-34.5 -4l-10 135c46 12 80 18 102 18c94 0 160.833 -22.833 200.5 -68.5s59.5 -121.167 59.5 -226.5v-520z
M250 433.998c0 -17.333 -6.16797 -32.168 -18.501 -44.501s-27.166 -18.5 -44.499 -18.5c-19.333 0 -34.833 5.83301 -46.5 17.5s-17.5 26.834 -17.5 45.501c0 16.667 5.83301 31.5 17.5 44.5s27.167 19.5 46.5 19.5c16 0 30.5 -6.16699 43.5 -18.5s19.5 -27.5 19.5 -45.5z
" />
    <glyph glyph-name="uni05E105BC" unicode="&#x5e1;&#x5bc;" horiz-adv-x="877" 
d="M641 403c0 90.667 -17.332 160.833 -51.999 210.5s-84.334 74.5 -149.001 74.5c-65.333 0 -115 -26.333 -149 -79s-51 -122 -51 -208c0 -88.667 17.333 -157.5 52 -206.5s84 -73.5 148 -73.5c66 0 116 25.5 150 76.5s51 119.5 51 205.5zM819.001 400.999
c0 -58.667 -8.16699 -113.835 -24.5 -165.502s-40.166 -96.667 -71.499 -135s-71 -68.5 -119 -90.5s-102.667 -33 -164 -33c-57.333 0 -109.166 10.333 -155.499 31s-85.833 49.5 -118.5 86.5s-58.334 81.333 -77.001 133s-28 109.5 -28 173.5
c0 64.667 9.33301 123.167 28 175.5s44.334 97 77.001 134s72.167 65.667 118.5 86s98.166 30.5 155.499 30.5c52 0 101.167 -9.16699 147.5 -27.5s86.666 -45.166 120.999 -80.499s61.333 -79.666 81 -132.999s29.5 -115 29.5 -185zM526.001 399.998
c0 -17.333 -6.16797 -32.168 -18.501 -44.501s-27.166 -18.5 -44.499 -18.5c-19.333 0 -34.833 5.83301 -46.5 17.5s-17.5 26.834 -17.5 45.501c0 16.667 5.83301 31.5 17.5 44.5s27.167 19.5 46.5 19.5c16 0 30.5 -6.16699 43.5 -18.5s19.5 -27.5 19.5 -45.5z" />
    <glyph glyph-name="uni05E405BC" unicode="&#x5e4;&#x5bc;" horiz-adv-x="844" 
d="M549 430c0 -15.333 -6 -29.666 -18 -42.999s-27.333 -20 -46 -20c-43.333 0 -65 21 -65 63c0 44 21.667 66 65 66c16.667 0 31.5 -6.33301 44.5 -19s19.5 -28.334 19.5 -47.001zM770 414c0 -66 -10.3281 -125.332 -30.9951 -177.999s-50.667 -97.334 -90 -134.001
s-87.5 -64.834 -144.5 -84.501s-121.5 -29.5 -193.5 -29.5c-96 0 -176.333 20.333 -241 61l41 139c28 -18 57.333 -31.667 88 -41s64.667 -14 102 -14c43.333 0 83.166 6.33301 119.499 19s67.666 31 93.999 55s46.833 53.333 61.5 88s22 73.667 22 117
c0 40 -6.16699 76.333 -18.5 109s-29.5 60.667 -51.5 84s-48.5 41.333 -79.5 54s-65.167 19 -102.5 19c-18.667 0 -37.167 -0.666992 -55.5 -2s-36.5 -4 -54.5 -8v-133c0 -53.333 25.667 -80 77 -80c11.333 0 23.166 1.33301 35.499 4s25.166 6 38.499 10l21 -127
c-18.667 -7.33301 -37.334 -13 -56.001 -17s-38.334 -6 -59.001 -6c-143.333 0 -215 72.667 -215 218v239c96.667 28.667 189.334 43 278.001 43c63.333 0 120.5 -9.66699 171.5 -29s94.5 -46.666 130.5 -81.999s63.667 -77.833 83 -127.5s29 -105.167 29 -166.5z" />
    <glyph glyph-name="uni05E605BC" unicode="&#x5e6;&#x5bc;" horiz-adv-x="810" 
d="M731 633c0 -21.333 -4.16797 -45.3291 -12.501 -71.9961s-20.166 -53.5 -35.499 -80.5s-34 -53 -56 -78s-46.667 -46.5 -74 -64.5l145 -205v-133h-643v143h437l-237.5 332.5l-236.5 331.5h201l250 -348c12 9.33301 24.167 22.166 36.5 38.499s23.5 33.166 33.5 50.499
s18.167 34.166 24.5 50.499s9.5 29.166 9.5 38.499v170h158v-174zM255.999 314.004c0 -17.333 -6.16797 -32.168 -18.501 -44.501s-27.166 -18.5 -44.499 -18.5c-19.333 0 -34.833 5.83301 -46.5 17.5s-17.5 26.834 -17.5 45.501c0 16.667 5.83301 31.5 17.5 44.5
s27.167 19.5 46.5 19.5c16 0 30.5 -6.16699 43.5 -18.5s19.5 -27.5 19.5 -45.5z" />
    <glyph glyph-name="uni05E705BC" unicode="&#x5e7;&#x5bc;" horiz-adv-x="836" 
d="M276 -301h-166v766h166v-766zM758 156c0 -24.667 -4.66797 -46.668 -14.001 -66.001s-21.333 -35.666 -36 -48.999s-31.167 -23.5 -49.5 -30.5s-36.5 -10.5 -54.5 -10.5h-180v141h131c8 0 15.5 1.83301 22.5 5.5s12.833 8 17.5 13s8.33398 10 11.001 15s4 8.83301 4 11.5
v478h-504l5 143h652zM517.999 393.999c0 -17.333 -6.16797 -32.168 -18.501 -44.501s-27.166 -18.5 -44.499 -18.5c-19.333 0 -34.833 5.83301 -46.5 17.5s-17.5 26.834 -17.5 45.501c0 16.667 5.83301 31.5 17.5 44.5s27.167 19.5 46.5 19.5c16 0 30.5 -6.16699 43.5 -18.5
s19.5 -27.5 19.5 -45.5z" />
    <glyph glyph-name="uni05E905BC" unicode="&#x5e9;&#x5bc;" horiz-adv-x="1038" 
d="M971 807c-4 -8.66699 -6.33301 -15.332 -7 -19.999s-1 -9.66699 -1 -15v-268c0 -38.667 -5.5 -79.834 -16.5 -123.501s-26.5 -86.334 -46.5 -128.001s-43.667 -80.667 -71 -117s-57.333 -65.833 -90 -88.5c-66.667 -46.667 -153.334 -70 -260.001 -70
c-43.333 0 -83.666 4.5 -120.999 13.5s-72 24 -104 45s-61.167 48.5 -87.5 82.5s-49.5 76 -69.5 126c-7.33301 18.667 -12.666 46.667 -15.999 84s-5 85 -5 143v336h164v-414c24.667 0.666992 50.167 4.5 76.5 11.5s50.333 17.5 72 31.5s39.5 31.833 53.5 53.5
s21 47.5 21 77.5v240h151v-260c0 -35.333 -8.5 -69.666 -25.5 -102.999s-41.167 -63.166 -72.5 -89.499s-69.166 -47.833 -113.499 -64.5s-93.833 -25.334 -148.5 -26.001c8 -20 19.167 -38.667 33.5 -56s31.333 -32.5 51 -45.5s41.834 -23.167 66.501 -30.5
s51.334 -11 80.001 -11c27.333 0 52.666 3 75.999 9s45.666 15.833 66.999 29.5s41.666 32 60.999 55s38.666 51.5 57.999 85.5c37.333 65.333 56 118.333 56 159v348h168zM667 292.002c0 -17.333 -6.16797 -32.168 -18.501 -44.501s-27.166 -18.5 -44.499 -18.5
c-19.333 0 -34.833 5.83301 -46.5 17.5s-17.5 26.834 -17.5 45.501c0 16.667 5.83301 31.5 17.5 44.5s27.167 19.5 46.5 19.5c16 0 30.5 -6.16699 43.5 -18.5s19.5 -27.5 19.5 -45.5z" />
    <glyph glyph-name="uni05EA05BC" unicode="&#x5ea;&#x5bc;" horiz-adv-x="956" 
d="M885 0l-165.998 0.000976562v397c0 49.333 -3.16699 91.333 -9.5 126s-18.833 63 -37.5 85s-44.834 38.167 -78.501 48.5s-77.834 15.5 -132.501 15.5h-74v-465c0 -34.667 -2.33301 -65.334 -7 -92.001s-14.334 -49 -29.001 -67s-36.167 -31.5 -64.5 -40.5
s-65.833 -13.5 -112.5 -13.5c-55.333 0 -105 9.66699 -149 29l28 129c18.667 -5.33301 35.334 -9.5 50.001 -12.5s28.667 -4.5 42 -4.5c28 0 47.667 6.83301 59 20.5s17 36.834 17 69.501v338l105 107c-16.667 -1.33301 -32.5 -2.33301 -47.5 -3s-30.167 -1 -45.5 -1
c-5.33301 0 -9.33301 -0.333008 -12 -1s-6 -1.66699 -10 -3s-11 -3 -21 -5s-20.667 -4 -32 -6l-15 140c64.667 9.33301 118.167 15.666 160.5 18.999s77.166 5 104.499 5c79.333 0 148.833 -4.5 208.5 -13.5s109.334 -27.167 149.001 -54.5s69.5 -66 89.5 -116
s30 -115.667 30 -197v-434zM645.002 359.001c0 -17.333 -6.16797 -32.168 -18.501 -44.501s-27.166 -18.5 -44.499 -18.5c-19.333 0 -34.833 5.83301 -46.5 17.5s-17.5 26.834 -17.5 45.501c0 16.667 5.83301 31.5 17.5 44.5s27.167 19.5 46.5 19.5
c16 0 30.5 -6.16699 43.5 -18.5s19.5 -27.5 19.5 -45.5z" />
    <glyph glyph-name="uni05D505B9" unicode="&#x5d5;&#x5b9;" horiz-adv-x="370" 
d="M276 0h-167v807h167v-807zM258 950c0 -42 -21 -63.001 -63 -63.001c-19.333 0 -34.833 5.83301 -46.5 17.5s-17.5 26.834 -17.5 45.501c0 42.667 21.333 64 64 64c42 0 63 -21.333 63 -64z" />
    <glyph glyph-name="behmeemisolatedarabic" unicode="&#xfe91;&#xfee2;" horiz-adv-x="942" arabic-form="isolated" 
d="M727 76l-96 -155.999l-74 45c-38 23.333 -77.667 35 -119 35h-297l23 -426c0 -19.333 -7 -38.333 -21 -57l-18 -33l-76 -121l-26 389c-2 20.667 -4.33301 42.667 -7 66c-1.33301 14.667 -2 29 -2 43c0 22 9 57.333 27 106c16.667 45.333 42 103.333 76 174
c10.667 23.333 21.667 37.666 33 42.999c4 1.33301 23 3.33301 57 6l33 3h92c44.667 72 89 136 133 192c113.333 147.333 224 221 332 221c65.333 0 98 -29.333 98 -88c0 -40.667 -32 -104.667 -96 -192c-18 57.333 -45.333 86 -82 86c-30 0 -66.167 -18.167 -108.5 -54.5
s-80.5 -81.833 -114.5 -136.5zM934 -267.999l-98 -90l-129 116l102 92z" />
    <glyph glyph-name="tehjeemisolatedarabic" unicode="&#xfe97;&#xfe9e;" horiz-adv-x="1051" arabic-form="isolated" 
d="M1036 633l-92.0029 -182c-17.333 0 -38.333 -0.666992 -63 -2c-131.333 -7.33301 -248.333 -36.333 -351 -87c-96.667 -47.333 -175.667 -110.666 -237 -189.999s-92 -158.666 -92 -237.999c0 -100.667 44.667 -182.834 134 -246.501s205 -95.5 347 -95.5
c79.333 0 185 13.667 317 41c-50 -43.333 -93.5 -85.5 -130.5 -126.5s-62.167 -64.833 -75.5 -71.5c-37.333 -19.333 -114 -29 -230 -29c-146 0 -261.333 35.667 -346 107c-96.667 81.333 -145 196 -145 344c0 106 29.667 212 89 318s141 198 245 276
c-54.667 14.667 -102.667 22 -144 22c-58.667 0 -115.334 -13.667 -170.001 -41l51 119c8.66699 19.333 18.334 39.666 29.001 60.999c10.667 15.333 23.667 24.333 39 27l25 4l16 4c88.667 54.667 155.5 111.334 200.5 170.001s83.833 140.667 116.5 246
c24.667 78 49.334 117 74.001 117c32.667 0 76.334 -48 131.001 -144c23.333 -40.667 35 -80 35 -118c0 -33.333 -9.66699 -83.333 -29 -150c-38 78 -70.667 132 -98 162c-20.667 22 -35 33 -43 33c-4 0 -8 -2.33301 -12 -7c-18 -44.667 -35.333 -90.334 -52 -137.001
c-35.333 -87.333 -74.666 -149.333 -117.999 -186c12 0 27.667 -1.33301 47 -4c98 -5.33301 188.667 -8 272 -8c90 0 176.667 4 260 12zM656.997 -14l-100 -90l-127 116l100 92zM591.997 1311l-103 -90l-77 71l-82 -71l-125 120l100 89l76 -72l86 72z" />
    <glyph glyph-name="tehhahisolatedarabic" unicode="&#xfe97;&#xfea2;" horiz-adv-x="1051" arabic-form="isolated" 
d="M1036 633l-92.0029 -182c-17.333 0 -38.333 -0.666992 -63 -2c-131.333 -7.33301 -248.333 -36.333 -351 -87c-96.667 -47.333 -175.667 -110.666 -237 -189.999s-92 -158.666 -92 -237.999c0 -100.667 44.667 -182.834 134 -246.501s205 -95.5 347 -95.5
c79.333 0 185 13.667 317 41c-50 -43.333 -93.5 -85.5 -130.5 -126.5s-62.167 -64.833 -75.5 -71.5c-37.333 -19.333 -114 -29 -230 -29c-146 0 -261.333 35.667 -346 107c-96.667 81.333 -145 196 -145 344c0 106 29.667 212 89 318s141 198 245 276
c-54.667 14.667 -102.667 22 -144 22c-58.667 0 -115.334 -13.667 -170.001 -41l51 119c8.66699 19.333 18.334 39.666 29.001 60.999c10.667 15.333 23.667 24.333 39 27l25 4l16 4c88.667 54.667 155.5 111.334 200.5 170.001s83.833 140.667 116.5 246
c24.667 78 49.334 117 74.001 117c32.667 0 76.334 -48 131.001 -144c23.333 -40.667 35 -80 35 -118c0 -33.333 -9.66699 -83.333 -29 -150c-38 78 -70.667 132 -98 162c-20.667 22 -35 33 -43 33c-4 0 -8 -2.33301 -12 -7c-18 -44.667 -35.333 -90.334 -52 -137.001
c-35.333 -87.333 -74.666 -149.333 -117.999 -186c12 0 27.667 -1.33301 47 -4c98 -5.33301 188.667 -8 272 -8c90 0 176.667 4 260 12zM591.997 1311l-103 -90l-77 71l-82 -71l-125 120l100 89l76 -72l86 72z" />
    <glyph glyph-name="tehmeemisolatedarabic" unicode="&#xfe97;&#xfee2;" horiz-adv-x="903" arabic-form="isolated" 
d="M727 76l-96 -155.999l-74 45c-38 23.333 -77.667 35 -119 35h-297l23 -426c0 -19.333 -7 -38.333 -21 -57l-18 -33l-76 -121l-26 389c-2 20.667 -4.33301 42.667 -7 66c-1.33301 14.667 -2 29 -2 43c0 22 9 57.333 27 106c16.667 45.333 42 103.333 76 174
c10.667 23.333 21.667 37.666 33 42.999c4 1.33301 23 3.33301 57 6l33 3h92c44.667 72 89 136 133 192c113.333 147.333 224 221 332 221c65.333 0 98 -29.333 98 -88c0 -40.667 -32 -104.667 -96 -192c-18 57.333 -45.333 86 -82 86c-30 0 -66.167 -18.167 -108.5 -54.5
s-80.5 -81.833 -114.5 -136.5zM895 803.001l-102 -90l-78 71l-84 -71l-123 118l100 89l76 -70l84 70z" />
    <glyph glyph-name="meemmeemisolatedarabic" unicode="&#xfee3;&#xfee2;" horiz-adv-x="936" arabic-form="isolated" 
d="M727 80l-98.001 -158.001l-90 53c-27.333 16.667 -50 25 -68 25h-330l23 -418c0 -22 -13 -52.667 -39 -92l-72 -111l-35 422c-2.66699 32.667 -4 52.667 -4 60c0 13.333 1.33301 24.333 4 33c4.66699 28.667 19.667 74.334 45 137.001c28.667 68 52 115 70 141
c8 12 19.667 18 35 18h20l21 3h170c24.667 35.333 66.334 90.333 125.001 165c40.667 48 87.667 91 141 129l-16 29c-7.33301 6.66699 -11 14.334 -11 23.001c0 5.33301 7 16 21 32l27 33c35.333 44 61 66 77 66c24.667 0 74.667 -30.667 150 -92
c23.333 -19.333 35 -38 35 -56c0 -10.667 -15.667 -38.667 -47 -84c-6 -8 -15.333 -17.833 -28 -29.5s-30 -18.834 -52 -21.501c-113.333 -12 -206.333 -72.667 -279 -182z" />
    <glyph glyph-name="noonjeemisolatedarabic" unicode="&#xfee7;&#xfe9e;" horiz-adv-x="1051" arabic-form="isolated" 
d="M1036 633l-92.0029 -182c-17.333 0 -38.333 -0.666992 -63 -2c-131.333 -7.33301 -248.333 -36.333 -351 -87c-96.667 -47.333 -175.667 -110.666 -237 -189.999s-92 -158.666 -92 -237.999c0 -100.667 44.667 -182.834 134 -246.501s205 -95.5 347 -95.5
c79.333 0 185 13.667 317 41c-50 -43.333 -93.5 -85.5 -130.5 -126.5s-62.167 -64.833 -75.5 -71.5c-37.333 -19.333 -114 -29 -230 -29c-146 0 -261.333 35.667 -346 107c-96.667 81.333 -145 196 -145 344c0 106 29.667 212 89 318s141 198 245 276
c-54.667 14.667 -102.667 22 -144 22c-58.667 0 -115.334 -13.667 -170.001 -41l51 119c8.66699 19.333 18.334 39.666 29.001 60.999c10.667 15.333 23.667 24.333 39 27l25 4l16 4c88.667 54.667 155.5 111.334 200.5 170.001s83.833 140.667 116.5 246
c24.667 78 49.334 117 74.001 117c32.667 0 76.334 -48 131.001 -144c23.333 -40.667 35 -80 35 -118c0 -33.333 -9.66699 -83.333 -29 -150c-38 78 -70.667 132 -98 162c-20.667 22 -35 33 -43 33c-4 0 -8 -2.33301 -12 -7c-18 -44.667 -35.333 -90.334 -52 -137.001
c-35.333 -87.333 -74.666 -149.333 -117.999 -186c12 0 27.667 -1.33301 47 -4c98 -5.33301 188.667 -8 272 -8c90 0 176.667 4 260 12zM656.997 -14l-100 -90l-127 116l100 92zM591.997 1311l-98 -88l-129 116l102 93z" />
    <glyph glyph-name="noonmeemisolatedarabic" unicode="&#xfee7;&#xfee2;" horiz-adv-x="903" arabic-form="isolated" 
d="M727 76l-96 -155.999l-74 45c-38 23.333 -77.667 35 -119 35h-297l23 -426c0 -19.333 -7 -38.333 -21 -57l-18 -33l-76 -121l-26 389c-2 20.667 -4.33301 42.667 -7 66c-1.33301 14.667 -2 29 -2 43c0 22 9 57.333 27 106c16.667 45.333 42 103.333 76 174
c10.667 23.333 21.667 37.666 33 42.999c4 1.33301 23 3.33301 57 6l33 3h92c44.667 72 89 136 133 192c113.333 147.333 224 221 332 221c65.333 0 98 -29.333 98 -88c0 -40.667 -32 -104.667 -96 -192c-18 57.333 -45.333 86 -82 86c-30 0 -66.167 -18.167 -108.5 -54.5
s-80.5 -81.833 -114.5 -136.5zM842 803.001l-101 -90l-127 116l101 93z" />
    <glyph glyph-name="yehmeemisolatedarabic" unicode="&#xfef3;&#xfee2;" horiz-adv-x="903" arabic-form="isolated" 
d="M727 76l-96 -155.999l-74 45c-38 23.333 -77.667 35 -119 35h-297l23 -426c0 -19.333 -7 -38.333 -21 -57l-18 -33l-76 -121l-26 389c-2 20.667 -4.33301 42.667 -7 66c-1.33301 14.667 -2 29 -2 43c0 22 9 57.333 27 106c16.667 45.333 42 103.333 76 174
c10.667 23.333 21.667 37.666 33 42.999c4 1.33301 23 3.33301 57 6l33 3h92c44.667 72 89 136 133 192c113.333 147.333 224 221 332 221c65.333 0 98 -29.333 98 -88c0 -40.667 -32 -104.667 -96 -192c-18 57.333 -45.333 86 -82 86c-30 0 -66.167 -18.167 -108.5 -54.5
s-80.5 -81.833 -114.5 -136.5zM899 -314.999l-102 -91l-80 72l-82 -72l-125 119l102 88l76 -69l84 69z" />
    <glyph glyph-name="shaddadammatanarabic" unicode="&#x64c;&#x651;" arabic-form="isolated" 
d="M473 1472c51.333 -61.333 77 -115.666 77 -162.999c0 -26 -9.33301 -61.667 -28 -107h-146l-24 37l-41 -37c-91.333 0 -145.333 4 -162 12c-35.333 19.333 -53 51.666 -53 96.999c0 44.667 15.667 91 47 139c-6.66699 -35.333 -10 -59.333 -10 -72
c0 -57.333 33.333 -86 100 -86h84l-78 115l45 47l113 -162h98c-9.33301 48 -34 91 -74 129zM372 1536l-23.999 -106.999l-23 91c-12 -4.66699 -55.667 -16.167 -131 -34.5l-113 -27.5c0 -1.33301 21.5 39.667 64.5 123s64.5 140.666 64.5 171.999c0 12 -4.66699 18 -14 18
c-28.667 0 -89.334 -40 -182.001 -120c17.333 27.333 32.333 49 45 65c79.333 98.667 145 148 197 148c22.667 0 34 -12.333 34 -37c0 -49.333 -36.667 -143 -110 -281c22 4 70.333 21 145 51c5.33301 75.333 25.5 136.833 60.5 184.5s75.5 71.5 121.5 71.5
c40 0 60 -19.667 60 -59c0 -26 -6.33301 -60.667 -19 -104c-16 -50.667 -33.667 -81.667 -53 -93c-31.333 -18.667 -72.333 -39 -123 -61zM485.001 1628c10.667 23.333 16 48 16 74s-8.66699 39 -26 39c-20.667 0 -40.5 -15.667 -59.5 -47s-29.833 -67 -32.5 -107
c22.667 5.33301 56.667 19 102 41z" />
    <glyph glyph-name="shaddakasratanarabic" unicode="&#x64d;&#x651;" arabic-form="isolated" 
d="M639 1410l-37 -43c-94 -108 -215.333 -163.333 -364 -166c-53.333 -1.33301 -121.666 4 -204.999 16c94 23.333 191.167 50 291.5 80s205.166 67.667 314.499 113zM639 1615l-37 -43c-94 -108 -215.333 -163.333 -364 -166c-53.333 -1.33301 -121.666 4 -204.999 16
c94 23.333 191.167 50 291.5 80s205.166 67.667 314.499 113zM436 1867c52 -62 78.001 -116.667 78.001 -164c0 -26 -9.66699 -61.667 -29 -107h-145l-25 37l-41 -37c-92.667 0 -146.334 4.33301 -161.001 13c-36 18.667 -54 50.667 -54 96c0 44.667 15.667 91 47 139
c-6.66699 -35.333 -10 -59.333 -10 -72c0 -57.333 33.667 -86 101 -86h84l-78 115l45 47l112 -162h99c-10 48 -34.667 91 -74 129z" />
    <glyph glyph-name="shaddafathaarabic" unicode="&#x64e;&#x651;" arabic-form="isolated" 
d="M618 1705l-36 -43.002c-94.667 -107.333 -216.334 -162.666 -365.001 -165.999c-53.333 -1.33301 -121.666 4.33398 -204.999 17.001c94.667 23.333 192.167 50 292.5 80s204.833 67.333 313.5 112zM489 1474c52 -61.333 78 -115.999 78 -163.999
c0 -26 -9.33301 -61.333 -28 -106h-146l-24 36l-41 -36c-92 0 -146 4 -162 12c-35.333 19.333 -53 51.333 -53 96c0 45.333 15.667 91.666 47 138.999c-6.66699 -35.333 -10 -59 -10 -71c0 -57.333 33.333 -86 100 -86h84l-78 114l45 47l113 -161h98
c-9.33301 47.333 -34 90.333 -74 129z" />
    <glyph glyph-name="shaddadammaarabic" unicode="&#x64f;&#x651;" arabic-form="isolated" 
d="M489 1470c52 -60 78 -114.667 78 -164c0 -26 -9.33301 -61.333 -28 -106h-146l-24 37l-41 -37c-92 0 -146 4 -162 12c-35.333 19.333 -53 51.333 -53 96c0 45.333 15.667 92 47 140c-6.66699 -36 -10 -60 -10 -72c0 -57.333 33.333 -86 100 -86h84l-78 115l45 47
l113 -162h98c-9.33301 49.333 -34 92.333 -74 129zM39 1460c64 31.333 159.001 82.002 285.001 152.002c2.66699 70.667 22 129.5 58 176.5s78.667 70.5 128 70.5c36.667 0 55 -21 55 -63c0 -18 -5 -45.333 -15 -82s-19.833 -64.334 -29.5 -83.001
s-59.5 -46.334 -149.5 -83.001l-27 -108l-18 94c-37.333 -14 -85.333 -27.667 -144 -41c-92.667 -22 -140.334 -33 -143.001 -33zM383.001 1585c2.66699 1.33301 15.667 7.33301 39 18c53.333 26 80 59.667 80 101c0 16 -9.66699 24 -29 24
c-20.667 0 -39.5 -13.667 -56.5 -41s-28.167 -61.333 -33.5 -102z" />
    <glyph glyph-name="shaddakasraarabic" unicode="&#x650;&#x651;" arabic-form="isolated" 
d="M618 1412l-36 -44c-94.667 -107.333 -216.334 -162.333 -365.001 -165c-53.333 -1.33301 -121.666 4 -204.999 16c94.667 23.333 192.167 50 292.5 80s204.833 67.667 313.5 113zM408 1659c51.333 -61.333 77 -116 77 -164c0 -25.333 -9.33301 -60.666 -28 -105.999h-146
l-24 37l-41 -37c-91.333 0 -145.333 4 -162 12c-35.333 19.333 -53 51.666 -53 96.999c0 44.667 15.667 91 47 139c-6.66699 -35.333 -10 -59.333 -10 -72c0 -57.333 33.333 -86 100 -86h84l-78 115l45 47l113 -162h98c-9.33301 48 -34 91 -74 129z" />
    <glyph glyph-name="shaddawithsuperscriptalef" unicode="&#x651;&#x670;" arabic-form="isolated" 
d="M489 1471c52 -62 78 -116.667 78 -164c0 -26 -9.33301 -61.667 -28 -107h-146l-24 37l-41 -37c-92 0 -146 4.33301 -162 13c-35.333 18.667 -53 50.667 -53 96c0 44.667 15.667 91 47 139c-6.66699 -35.333 -10 -59.333 -10 -72c0 -57.333 33.333 -86 100 -86h84l-78 115
l45 47l113 -162h98c-9.33301 48 -34 91 -74 129zM422 1704c0 -70.667 -30.667 -145 -92 -223c6.66699 82 10 136.667 10 164c0 84.667 -11 168.667 -33 252l74 77c27.333 -100.667 41 -190.667 41 -270z" />
    <glyph glyph-name="behnoonfinalarabic" unicode="&#xfe92;&#xfee6;" horiz-adv-x="1407" arabic-form="final" 
d="M788 143c3.33301 -38 5.00195 -59 5.00195 -63c0 -52 -11 -115 -33 -189c-12.667 -42 -30.334 -89.667 -53.001 -143c-49.333 -39.333 -110.5 -72.333 -183.5 -99s-138.167 -40 -195.5 -40c-80.667 0 -148.334 28 -203.001 84s-82 125.667 -82 209
c0 69.333 20.333 162.666 61 279.999c14 38.667 34 87.334 60 146.001c-24.667 -117.333 -37 -209.666 -37 -276.999c0 -79.333 19.5 -141.833 58.5 -187.5s92.5 -68.5 160.5 -68.5c50.667 0 108 14 172 42s118.667 62 164 102c-4 76 -14.333 142.667 -31 200
c-14.667 53.333 -46 116.333 -94 189l111 131c14.667 -22 35.667 -60.333 63 -115l4 -8h289v108l152 162l2 -375c1.33301 -25.333 17.666 -38 48.999 -38h186v-193h-209c-49.333 0 -86.666 4 -111.999 12c-48 15.333 -72 59.666 -72 132.999c0 -6.66699 1.33301 16 4 68
l-49 -70h-187zM485.002 535l-100 -91l-129 117l102 92zM870.002 -223l101 90l127 -117l-101 -92z" />
    <glyph glyph-name="tehnoonfinalarabic" unicode="&#xfe98;&#xfee6;" horiz-adv-x="1407" arabic-form="final" 
d="M788 143c3.33301 -38 5.00195 -59 5.00195 -63c0 -52 -11 -115 -33 -189c-12.667 -42 -30.334 -89.667 -53.001 -143c-49.333 -39.333 -110.5 -72.333 -183.5 -99s-138.167 -40 -195.5 -40c-80.667 0 -148.334 28 -203.001 84s-82 125.667 -82 209
c0 69.333 20.333 162.666 61 279.999c14 38.667 34 87.334 60 146.001c-24.667 -117.333 -37 -209.666 -37 -276.999c0 -79.333 19.5 -141.833 58.5 -187.5s92.5 -68.5 160.5 -68.5c50.667 0 108 14 172 42s118.667 62 164 102c-4 76 -14.333 142.667 -31 200
c-14.667 53.333 -46 116.333 -94 189l111 131c14.667 -22 35.667 -60.333 63 -115l4 -8h289v108l152 162l2 -375c1.33301 -25.333 17.666 -38 48.999 -38h186v-193h-209c-49.333 0 -86.666 4 -111.999 12c-48 15.333 -72 59.666 -72 132.999c0 -6.66699 1.33301 16 4 68
l-49 -70h-187zM485.002 535l-100 -91l-129 117l102 92zM1137 809l-103 -90l-78 72l-84 -72l-122 121l100 88l76 -72l84 72z" />
    <glyph glyph-name="noonnoonfinalarabic" unicode="&#xfee8;&#xfee6;" horiz-adv-x="1407" arabic-form="final" 
d="M788 143c3.33301 -38 5.00195 -59 5.00195 -63c0 -52 -11 -115 -33 -189c-12.667 -42 -30.334 -89.667 -53.001 -143c-49.333 -39.333 -110.5 -72.333 -183.5 -99s-138.167 -40 -195.5 -40c-80.667 0 -148.334 28 -203.001 84s-82 125.667 -82 209
c0 69.333 20.333 162.666 61 279.999c14 38.667 34 87.334 60 146.001c-24.667 -117.333 -37 -209.666 -37 -276.999c0 -79.333 19.5 -141.833 58.5 -187.5s92.5 -68.5 160.5 -68.5c50.667 0 108 14 172 42s118.667 62 164 102c-4 76 -14.333 142.667 -31 200
c-14.667 53.333 -46 116.333 -94 189l111 131c14.667 -22 35.667 -60.333 63 -115l4 -8h289v108l152 162l2 -375c1.33301 -25.333 17.666 -38 48.999 -38h186v-193h-209c-49.333 0 -86.666 4 -111.999 12c-48 15.333 -72 59.666 -72 132.999c0 -6.66699 1.33301 16 4 68
l-49 -70h-187zM485.002 535l-100 -91l-129 117l102 92zM977.002 797l-100 -88l-127 114l100 95z" />
    <glyph glyph-name="yehnoonfinalarabic" unicode="&#xfef4;&#xfee6;" horiz-adv-x="1407" arabic-form="final" 
d="M788 143c3.33301 -38 5.00195 -59 5.00195 -63c0 -52 -11 -115 -33 -189c-12.667 -42 -30.334 -89.667 -53.001 -143c-49.333 -39.333 -110.5 -72.333 -183.5 -99s-138.167 -40 -195.5 -40c-80.667 0 -148.334 28 -203.001 84s-82 125.667 -82 209
c0 69.333 20.333 162.666 61 279.999c14 38.667 34 87.334 60 146.001c-24.667 -117.333 -37 -209.666 -37 -276.999c0 -79.333 19.5 -141.833 58.5 -187.5s92.5 -68.5 160.5 -68.5c50.667 0 108 14 172 42s118.667 62 164 102c-4 76 -14.333 142.667 -31 200
c-14.667 53.333 -46 116.333 -94 189l111 131c14.667 -22 35.667 -60.333 63 -115l4 -8h289v108l152 162l2 -375c1.33301 -25.333 17.666 -38 48.999 -38h186v-193h-209c-49.333 0 -86.666 4 -111.999 12c-48 15.333 -72 59.666 -72 132.999c0 -6.66699 1.33301 16 4 68
l-49 -70h-187zM485.002 535l-100 -91l-129 117l102 92zM1235 -272l-102 -90l-78 71l-84 -71l-123 118l100 88l76 -69l86 69z" />
    <glyph glyph-name="behmeeminitialarabic" unicode="&#xfe91;&#xfee4;" horiz-adv-x="840" arabic-form="initial" 
d="M659 76l-93.999 -156l-239 143l-39 -63h-312v193h293c45.333 72 89.666 136 132.999 192c113.333 147.333 224 221 332 221c65.333 0 98 -29.333 98 -88c0 -40.667 -32 -104.667 -96 -192c-18.667 57.333 -46 86 -82 86c-30 0 -66.167 -18.167 -108.5 -54.5
s-80.5 -81.833 -114.5 -136.5zM750.001 -319l-101 -91l-127 117l101 94z" />
    <glyph glyph-name="tehjeeminitialarabic" unicode="&#xfe97;&#xfea0;" horiz-adv-x="1118" arabic-form="initial" 
d="M1104 303l-109 -167.999c-48.667 14 -97 21 -145 21c-122.667 0 -218.334 -35 -287.001 -105c-24.667 -26 -39.667 -40.333 -45 -43c-9.33301 -5.33301 -27.666 -8 -54.999 -8h-488v193h541c42.667 31.333 78.334 51 107.001 59c-172 112 -293 168 -363 168
c-18 0 -43.333 -5.66699 -76 -17c113.333 101.333 197.333 218.333 252 351l51 125c19.333 47.333 39.333 71 60 71c14.667 0 33 -12.333 55 -37c76.667 -84.667 115 -160.334 115 -227.001c0 -23.333 -10.333 -73.666 -31 -150.999c-6.66699 16 -12 27.333 -16 34
c-30 53.333 -58.667 97.666 -86 132.999c-12.667 16.667 -24.334 25 -35.001 25c-12.667 0 -25.667 -17.667 -39 -53c-18 -45.333 -29.667 -73.333 -35 -84c-6.66699 -15.333 -17 -31 -31 -47c6 1.33301 11 2 15 2c18.667 0 71.667 -22.667 159 -68l152 -78
c106.667 -54.667 218 -86.667 334 -96zM465 -230.999l98 90l129 -117l-102 -92zM494 1079l-103 -92l-78 72l-82 -72l-125 121l101 88l76 -72l86 72z" />
    <glyph glyph-name="tehhahinitialarabic" unicode="&#xfe97;&#xfea4;" horiz-adv-x="1118" arabic-form="initial" 
d="M1104 303l-109 -167.999c-48.667 14 -97 21 -145 21c-122.667 0 -218.334 -35 -287.001 -105c-24.667 -26 -39.667 -40.333 -45 -43c-9.33301 -5.33301 -27.666 -8 -54.999 -8h-488v193h541c42.667 31.333 78.334 51 107.001 59c-172 112 -293 168 -363 168
c-18 0 -43.333 -5.66699 -76 -17c113.333 101.333 197.333 218.333 252 351l51 125c19.333 47.333 39.333 71 60 71c14.667 0 33 -12.333 55 -37c76.667 -84.667 115 -160.334 115 -227.001c0 -23.333 -10.333 -73.666 -31 -150.999c-6.66699 16 -12 27.333 -16 34
c-30 53.333 -58.667 97.666 -86 132.999c-12.667 16.667 -24.334 25 -35.001 25c-12.667 0 -25.667 -17.667 -39 -53c-18 -45.333 -29.667 -73.333 -35 -84c-6.66699 -15.333 -17 -31 -31 -47c6 1.33301 11 2 15 2c18.667 0 71.667 -22.667 159 -68l152 -78
c106.667 -54.667 218 -86.667 334 -96zM494 1079l-103 -92l-78 72l-82 -72l-125 121l101 88l76 -72l86 72z" />
    <glyph glyph-name="tehmeeminitialarabic" unicode="&#xfe97;&#xfee4;" horiz-adv-x="872" arabic-form="initial" 
d="M659 76l-93.999 -156l-239 143l-39 -63h-312v193h293c45.333 72 89.666 136 132.999 192c113.333 147.333 224 221 332 221c65.333 0 98 -29.333 98 -88c0 -40.667 -32 -104.667 -96 -192c-18.667 57.333 -46 86 -82 86c-30 0 -66.167 -18.167 -108.5 -54.5
s-80.5 -81.833 -114.5 -136.5zM477.001 838l103 92l79 -72l82 72l125 -121l-102 -88l-76 72l-84 -72z" />
    <glyph glyph-name="lamjeeminitialarabic" unicode="&#xfedf;&#xfea0;" horiz-adv-x="1120" arabic-form="initial" 
d="M694 -254l-98 -90l-129 117l102 92zM688 877l19.001 -297.001c2.66699 -44 4 -68 4 -72c0 -20.667 -7.66699 -44.667 -23 -72c62.667 -31.333 120.667 -56 174 -74c88.667 -31.333 170 -47.666 244 -48.999l-107 -172c-48.667 14 -99.667 21 -153 21
c-108 0 -200.333 -34.333 -277 -103c-32.667 -28.667 -52.334 -45 -59.001 -49c-12 -6.66699 -32.333 -10 -61 -10h-474v193h535c35.333 31.333 73.666 52.333 114.999 63c-22 10.667 -62.333 33.334 -121 68.001c-31.333 18.667 -67 38.334 -107 59.001
c-47.333 24.667 -90.333 37 -129 37c-23.333 0 -48.333 -6.33301 -75 -19l108 119c28.667 30 53.334 45 74.001 45h24c27.333 -4 57.333 -6 90 -6c16.667 0 41.334 2 74.001 6l-18 369c-38.667 10.667 -58 27 -58 49c0 6.66699 5.66699 19.667 17 39l16 29l70 114
c2.66699 -28.667 11.167 -49.834 25.5 -63.501s43.166 -29.834 86.499 -48.501l91 -39l-64 -150z" />
    <glyph glyph-name="lamhahinitialarabic" unicode="&#xfedf;&#xfea4;" horiz-adv-x="1120" arabic-form="initial" 
d="M688 877l19.001 -297.001c2.66699 -44 4 -68 4 -72c0 -20.667 -7.66699 -44.667 -23 -72c62.667 -31.333 120.667 -56 174 -74c88.667 -31.333 170 -47.666 244 -48.999l-107 -172c-48.667 14 -99.667 21 -153 21c-108 0 -200.333 -34.333 -277 -103
c-32.667 -28.667 -52.334 -45 -59.001 -49c-12 -6.66699 -32.333 -10 -61 -10h-474v193h535c35.333 31.333 73.666 52.333 114.999 63c-22 10.667 -62.333 33.334 -121 68.001c-31.333 18.667 -67 38.334 -107 59.001c-47.333 24.667 -90.333 37 -129 37
c-23.333 0 -48.333 -6.33301 -75 -19l108 119c28.667 30 53.334 45 74.001 45h24c27.333 -4 57.333 -6 90 -6c16.667 0 41.334 2 74.001 6l-18 369c-38.667 10.667 -58 27 -58 49c0 6.66699 5.66699 19.667 17 39l16 29l70 114c2.66699 -28.667 11.167 -49.834 25.5 -63.501
s43.166 -29.834 86.499 -48.501l91 -39l-64 -150z" />
    <glyph glyph-name="lamkhahinitialarabic" unicode="&#xfedf;&#xfea8;" horiz-adv-x="1120" arabic-form="initial" 
d="M303 817l-98 -90l-129 117l102 92zM688 877l19.001 -297.001c2.66699 -44 4 -68 4 -72c0 -20.667 -7.66699 -44.667 -23 -72c62.667 -31.333 120.667 -56 174 -74c88.667 -31.333 170 -47.666 244 -48.999l-107 -172c-48.667 14 -99.667 21 -153 21
c-108 0 -200.333 -34.333 -277 -103c-32.667 -28.667 -52.334 -45 -59.001 -49c-12 -6.66699 -32.333 -10 -61 -10h-474v193h535c35.333 31.333 73.666 52.333 114.999 63c-22 10.667 -62.333 33.334 -121 68.001c-31.333 18.667 -67 38.334 -107 59.001
c-47.333 24.667 -90.333 37 -129 37c-23.333 0 -48.333 -6.33301 -75 -19l108 119c28.667 30 53.334 45 74.001 45h24c27.333 -4 57.333 -6 90 -6c16.667 0 41.334 2 74.001 6l-18 369c-38.667 10.667 -58 27 -58 49c0 6.66699 5.66699 19.667 17 39l16 29l70 114
c2.66699 -28.667 11.167 -49.834 25.5 -63.501s43.166 -29.834 86.499 -48.501l91 -39l-64 -150z" />
    <glyph glyph-name="lammeeminitialarabic" unicode="&#xfedf;&#xfee4;" horiz-adv-x="702" arabic-form="initial" 
d="M512 954l-68 -155l-36 16l45 -520c4 -42.667 10.667 -72.167 20 -88.5s35.333 -37.5 78 -63.5l137 -82l-100 -159l-226 137l-28 -39h-359v193h340l-55 679c-35.333 12.667 -53 27 -53 43c0 8.66699 4.66699 21.667 14 39l15 27l71 125
c4 -31.333 10.167 -51.833 18.5 -61.5s31.5 -22.5 69.5 -38.5z" />
    <glyph glyph-name="meemmeeminitialarabic" unicode="&#xfee3;&#xfee4;" horiz-adv-x="848" arabic-form="initial" 
d="M639 80l-96.001 -158.001l-90 53c-27.333 16.667 -50.666 25 -69.999 25h-408v193h318c40.667 61.333 82.5 116.833 125.5 166.5s89.833 92.167 140.5 127.5l-16 29l-6 12c-3.33301 2.66699 -5 6.33398 -5 11.001c0 5.33301 7 16 21 32l27 33c38 44 63.667 66 77 66
c26 0 76 -30.667 150 -92c23.333 -19.333 35 -38 35 -56c0 -13.333 -15.667 -41.333 -47 -84c-7.33301 -9.33301 -18.333 -20 -33 -32c-9.33301 -10 -25 -16.333 -47 -19c-116 -12 -209 -72.667 -279 -182z" />
    <glyph glyph-name="noonjeeminitialarabic" unicode="&#xfee7;&#xfea0;" horiz-adv-x="1118" arabic-form="initial" 
d="M1104 303l-109 -167.999c-48.667 14 -97 21 -145 21c-122.667 0 -218.334 -35 -287.001 -105c-24.667 -26 -39.667 -40.333 -45 -43c-9.33301 -5.33301 -27.666 -8 -54.999 -8h-488v193h541c42.667 31.333 78.334 51 107.001 59c-172 112 -293 168 -363 168
c-18 0 -43.333 -5.66699 -76 -17c113.333 101.333 197.333 218.333 252 351l51 125c19.333 47.333 39.333 71 60 71c14.667 0 33 -12.333 55 -37c76.667 -84.667 115 -160.334 115 -227.001c0 -23.333 -10.333 -73.666 -31 -150.999c-6.66699 16 -12 27.333 -16 34
c-30 53.333 -58.667 97.666 -86 132.999c-12.667 16.667 -24.334 25 -35.001 25c-12.667 0 -25.667 -17.667 -39 -53c-18 -45.333 -29.667 -73.333 -35 -84c-6.66699 -15.333 -17 -31 -31 -47c6 1.33301 11 2 15 2c18.667 0 71.667 -22.667 159 -68l152 -78
c106.667 -54.667 218 -86.667 334 -96zM465 -230.999l98 90l129 -117l-102 -92zM580 1124l98 88l129 -116l-102 -92z" />
    <glyph glyph-name="noonmeeminitialarabic" unicode="&#xfee7;&#xfee4;" horiz-adv-x="840" arabic-form="initial" 
d="M659 76l-93.999 -156l-239 143l-39 -63h-312v193h293c45.333 72 89.666 136 132.999 192c113.333 147.333 224 221 332 221c65.333 0 98 -29.333 98 -88c0 -40.667 -32 -104.667 -96 -192c-18.667 57.333 -46 86 -82 86c-30 0 -66.167 -18.167 -108.5 -54.5
s-80.5 -81.833 -114.5 -136.5zM817.001 846l-100 -90l-127 116l100 93z" />
    <glyph glyph-name="yehmeeminitialarabic" unicode="&#xfef3;&#xfee4;" horiz-adv-x="840" arabic-form="initial" 
d="M659 76l-93.999 -156l-239 143l-39 -63h-312v193h293c45.333 72 89.666 136 132.999 192c113.333 147.333 224 221 332 221c65.333 0 98 -29.333 98 -88c0 -40.667 -32 -104.667 -96 -192c-18.667 57.333 -46 86 -82 86c-30 0 -66.167 -18.167 -108.5 -54.5
s-80.5 -81.833 -114.5 -136.5zM436.001 -295l105 92l77 -71l82 71l125 -121l-100 -88l-78 72l-84 -72z" />
    <glyph glyph-name="shaddawithfathamedial" unicode="&#x64e;&#x651;" arabic-form="medial" 
d="M618 1703l-36 -43.002c-94.667 -107.333 -216.334 -162.666 -365.001 -165.999c-53.333 -1.33301 -121.666 4.33398 -204.999 17.001c94.667 23.333 192.167 50 292.5 80s204.833 67.333 313.5 112zM489 1472c52 -61.333 78 -115.999 78 -163.999
c0 -26 -9.33301 -61.333 -28 -106h-146l-24 36l-41 -36c-92 0 -146 4 -162 12c-35.333 19.333 -53 51.333 -53 96c0 45.333 15.667 91.666 47 138.999c-6.66699 -35.333 -10 -59 -10 -71c0 -57.333 33.333 -86 100 -86h84l-78 114l45 47l113 -161h98
c-9.33301 47.333 -34 90.333 -74 129z" />
    <glyph glyph-name="shaddawithdammamedial" unicode="&#x64f;&#x651;" arabic-form="medial" 
d="M478 1470c52 -60 78 -114.667 78 -164c0 -26 -9.66699 -61.333 -29 -106h-145l-25 37l-41 -37c-91.333 0 -145 4 -161 12c-36 19.333 -54 51.333 -54 96c0 45.333 16 92 48 140c-7.33301 -36 -11 -60 -11 -72c0 -57.333 33.667 -86 101 -86h84l-78 115l45 47l113 -162h98
c-10 49.333 -34.667 92.333 -74 129zM28 1460c64 31.333 158.669 81.6689 284.002 151.002c2.66699 71.333 22.167 130.5 58.5 177.5s79.166 70.5 128.499 70.5c36.667 0 55 -21 55 -63c0 -18 -5.16699 -45.333 -15.5 -82s-20.166 -64.334 -29.499 -83.001
s-59.333 -46.334 -150 -83.001l-26 -109l-19 95c-36.667 -14 -84.334 -27.667 -143.001 -41c-92.667 -22 -140.334 -33 -143.001 -33zM372.002 1585c2.66699 1.33301 15.667 7.33301 39 18c53.333 26 80 59.667 80 101c0 16 -9.66699 24 -29 24
c-20.667 0 -39.5 -13.667 -56.5 -41s-28.167 -61.333 -33.5 -102z" />
    <glyph glyph-name="shaddawithkasramedial" unicode="&#x650;&#x651;" arabic-form="medial" 
d="M618 1408l-36 -43.001c-94.667 -108 -216.334 -163.333 -365.001 -166c-53.333 -1.33301 -121.666 4.33398 -204.999 17.001c94.667 23.333 192.167 50 292.5 80s204.833 67.333 313.5 112zM408 1670c51.333 -61.333 77 -115.666 77 -162.999
c0 -26 -9.33301 -61.667 -28 -107h-146l-24 37l-41 -37c-91.333 0 -145.333 4 -162 12c-35.333 19.333 -53 51.666 -53 96.999c0 44.667 15.667 91 47 139c-6.66699 -35.333 -10 -59.333 -10 -72c0 -57.333 33.333 -86 100 -86h84l-78 115l45 47l113 -162h98
c-9.33301 48 -34 91 -74 129z" />
    <glyph glyph-name="lammeemhahinitialarabic" unicode="&#xfedf;&#xfee4;&#xfea4;" horiz-adv-x="1116" arabic-form="initial" 
d="M1040 627l-104.001 -144c-125.333 75.333 -214.666 113 -267.999 113c-37.333 0 -90.666 -15.667 -159.999 -47l-8 -4l39 -23c150 -87.333 272.667 -145.333 368 -174c57.333 -17.333 122.333 -30.333 195 -39l-96 -164l-27 7c-35.333 8 -76.333 12 -123 12
c-106.667 0 -192.667 -28.667 -258 -86l-49 -43c-23.333 -20.667 -48 -31.667 -74 -33c-10.667 0 -28.334 -0.666992 -53.001 -2h-447v193h533c27.333 20 60.666 40.333 99.999 61c-65.333 46.667 -122 82.667 -170 108c-69.333 37.333 -126.666 56 -171.999 56
c-22 0 -47.333 -5 -76 -15l134 191c20 27.333 56 54 108 80c30 14.667 66.333 30.334 109 47.001c47.333 19.333 92.333 33.666 135 42.999l-31 393c-35.333 15.333 -53 31.666 -53 48.999c0 12.667 13.667 41.334 41 86.001l61 103c4 -31.333 11.833 -52.833 23.5 -64.5
s37.5 -26.5 77.5 -44.5l104 -47l-70 -154l-32 15l16 -234c1.33301 -20 4 -46.667 8 -80c5.33301 -24 34 -51 86 -81z" />
    <glyph glyph-name="allahisolated" unicode="&#xfedf;&#xfee0;&#xfeea;" horiz-adv-x="2007" arabic-form="isolated" 
d="M1253 991v-752.998c0 -27.333 17.333 -41 52 -41h153v-4h213l-55 567c-34 9.33301 -51 25.666 -51 48.999c0 9.33301 4.66699 21.666 14 36.999l14 22l74 123c1.33301 -30 9 -51.667 23 -65c8 -8.66699 25.667 -19 53 -31l125 -55l-66 -152l-37 14l35 -393
c0 -40.667 -13.667 -102 -41 -184l-2 -6l-31 -88l-12 -31h-260v4h-272c-49.333 0 -78 19.667 -86 59l-43 -59h-179v-4h-210l-25 115l-61 -88l-443 65l70 213c4 11.333 9.33301 25.5 16 42.5s26 33.5 58 49.5l270 148l-10 45l137 119l104 -516h92v4h224v626zM571 438.002
l-227 -125c-22 -12 -35.667 -29 -41 -51l313 -47zM1305 1337c51.333 -61.333 77 -115.666 77 -162.999c0 -26 -9.33301 -61.667 -28 -107h-146l-24 37l-41 -37c-91.333 0 -145.333 4 -162 12c-35.333 19.333 -53 51.666 -53 96.999c0 44.667 15.667 91 47 139
c-6.66699 -35.333 -10 -59.333 -10 -72c0 -57.333 33.333 -86 100 -86h84l-78 115l45 47l113 -162h98c-9.33301 48 -34 91 -74 129zM1237 1528c0 -42.667 -30.667 -102.664 -92 -179.997c6.66699 81.333 10 135.666 10 162.999c0 11.333 -11 81.666 -33 210.999l74 78
c27.333 -126.667 41 -217.334 41 -272.001z" />
    <glyph glyph-name="lamalefmaddaaboveisolatedarabic" unicode="&#xfedf;&#xfe82;" horiz-adv-x="924" arabic-form="isolated" 
d="M-106 1114l53.001 66c43.333 53.333 82 80 116 80c16.667 0 40 -6.83301 70 -20.5l89 -40c29.333 -13 49.666 -19.5 60.999 -19.5c12 0 55 19.667 129 59l-64 -72c-39.333 -44.667 -76 -67 -110 -67c-16.667 0 -34 4 -52 12l-112 51c-24.667 11.333 -41 17 -49 17
c-7.33301 0 -51 -22 -131 -66zM811.001 797l-9.99902 -19.001l-84 -129c-23.333 -35.333 -57 -77.666 -101 -126.999c-2.66699 -2.66699 -7.33398 -8 -14.001 -16l94 -144c11.333 -16 25.166 -37.667 41.499 -65s24.5 -53.333 24.5 -78c0 -23.333 -7.66699 -55.333 -23 -96
l-45 -123h-561l6 27l33 206c49.333 41.333 99.5 86.5 150.5 135.5s92.167 93.5 123.5 133.5c-32.667 40.667 -69.167 82.167 -109.5 124.5s-80.166 78.5 -119.499 108.5c-12 -28.667 -27 -43 -45 -43c-13.333 0 -25.666 5.66699 -36.999 17c-57.333 58.667 -86 109 -86 151
c0 26 14.333 65.667 43 119c20.667 36.667 39 55 55 55c18 0 38.667 -11.667 62 -35c118.667 -118.667 219 -242 301 -370l14 -23c71.333 91.333 122.666 186.333 153.999 285c-23.333 19.333 -35 37.666 -35 54.999c0 12.667 4.16699 24.334 12.5 35.001s21.833 25 40.5 43
l88 86c-2.66699 -19.333 -4 -31 -4 -35c0 -24.667 17 -50.667 51 -78l115 -90l-102 -137zM518.002 417.999c-66.667 -74 -141 -144.333 -223 -211l-4 -14h362l2 4c1.33301 4 2 8.66699 2 14c0 9.33301 -3.33301 19 -10 29z" />
    <glyph glyph-name="lamalefmaddaabovefinalarabic" unicode="&#xfee0;&#xfe82;" horiz-adv-x="1024" arabic-form="final" 
d="M-63 1151l53.002 66c43.333 52.667 80 79 110 79c15.333 0 70.666 -21 165.999 -63c27.333 -12.667 48.666 -19 63.999 -19c12 0 39.333 12.333 82 37l43 25l-64 -72c-40.667 -46 -78 -69 -112 -69c-18 0 -42 6.83301 -72 20.5l-90 42.5c-22 9.33301 -40 14 -54 14
c-9.33301 0 -36.333 -12 -81 -36zM649.002 940l154.002 164v-836c0 -34 5.16699 -55 15.5 -63s36.5 -12 78.5 -12h133v-193h-211c5.33301 0 -8.33398 0.666992 -41.001 2c-48.667 2.66699 -83.334 20.334 -104.001 53.001c-16.667 26 -25 76.667 -25 152v47l-55 -78l-29 -43
c-34 -52 -67 -87.167 -99 -105.5s-68.667 -29.5 -110 -33.5c-47.333 -5.33301 -110 -8 -188 -8c-75.333 0 -146.333 2.66699 -213 8c105.333 28.667 193.333 58.667 264 90c50.667 22 98.334 45.333 143.001 70c33.333 17.333 68.333 39 105 65l-8 27
c-42.667 139.333 -86.334 247 -131.001 323c-30 52 -74.333 113.667 -133 185c-11.333 -27.333 -26.333 -41 -45 -41c-14 0 -26.333 8.66699 -37 26c-42.667 67.333 -64 115.333 -64 144c0 17.333 16.333 50.666 49 99.999c26 38 46 57 60 57
c56 0 123.167 -77.5 201.5 -232.5s139.5 -330.5 183.5 -526.5l39 36l39 39c17.333 14 26 31.333 26 52v26l2 25v481z" />
    <glyph glyph-name="lamalefhamzaaboveisolatedarabic" unicode="&#xfedf;&#xfe84;" horiz-adv-x="924" arabic-form="isolated" 
d="M225 1163l-36.999 -96.001c-36.667 -2.66699 -72.667 -11.667 -108 -27c-46.667 -18.667 -89.667 -50.667 -129 -96c9.33301 50.667 29 93 59 127c-50.667 12.667 -76 42.667 -76 90c0 38.667 18.667 78.334 56 119.001c42 49.333 91 74 147 74c34 0 51 -11.667 51 -35
c0 -20.667 -8.66699 -44 -26 -70c-12.667 5.33301 -27.667 8 -45 8c-50.667 0 -92.334 -19 -125.001 -57c39.333 -36.667 89 -55 149 -55c23.333 0 51.333 6 84 18zM811.001 796.999l-9.99902 -19.001l-84 -129c-23.333 -35.333 -57 -77.666 -101 -126.999
c-2.66699 -2.66699 -7.33398 -8 -14.001 -16l94 -144c11.333 -16 25.166 -37.667 41.499 -65s24.5 -53.333 24.5 -78c0 -23.333 -7.66699 -55.333 -23 -96l-45 -123h-561l6 27l33 206c49.333 41.333 99.5 86.5 150.5 135.5s92.167 93.5 123.5 133.5
c-32.667 40.667 -69.167 82.167 -109.5 124.5s-80.166 78.5 -119.499 108.5c-12 -28.667 -27 -43 -45 -43c-13.333 0 -25.666 5.66699 -36.999 17c-57.333 58.667 -86 109 -86 151c0 26 14.333 65.667 43 119c20.667 36.667 39 55 55 55c18 0 38.667 -11.667 62 -35
c118.667 -118.667 219 -242 301 -370l14 -23c71.333 91.333 122.666 186.333 153.999 285c-23.333 19.333 -35 37.666 -35 54.999c0 12.667 4.16699 24.334 12.5 35.001s21.833 25 40.5 43l88 86c-2.66699 -19.333 -4 -31 -4 -35c0 -24.667 17 -50.667 51 -78l115 -90
l-102 -137zM518.002 417.998c-66.667 -74 -141 -144.333 -223 -211l-4 -14h362l2 4c1.33301 4 2 8.66699 2 14c0 9.33301 -3.33301 19 -10 29z" />
    <glyph glyph-name="lamalefhamzaabovefinalarabic" unicode="&#xfee0;&#xfe84;" horiz-adv-x="1024" arabic-form="final" 
d="M227 1174l-37.002 -97c-99.333 -13.333 -177.666 -54.333 -234.999 -123c6.66699 50.667 26.334 93 59.001 127c-50 12.667 -75 42.667 -75 90c0 40 21 84.667 63 134c34 39.333 79.667 59 137 59c34 0 51 -11.667 51 -35c0 -20.667 -8.66699 -43.667 -26 -69
c-12.667 5.33301 -27.667 8 -45 8c-52 0 -93 -20 -123 -60c39.333 -35.333 89 -53 149 -53c24.667 0 52 6.33301 82 19zM648.998 940l154.002 164v-836c0 -34 5.16699 -55 15.5 -63s36.5 -12 78.5 -12h133v-193h-211c5.33301 0 -8.33398 0.666992 -41.001 2
c-48.667 2.66699 -83.334 20.334 -104.001 53.001c-16.667 26 -25 76.667 -25 152v47l-55 -78l-29 -43c-34 -52 -67 -87.167 -99 -105.5s-68.667 -29.5 -110 -33.5c-47.333 -5.33301 -110 -8 -188 -8c-75.333 0 -146.333 2.66699 -213 8
c105.333 28.667 193.333 58.667 264 90c50.667 22 98.334 45.333 143.001 70c33.333 17.333 68.333 39 105 65l-8 27c-42.667 139.333 -86.334 247 -131.001 323c-30 52 -74.333 113.667 -133 185c-11.333 -27.333 -26.333 -41 -45 -41c-14 0 -26.333 8.66699 -37 26
c-42.667 67.333 -64 115.333 -64 144c0 17.333 16.333 50.666 49 99.999c26 38 46 57 60 57c56 0 123.167 -77.5 201.5 -232.5s139.5 -330.5 183.5 -526.5l39 36l39 39c17.333 14 26 31.333 26 52v26l2 25v481z" />
    <glyph glyph-name="lamalefhamzabelowisolatedarabic" unicode="&#xfedf;&#xfe88;" horiz-adv-x="924" arabic-form="isolated" 
d="M266 -324l-37.001 -94c-99.333 -13.333 -178.333 -54.333 -237 -123c6.66699 50.667 26.334 93 59.001 127c-50.667 12.667 -76 42.667 -76 90c0 40 21.333 84.667 64 134c34 39.333 80.333 59 139 59c34 0 51 -11.667 51 -35c0 -18 -8.66699 -41.333 -26 -70
c-16.667 6 -31.667 9 -45 9c-53.333 0 -95 -20 -125 -60c39.333 -35.333 89 -53 149 -53c22 0 50 5.33301 84 16zM810.999 797l-9.99902 -19.001l-84 -129c-23.333 -35.333 -57 -77.666 -101 -126.999c-2.66699 -2.66699 -7.33398 -8 -14.001 -16l94 -144
c11.333 -16 25.166 -37.667 41.499 -65s24.5 -53.333 24.5 -78c0 -23.333 -7.66699 -55.333 -23 -96l-45 -123h-561l6 27l33 206c49.333 41.333 99.5 86.5 150.5 135.5s92.167 93.5 123.5 133.5c-32.667 40.667 -69.167 82.167 -109.5 124.5s-80.166 78.5 -119.499 108.5
c-12 -28.667 -27 -43 -45 -43c-13.333 0 -25.666 5.66699 -36.999 17c-57.333 58.667 -86 109 -86 151c0 26 14.333 65.667 43 119c20.667 36.667 39 55 55 55c18 0 38.667 -11.667 62 -35c118.667 -118.667 219 -242 301 -370l14 -23
c71.333 91.333 122.666 186.333 153.999 285c-23.333 19.333 -35 37.666 -35 54.999c0 12.667 4.16699 24.334 12.5 35.001s21.833 25 40.5 43l88 86c-2.66699 -19.333 -4 -31 -4 -35c0 -24.667 17 -50.667 51 -78l115 -90l-102 -137zM518 417.999
c-66.667 -74 -141 -144.333 -223 -211l-4 -14h362l2 4c1.33301 4 2 8.66699 2 14c0 9.33301 -3.33301 19 -10 29z" />
    <glyph glyph-name="lamalefhamzabelowfinalarabic" unicode="&#xfee0;&#xfe88;" horiz-adv-x="1024" arabic-form="final" 
d="M178 -352l-37 -96.999c-36.667 -2.66699 -72.667 -11.334 -108 -26.001c-46.667 -19.333 -89.667 -51.333 -129 -96c9.33301 50 29 92.333 59 127c-50.667 12 -76 42 -76 90c0 38 18.667 77.333 56 118c42 49.333 91 74 147 74c34 0 51 -11.667 51 -35
c0 -18.667 -8.66699 -41.667 -26 -69c-14 5.33301 -29.667 8 -47 8c-52 0 -93 -19 -123 -57c39.333 -37.333 89 -56 149 -56c23.333 0 51.333 6.33301 84 19zM649 940.001l154.002 164v-836c0 -34 5.16699 -55 15.5 -63s36.5 -12 78.5 -12h133v-193h-211
c5.33301 0 -8.33398 0.666992 -41.001 2c-48.667 2.66699 -83.334 20.334 -104.001 53.001c-16.667 26 -25 76.667 -25 152v47l-55 -78l-29 -43c-34 -52 -67 -87.167 -99 -105.5s-68.667 -29.5 -110 -33.5c-47.333 -5.33301 -110 -8 -188 -8
c-75.333 0 -146.333 2.66699 -213 8c105.333 28.667 193.333 58.667 264 90c50.667 22 98.334 45.333 143.001 70c33.333 17.333 68.333 39 105 65l-8 27c-42.667 139.333 -86.334 247 -131.001 323c-30 52 -74.333 113.667 -133 185c-11.333 -27.333 -26.333 -41 -45 -41
c-14 0 -26.333 8.66699 -37 26c-42.667 67.333 -64 115.333 -64 144c0 17.333 16.333 50.666 49 99.999c26 38 46 57 60 57c56 0 123.167 -77.5 201.5 -232.5s139.5 -330.5 183.5 -526.5l39 36l39 39c17.333 14 26 31.333 26 52v26l2 25v481z" />
    <glyph glyph-name="lamalefisolatedarabic" unicode="&#xfedf;&#xfe8e;" horiz-adv-x="932" arabic-form="isolated" 
d="M811 797l-9.99902 -19.001l-84 -129c-23.333 -35.333 -57 -77.666 -101 -126.999c-2.66699 -2.66699 -7.33398 -8 -14.001 -16l94 -144c11.333 -16 25.166 -37.667 41.499 -65s24.5 -53.333 24.5 -78c0 -23.333 -7.66699 -55.333 -23 -96l-45 -123h-561l6 27l33 206
c49.333 41.333 99.5 86.5 150.5 135.5s92.167 93.5 123.5 133.5c-32.667 40.667 -69.167 82.167 -109.5 124.5s-80.166 78.5 -119.499 108.5c-12 -28.667 -27 -43 -45 -43c-13.333 0 -25.666 5.66699 -36.999 17c-57.333 58.667 -86 109 -86 151c0 26 14.333 65.667 43 119
c20.667 36.667 39 55 55 55c18 0 38.667 -11.667 62 -35c118.667 -118.667 219 -242 301 -370l14 -23c71.333 91.333 122.666 186.333 153.999 285c-23.333 19.333 -35 37.666 -35 54.999c0 12.667 4.16699 24.334 12.5 35.001s21.833 25 40.5 43l88 86
c-2.66699 -19.333 -4 -31 -4 -35c0 -24.667 17 -50.667 51 -78l115 -90l-102 -137zM518.001 417.999c-66.667 -74 -141 -144.333 -223 -211l-4 -14h362l2 4c1.33301 4 2 8.66699 2 14c0 9.33301 -3.33301 19 -10 29z" />
    <glyph glyph-name="lamaleffinalarabic" unicode="&#xfee0;&#xfe8e;" horiz-adv-x="1024" arabic-form="final" 
d="M649 940l154.002 164v-836c0 -34 5.16699 -55 15.5 -63s36.5 -12 78.5 -12h133v-193h-211c5.33301 0 -8.33398 0.666992 -41.001 2c-48.667 2.66699 -83.334 20.334 -104.001 53.001c-16.667 26 -25 76.667 -25 152v47l-55 -78l-29 -43c-34 -52 -67 -87.167 -99 -105.5
s-68.667 -29.5 -110 -33.5c-47.333 -5.33301 -110 -8 -188 -8c-75.333 0 -146.333 2.66699 -213 8c105.333 28.667 193.333 58.667 264 90c50.667 22 98.334 45.333 143.001 70c33.333 17.333 68.333 39 105 65l-8 27c-42.667 139.333 -86.334 247 -131.001 323
c-30 52 -74.333 113.667 -133 185c-11.333 -27.333 -26.333 -41 -45 -41c-14 0 -26.333 8.66699 -37 26c-42.667 67.333 -64 115.333 -64 144c0 17.333 16.333 50.666 49 99.999c26 38 46 57 60 57c56 0 123.167 -77.5 201.5 -232.5s139.5 -330.5 183.5 -526.5l39 36l39 39
c17.333 14 26 31.333 26 52v26l2 25v481z" />
    <glyph glyph-name="uni05D505BC" unicode="&#x5d5;&#x5bc;" horiz-adv-x="514" 
d="M425 0h-167v807h167v-807zM166 417c0 -17.333 -6.16797 -32.168 -18.501 -44.501s-27.166 -18.5 -44.499 -18.5c-19.333 0 -34.833 5.83301 -46.5 17.5s-17.5 26.834 -17.5 45.501c0 16.667 5.83301 31.5 17.5 44.5s27.167 19.5 46.5 19.5c16 0 30.5 -6.16699 43.5 -18.5
s19.5 -27.5 19.5 -45.5z" />
    <glyph glyph-name="uni05D905B4" unicode="&#x5d9;&#x5b4;" horiz-adv-x="383" 
d="M275 377h-166v430h166v-430zM252 222c0 -18 -6.16797 -33.168 -18.501 -45.501s-27.166 -18.5 -44.499 -18.5c-19.333 0 -34.833 5.83301 -46.5 17.5s-17.5 27.167 -17.5 46.5c0 16 5.83301 30.5 17.5 43.5s27.167 19.5 46.5 19.5c16 0 30.5 -6.16699 43.5 -18.5
s19.5 -27.166 19.5 -44.499z" />
    <glyph glyph-name="hamzaarabic" unicode="&#x621;" horiz-adv-x="641" arabic-form="isolated" 
d="M590 238l-78 -196.999c-61.333 -6.66699 -122.666 -22.334 -183.999 -47.001c-104 -42.667 -203.667 -122.667 -299 -240v25c0 154 45.667 257.667 137 311c-61.333 44 -92 94.667 -92 152c0 84.667 38.167 170.667 114.5 258s169.166 131 278.499 131
c65.333 0 98 -15 98 -45c0 -11.333 -8 -37.333 -24 -78l-33 -82c-34 9.33301 -61.333 14 -82 14c-98 0 -175.667 -41.667 -233 -125c68 -66.667 150.333 -100 247 -100c42.667 0 92.667 7.66699 150 23z" />
    <glyph glyph-name="alefarabic" unicode="&#x627;" horiz-adv-x="389" arabic-form="isolated" 
d="M129 -68c8 105.333 11.999 194.334 11.999 267.001c0 96.667 -4.66699 227.667 -14 393c-8 135.333 -17 237 -27 305l164 203l39 -242l-37 -43l2 -24c12.667 -148 19 -270.333 19 -367s-10.333 -182 -31 -256c-15.333 -54.667 -57.666 -133.334 -126.999 -236.001z" />
    <glyph glyph-name="beharabic" unicode="&#x628;" horiz-adv-x="1200" arabic-form="isolated" 
d="M618 -160l130 -116l-103 -95l-125 121zM1053 0l-809 2c-22 0 -47.333 8.33301 -76 25c-64 36.667 -96 101.334 -96 194.001c0 104 34 205.667 102 305c-13.333 -44.667 -20 -93 -20 -145c0 -84.667 25.667 -140.667 77 -168c26 -13.333 79.333 -20 160 -20h627
c-1.33301 77.333 -26.666 149.666 -75.999 216.999l109 145c62.667 -78 94 -156.667 94 -236c0 -43.333 -15 -107.333 -45 -192c-8.66699 -24.667 -24.334 -67 -47.001 -127z" />
    <glyph glyph-name="tehmarbutaarabic" unicode="&#x629;" horiz-adv-x="668" arabic-form="isolated" 
d="M532 0l-313.001 -0.000976562c-9.33301 0 -19.666 0.666992 -30.999 2h-18c-22 2.66699 -39 7.33398 -51 14.001c-37.333 20.667 -56 66 -56 136c0 64 32.333 186 97 366c26 74 58.667 111 98 111c49.333 0 121.333 -39 216 -117s142 -151 142 -219
c0 -14 -12 -61.667 -36 -143l-27 -89zM476.999 865.999l-102 -90l-78 72l-84 -72l-123 121l100 88l76 -72l84 72zM488.999 192.999c-4 61.333 -17.333 109.667 -40 145c-36 54.667 -82.667 90.667 -140 108c-8 3.33301 -15.333 5 -22 5c-23.333 0 -43.333 -24 -60 -72
c-18.667 -54.667 -28 -95.667 -28 -123c0 -42 29.333 -63 88 -63h202z" />
    <glyph glyph-name="teharabic" unicode="&#x62a;" horiz-adv-x="1200" arabic-form="isolated" 
d="M1053 0l-809 2c-22 0 -47.333 8.33301 -76 25c-64 36.667 -96 101.334 -96 194.001c0 104 34 205.667 102 305c-13.333 -44.667 -20 -93 -20 -145c0 -84.667 25.667 -140.667 77 -168c26 -13.333 79.333 -20 160 -20h627
c-1.33301 77.333 -26.666 149.666 -75.999 216.999l109 145c62.667 -78 94 -156.667 94 -236c0 -43.333 -15 -107.333 -45 -192c-8.66699 -24.667 -24.334 -67 -47.001 -127zM786 590l-102 -90l-78 71l-82 -71l-125 118l101 89l75 -70l87 70z" />
    <glyph glyph-name="theharabic" unicode="&#x62b;" horiz-adv-x="1200" arabic-form="isolated" 
d="M1053 0l-809 2c-22 0 -47.333 8.33301 -76 25c-64 36.667 -96 101.334 -96 194.001c0 104 34 205.667 102 305c-13.333 -44.667 -20 -93 -20 -145c0 -84.667 25.667 -140.667 77 -168c26 -13.333 79.333 -20 160 -20h627
c-1.33301 77.333 -26.666 149.666 -75.999 216.999l109 145c62.667 -78 94 -156.667 94 -236c0 -43.333 -15 -107.333 -45 -192c-8.66699 -24.667 -24.334 -67 -47.001 -127zM786 590l-102 -90l-78 71l-82 -71l-125 118l101 89l75 -70l87 70zM676 823l-101 -88l-126 115
l100 94z" />
    <glyph glyph-name="jeemarabic" unicode="&#x62c;" horiz-adv-x="1053" arabic-form="isolated" 
d="M659 -14l-98 -90l-129 116l103 92zM1038 631l-97.998 -180.001c-82 -1.33301 -154.333 -9 -217 -23c-150 -31.333 -275.167 -94.833 -375.5 -190.5s-150.5 -198.167 -150.5 -307.5c0 -110.667 56.667 -198.667 170 -264c83.333 -48 189.666 -72 318.999 -72
c112 0 218.667 13 320 39c-66 -52.667 -113.333 -95.667 -142 -129c-17.333 -20 -30.833 -34.833 -40.5 -44.5s-19.167 -17.167 -28.5 -22.5c-34.667 -19.333 -105.667 -29 -213 -29c-132.667 0 -238.667 23.333 -318 70c-58.667 35.333 -105.334 85.833 -140.001 151.5
s-52 137.834 -52 216.501c0 226.667 111.333 429 334 607c-53.333 12 -98 18 -134 18c-64 0 -124 -13.667 -180 -41l51 113c31.333 68 80 102 146 102c20 0 47.333 -1.33301 82 -4l102 -8c120 -10 234 -15 342 -15c84.667 0 159 4.33301 223 13z" />
    <glyph glyph-name="haharabic" unicode="&#x62d;" horiz-adv-x="1053" arabic-form="isolated" 
d="M1038 631l-97.998 -180.001c-82 -1.33301 -154.333 -9 -217 -23c-150 -31.333 -275.167 -94.833 -375.5 -190.5s-150.5 -198.167 -150.5 -307.5c0 -110.667 56.667 -198.667 170 -264c83.333 -48 189.666 -72 318.999 -72c112 0 218.667 13 320 39
c-66 -52.667 -113.333 -95.667 -142 -129c-17.333 -20 -30.833 -34.833 -40.5 -44.5s-19.167 -17.167 -28.5 -22.5c-34.667 -19.333 -105.667 -29 -213 -29c-132.667 0 -238.667 23.333 -318 70c-58.667 35.333 -105.334 85.833 -140.001 151.5s-52 137.834 -52 216.501
c0 226.667 111.333 429 334 607c-53.333 12 -98 18 -134 18c-64 0 -124 -13.667 -180 -41l51 113c31.333 68 80 102 146 102c20 0 47.333 -1.33301 82 -4l102 -8c120 -10 234 -15 342 -15c84.667 0 159 4.33301 223 13z" />
    <glyph glyph-name="khaharabic" unicode="&#x62e;" horiz-adv-x="1053" arabic-form="isolated" 
d="M659 883l-98 -90l-129 116l103 92zM1038 631l-97.998 -180.001c-82 -1.33301 -154.333 -9 -217 -23c-150 -31.333 -275.167 -94.833 -375.5 -190.5s-150.5 -198.167 -150.5 -307.5c0 -110.667 56.667 -198.667 170 -264c83.333 -48 189.666 -72 318.999 -72
c112 0 218.667 13 320 39c-66 -52.667 -113.333 -95.667 -142 -129c-17.333 -20 -30.833 -34.833 -40.5 -44.5s-19.167 -17.167 -28.5 -22.5c-34.667 -19.333 -105.667 -29 -213 -29c-132.667 0 -238.667 23.333 -318 70c-58.667 35.333 -105.334 85.833 -140.001 151.5
s-52 137.834 -52 216.501c0 226.667 111.333 429 334 607c-53.333 12 -98 18 -134 18c-64 0 -124 -13.667 -180 -41l51 113c31.333 68 80 102 146 102c20 0 47.333 -1.33301 82 -4l102 -8c120 -10 234 -15 342 -15c84.667 0 159 4.33301 223 13z" />
    <glyph glyph-name="dalarabic" unicode="&#x62f;" horiz-adv-x="602" arabic-form="isolated" 
d="M293 604c159.333 -69.333 239 -169.667 239 -301c0 -52 -12 -109.333 -36 -172l-52 -131h-409l43 193h334c-4 66.667 -20 119.167 -48 157.5s-76.333 72.5 -145 102.5z" />
    <glyph glyph-name="thalarabic" unicode="&#x630;" horiz-adv-x="602" arabic-form="isolated" 
d="M391 858l-98 -90l-129 117l102 92zM293 604c159.333 -69.333 239 -169.667 239 -301c0 -52 -12 -109.333 -36 -172l-52 -131h-409l43 193h334c-4 66.667 -20 119.167 -48 157.5s-76.333 72.5 -145 102.5z" />
    <glyph glyph-name="reharabic" unicode="&#x631;" horiz-adv-x="498" arabic-form="isolated" 
d="M289 412c76 -100 113.998 -200.333 113.998 -301c0 -97.333 -31.333 -202.666 -94 -315.999c-72 -130.667 -146.333 -196 -223 -196c-27.333 0 -61.5 17.667 -102.5 53s-78.5 77.666 -112.5 126.999l-14 20c46 -20 92.333 -30 139 -30c60 0 119 25.5 177 76.5
s104 118.167 138 201.5c-13.333 44 -31.666 86 -54.999 126s-48.666 77.333 -75.999 112z" />
    <glyph glyph-name="zainarabic" unicode="&#x632;" horiz-adv-x="498" arabic-form="isolated" 
d="M324 645l-99 -90l-129 117l101 94zM289 412c76 -100 113.998 -200.333 113.998 -301c0 -97.333 -31.333 -202.666 -94 -315.999c-72 -130.667 -146.333 -196 -223 -196c-27.333 0 -61.5 17.667 -102.5 53s-78.5 77.666 -112.5 126.999l-14 20c46 -20 92.333 -30 139 -30
c60 0 119 25.5 177 76.5s104 118.167 138 201.5c-13.333 44 -31.666 86 -54.999 126s-48.666 77.333 -75.999 112z" />
    <glyph glyph-name="seenarabic" unicode="&#x633;" horiz-adv-x="1616" arabic-form="isolated" 
d="M1130 74l-57.001 -73.999h-287v-4l-71 -227l-13 -25c-132 -90 -256.667 -135 -374 -135c-82 0 -150 28.333 -204 85s-81 127.334 -81 212.001c0 69.333 20.333 162.666 61 279.999c19.333 54.667 40 102.667 62 144c-1.33301 -8.66699 -4 -19.667 -8 -33
c-20.667 -96.667 -31 -173.667 -31 -231c0 -179.333 71.667 -269 215 -269c56 0 116.5 13.667 181.5 41s118.5 61.666 160.5 102.999c-1.33301 73.333 -13 142 -35 206c-16 49.333 -46 111 -90 185l109 127c32.667 -46.667 57.667 -94.667 75 -144
c8.66699 -21.333 21 -62 37 -122h295l-102 229l98 127l166 -356h182c-1.33301 76 -26.666 148.333 -75.999 217l107 145c62.667 -75.333 94 -154 94 -236c0 -50 -14.333 -114 -43 -192c-8 -24.667 -24.333 -67 -49 -127h-291z" />
    <glyph glyph-name="sheenarabic" unicode="&#x634;" horiz-adv-x="1616" arabic-form="isolated" 
d="M1221 780l-103 -90l-78 72l-84 -72l-122 119l100 88l76 -70l84 70zM1110 1014l-100 -88l-127 114l100 95zM1130 74l-57.001 -73.999h-287v-4l-71 -227l-13 -25c-132 -90 -256.667 -135 -374 -135c-82 0 -150 28.333 -204 85s-81 127.334 -81 212.001
c0 69.333 20.333 162.666 61 279.999c19.333 54.667 40 102.667 62 144c-1.33301 -8.66699 -4 -19.667 -8 -33c-20.667 -96.667 -31 -173.667 -31 -231c0 -179.333 71.667 -269 215 -269c56 0 116.5 13.667 181.5 41s118.5 61.666 160.5 102.999
c-1.33301 73.333 -13 142 -35 206c-16 49.333 -46 111 -90 185l109 127c32.667 -46.667 57.667 -94.667 75 -144c8.66699 -21.333 21 -62 37 -122h295l-102 229l98 127l166 -356h182c-1.33301 76 -26.666 148.333 -75.999 217l107 145c62.667 -75.333 94 -154 94 -236
c0 -50 -14.333 -114 -43 -192c-8 -24.667 -24.333 -67 -49 -127h-291z" />
    <glyph glyph-name="sadarabic" unicode="&#x635;" horiz-adv-x="1798" arabic-form="isolated" 
d="M702 -256c-132 -90 -256.669 -134.999 -374.002 -134.999c-82 0 -150 28.667 -204 86s-81 128.333 -81 213c0 70.667 20.333 163.334 61 278.001c20.667 58.667 41.334 106.667 62.001 144l-8 -33c-20.667 -82 -31 -160 -31 -234c0 -177.333 71.667 -266 215 -266
c54.667 0 114.334 13.667 179.001 41s119 61.666 163 102.999v8c1.33301 9.33301 2 20.333 2 33c0 25.333 -4 56 -12 92c-18 80.667 -56.333 166.667 -115 258l109 127c53.333 -78 91.333 -166.667 114 -266l420 268c24.667 16 57.334 35.667 98.001 59
c76.667 46.667 135 70 175 70c57.333 0 120.666 -35 189.999 -105c61.333 -61.333 92 -132.333 92 -213c0 -42 -23.667 -121 -71 -237l-15 -35h-885v-8c-17.333 -88.667 -45.333 -171.334 -84 -248.001zM1649 193.001c-18 68 -51.168 126.5 -99.501 175.5
s-97.833 73.5 -148.5 73.5c-11.333 0 -21.666 -1.33301 -30.999 -4c-22 -6.66699 -66.333 -29.667 -133 -69l-92 -56l-58 -37l-135 -83h697z" />
    <glyph glyph-name="dadarabic" unicode="&#x636;" horiz-adv-x="1798" arabic-form="isolated" 
d="M1237 717l-100 -90l-127 116l100 93zM702 -256c-132 -90 -256.669 -134.999 -374.002 -134.999c-82 0 -150 28.667 -204 86s-81 128.333 -81 213c0 70.667 20.333 163.334 61 278.001c20.667 58.667 41.334 106.667 62.001 144l-8 -33c-20.667 -82 -31 -160 -31 -234
c0 -177.333 71.667 -266 215 -266c54.667 0 114.334 13.667 179.001 41s119 61.666 163 102.999v8c1.33301 9.33301 2 20.333 2 33c0 25.333 -4 56 -12 92c-18 80.667 -56.333 166.667 -115 258l109 127c53.333 -78 91.333 -166.667 114 -266l420 268
c24.667 16 57.334 35.667 98.001 59c76.667 46.667 135 70 175 70c57.333 0 120.666 -35 189.999 -105c61.333 -61.333 92 -132.333 92 -213c0 -42 -23.667 -121 -71 -237l-15 -35h-885v-8c-17.333 -88.667 -45.333 -171.334 -84 -248.001zM1649 193.001
c-18 68 -51.168 126.5 -99.501 175.5s-97.833 73.5 -148.5 73.5c-11.333 0 -21.666 -1.33301 -30.999 -4c-22 -6.66699 -66.333 -29.667 -133 -69l-92 -56l-58 -37l-135 -83h697z" />
    <glyph glyph-name="taharabic" unicode="&#x637;" horiz-adv-x="1366" arabic-form="isolated" 
d="M139 0l-125.001 193h320l102 63l-55 623c-32.667 10.667 -49 26.334 -49 47.001c0 13.333 7.33301 31.666 22 54.999l82 127c2.66699 -31.333 9.16699 -52.166 19.5 -62.499s38.833 -25.833 85.5 -46.5l94 -41l-66 -151l-39 14l21 -270c1.33301 -18 2 -39.333 2 -64
c0 -62.667 -11 -120.667 -33 -174l109 68l69 45l107 68c100.667 64 173 96 217 96c30 0 64 -11 102 -33c54.667 -31.333 101.5 -74.333 140.5 -129s58.5 -104.334 58.5 -149.001c0 -24.667 -9 -59.667 -27 -105c-9.33301 -19.333 -23.666 -52 -42.999 -98l-16 -43l-14 -33
h-1084zM1198 193c-16 66.667 -48.334 124.833 -97.001 174.5s-97.667 74.5 -147 74.5c-9.33301 0 -20.666 -1.33301 -33.999 -4c-49.333 -16 -122 -55.667 -218 -119l-65 -43l-133 -83h694z" />
    <glyph glyph-name="zaharabic" unicode="&#x638;" horiz-adv-x="1366" arabic-form="isolated" 
d="M985 801l-100 -88l-127 116l100 93zM139 0l-125.001 193h320l102 63l-55 623c-32.667 10.667 -49 26.334 -49 47.001c0 13.333 7.33301 31.666 22 54.999l82 127c2.66699 -31.333 9.16699 -52.166 19.5 -62.499s38.833 -25.833 85.5 -46.5l94 -41l-66 -151l-39 14
l21 -270c1.33301 -18 2 -39.333 2 -64c0 -62.667 -11 -120.667 -33 -174l109 68l69 45l107 68c100.667 64 173 96 217 96c30 0 64 -11 102 -33c54.667 -31.333 101.5 -74.333 140.5 -129s58.5 -104.334 58.5 -149.001c0 -24.667 -9 -59.667 -27 -105
c-9.33301 -19.333 -23.666 -52 -42.999 -98l-16 -43l-14 -33h-1084zM1198 193c-16 66.667 -48.334 124.833 -97.001 174.5s-97.667 74.5 -147 74.5c-9.33301 0 -20.666 -1.33301 -33.999 -4c-49.333 -16 -122 -55.667 -218 -119l-65 -43l-133 -83h694z" />
    <glyph glyph-name="ainarabic" unicode="&#x639;" horiz-adv-x="866" arabic-form="isolated" 
d="M817 301l-63 -189.999h-181c-54 0 -97.667 -2.33301 -131 -7c-72 -9.33301 -133 -36.833 -183 -82.5s-75 -97.834 -75 -156.501c0 -79.333 48.5 -148 145.5 -206s211.833 -87 344.5 -87c49.333 0 101 3.33301 155 10c46.667 5.33301 107.667 17 183 35
c-19.333 -15.333 -38.666 -31.666 -57.999 -48.999c-27.333 -26 -53.5 -53 -78.5 -81s-46.5 -46 -64.5 -54c-56 -27.333 -138 -41 -246 -41c-156.667 0 -278 35.167 -364 105.5s-129 168.166 -129 293.499c0 120 38.667 234 116 342c16.667 23.333 42.667 53.333 78 90
c-83.333 72.667 -125 140.334 -125 203.001c0 44 18.667 96.667 56 158c74.667 124 157 186 247 186c109.333 0 193.333 -74.333 252 -223c-21.333 13.333 -37.666 22.666 -48.999 27.999c-46 27.333 -95.667 41 -149 41c-106.667 0 -192.667 -58.667 -258 -176
c21.333 -27.333 45.666 -52.5 72.999 -75.5s56.666 -44.167 87.999 -63.5h416z" />
    <glyph glyph-name="ghainarabic" unicode="&#x63a;" horiz-adv-x="866" arabic-form="isolated" 
d="M502 981l-101 -90l-127 117l101 92zM817 301l-63 -189.999h-181c-54 0 -97.667 -2.33301 -131 -7c-72 -9.33301 -133 -36.833 -183 -82.5s-75 -97.834 -75 -156.501c0 -79.333 48.5 -148 145.5 -206s211.833 -87 344.5 -87c49.333 0 101 3.33301 155 10
c46.667 5.33301 107.667 17 183 35c-19.333 -15.333 -38.666 -31.666 -57.999 -48.999c-27.333 -26 -53.5 -53 -78.5 -81s-46.5 -46 -64.5 -54c-56 -27.333 -138 -41 -246 -41c-156.667 0 -278 35.167 -364 105.5s-129 168.166 -129 293.499c0 120 38.667 234 116 342
c16.667 23.333 42.667 53.333 78 90c-83.333 72.667 -125 140.334 -125 203.001c0 44 18.667 96.667 56 158c74.667 124 157 186 247 186c109.333 0 193.333 -74.333 252 -223c-21.333 13.333 -37.666 22.666 -48.999 27.999c-46 27.333 -95.667 41 -149 41
c-106.667 0 -192.667 -58.667 -258 -176c21.333 -27.333 45.666 -52.5 72.999 -75.5s56.666 -44.167 87.999 -63.5h416z" />
    <glyph glyph-name="feharabic" unicode="&#x641;" horiz-adv-x="1303" arabic-form="isolated" 
d="M1159 0l-776.002 0.000976562c-84.667 0 -140.667 2.66699 -168 8c-42 8 -76.333 31.167 -103 69.5s-40 83.5 -40 135.5c0 110.667 34.667 214.334 104 311.001c-13.333 -53.333 -20 -98.333 -20 -135c0 -88.667 25.667 -147.334 77 -176.001
c10 -5.33301 27.333 -10.666 52 -15.999c38 -2.66699 80.333 -4 127 -4h723c4 39.333 6 67 6 83c0 3.33301 -1.33301 15.666 -4 36.999l-54 -67h-118c-49.333 0 -82.333 1.33301 -99 4c-27.333 4 -50.166 19.333 -68.499 46s-27.5 57.667 -27.5 93
c0 61.333 19.667 125.666 59 192.999c62 102 125.667 153 191 153c20.667 0 38.334 -4.66699 53.001 -14c50.667 -32.667 92 -84.5 124 -155.5s48 -146.167 48 -225.5c0 -74 -26.667 -182 -80 -324zM1102 956.001l-101 -90l-127 117l101 92zM1122 424.001
c-1.33301 42 -13.5 79.5 -36.5 112.5s-48.167 49.5 -75.5 49.5c-20.667 0 -40.667 -8.33301 -60 -25c-30 -26 -45 -53.333 -45 -82c0 -36.667 33 -55 99 -55h118z" />
    <glyph glyph-name="qafarabic" unicode="&#x642;" horiz-adv-x="899" arabic-form="isolated" 
d="M152 283l-9.00098 -33c-17.333 -84.667 -26 -154.334 -26 -209.001c0 -181.333 73.667 -272 221 -272c104 0 222 45.667 354 137l4 22c12.667 68.667 19 122.667 19 162v19c-4 -7.33301 -13.667 -20.333 -29 -39h-96c-52 0 -91.667 2.66699 -119 8
c-31.333 6.66699 -58 24.334 -80 53.001s-33 60.667 -33 96c0 98.667 39 199 117 301c46.667 60 90.334 90 131.001 90c62.667 0 117.667 -45.667 165 -137s71 -197 71 -317c0 -82 -21.333 -185.667 -64 -311c-8 -26 -23 -67.667 -45 -125c-154 -96 -294 -144 -420 -144
c-80 0 -145 27 -195 81s-75 124 -75 210c0 64 7.16699 122 21.5 174s43.5 130 87.5 234zM783.999 860l-102 -90l-78 72l-84 -72l-123 119l101 88l75 -72l84 72zM704.999 262c-15.333 127.333 -53 191 -113 191c-20.667 0 -42 -11.667 -64 -35c-27.333 -30 -41 -60 -41 -90
c0 -44 33 -66 99 -66h119z" />
    <glyph glyph-name="kafarabic" unicode="&#x643;" horiz-adv-x="1245" arabic-form="isolated" 
d="M1057 0h-706.999c-88.667 0 -149.334 9 -182.001 27c-64 35.333 -96 98.666 -96 189.999c0 102.667 34 205.667 102 309c-13.333 -54.667 -20 -101 -20 -139c0 -86 25.667 -144 77 -174c23.333 -13.333 71.333 -20 144 -20h637l-56 679
c-32.667 11.333 -49 26.666 -49 45.999c0 12 9 33 27 63l74 123c4 -31.333 11.333 -53.333 22 -66c6.66699 -6.66699 25 -16.667 55 -30l125 -56l-65 -151l-37 14l29 -397c4 -57.333 6 -93.666 6 -108.999c0 -44.667 -14.333 -108 -43 -190
c-6.66699 -19.333 -17.667 -48.666 -33 -87.999zM723.001 666l-35.001 -95c-99.333 -13.333 -178.333 -54 -237 -122c9.33301 50 29 92 59 126c-50.667 10 -76 39.667 -76 89c0 38 21.333 82.333 64 133c34 40.667 79.667 61 137 61c35.333 0 53 -12.333 53 -37
c0 -16 -8.66699 -38.333 -26 -67c-18 5.33301 -33.333 8 -46 8c-51.333 0 -92.666 -20 -123.999 -60c39.333 -36.667 88.333 -55 147 -55c24.667 0 52.667 6.33301 84 19z" />
    <glyph glyph-name="lamarabic" unicode="&#x644;" horiz-adv-x="922" arabic-form="isolated" 
d="M885 954l-66.001 -153.001l-35 14l29 -434c4 -56 6 -114 6 -174c0 -138 -28.667 -285.667 -86 -443c-139.333 -100.667 -273.666 -151 -402.999 -151c-86 0 -155.333 27.667 -208 83s-79 127.333 -79 216c0 96.667 39 231.667 117 405l-10 -45
c-16.667 -72 -25 -140.667 -25 -206c0 -179.333 72.333 -269 217 -269c112 0 225.333 48 340 144l-2 36c-4 72.667 -8.66699 174 -14 304l-17 335l-14 256c-36.667 12.667 -55 29.334 -55 50.001c0 10.667 4.66699 23.667 14 39l14 22l74 117
c1.33301 -24.667 6.5 -42.167 15.5 -52.5s31.833 -23.5 68.5 -39.5z" />
    <glyph glyph-name="meemarabic" unicode="&#x645;" horiz-adv-x="819" arabic-form="isolated" 
d="M172 199l99.9971 211.003l64 127c23.333 38 54 57 92 57c30 0 58 -8.33301 84 -25c36.667 -22.667 77 -55.334 121 -98.001c90 -87.333 135 -167.333 135 -240c0 -16 -9 -55.333 -27 -118l-16 -54l-8 -20l-15 -39h-563l23 -367c1.33301 -26 2 -36 2 -30
c0 -12.667 -3.16699 -27.834 -9.5 -45.501s-13.166 -35.334 -20.499 -53.001s-24.666 -50.5 -51.999 -98.5l-27 -47l-22 217c-1.33301 14 -2.66602 31.167 -3.99902 51.5s-5 62.5 -11 126.5c-2.66699 41.333 -4 73.333 -4 96c0 62 18 132.333 54 211
c42 93.333 73.333 140 94 140c2.66699 0 6 -0.666992 10 -2zM278.997 193.003l385 -0.000976562c-10 34 -24.333 65.333 -43 94c-24.667 35.333 -55.167 67.333 -91.5 96s-65.5 43 -87.5 43c-17.333 0 -33.666 -10.333 -48.999 -31
c-10.667 -13.333 -30.334 -46.666 -59.001 -99.999z" />
    <glyph glyph-name="noonarabic" unicode="&#x646;" horiz-adv-x="850" arabic-form="isolated" 
d="M481 535l-100 -91l-127 117l100 92zM668 459c83.333 -122 125.001 -251.668 125.001 -389.001c0 -70 -28 -178 -84 -324c-135.333 -91.333 -262.333 -137 -381 -137c-80.667 0 -148.334 28 -203.001 84s-82 125.667 -82 209c0 69.333 20.333 162.666 61 279.999
c14 38.667 34 87.334 60 146.001c-24.667 -117.333 -37 -209.666 -37 -276.999c0 -79.333 19.5 -141.833 58.5 -187.5s92.5 -68.5 160.5 -68.5c50.667 0 108 14 172 42s118.667 62 164 102c-4 76 -14.333 142.667 -31 200c-14.667 53.333 -46 116.333 -94 189z" />
    <glyph glyph-name="heharabic" unicode="&#x647;" horiz-adv-x="668" arabic-form="isolated" 
d="M532 0l-313.001 -0.000976562c-9.33301 0 -19.666 0.666992 -30.999 2h-18c-22 2.66699 -39 7.33398 -51 14.001c-37.333 20.667 -56 66 -56 136c0 64 32.333 186 97 366c26 74 58.667 111 98 111c49.333 0 121.333 -39 216 -117s142 -151 142 -219
c0 -14 -12 -61.667 -36 -143l-27 -89zM488.999 192.999c-4 61.333 -17.333 109.667 -40 145c-36 54.667 -82.667 90.667 -140 108c-8 3.33301 -15.333 5 -22 5c-23.333 0 -43.333 -24 -60 -72c-18.667 -54.667 -28 -95.667 -28 -123c0 -42 29.333 -63 88 -63h202z" />
    <glyph glyph-name="wawarabic" unicode="&#x648;" horiz-adv-x="625" arabic-form="isolated" 
d="M436 0l-139 -0.00195312c-49.333 0 -82.666 1.33301 -99.999 4c-36 5.33301 -65.833 22 -89.5 50s-35.5 60.667 -35.5 98c0 56 15 117 45 183s68 123.667 114 173c27.333 28.667 58.333 43 93 43c43.333 0 85.666 -28.667 126.999 -86
c68 -97.333 102 -212.666 102 -345.999c0 -153.333 -50.667 -292.666 -152 -417.999c-56 -69.333 -107.667 -104 -155 -104c-53.333 0 -130 64.667 -230 194c49.333 -18 93 -27 131 -27c62 0 118.833 21.167 170.5 63.5s91.167 99.833 118.5 172.5zM422 192.998
c-15.333 125.333 -53 188 -113 188c-26 0 -50.167 -13.667 -72.5 -41s-33.5 -56 -33.5 -86c0 -40.667 25.333 -61 76 -61h143z" />
    <glyph glyph-name="alefmaksuraarabic" unicode="&#x649;" horiz-adv-x="1001" arabic-form="isolated" 
d="M578 285l249 -110.999c56 -24.667 84 -48.667 84 -72c0 -18.667 -13 -52.667 -39 -102l-22 -43l-74 -145c-50.667 -49.333 -101.667 -88.333 -153 -117c-101.333 -56 -197.666 -84 -288.999 -84c-86 0 -156 28 -210 84s-81 128.333 -81 217c0 68 18.333 153.333 55 256
c19.333 53.333 40.666 103.666 63.999 150.999l-8 -32c-19.333 -76.667 -29 -145 -29 -205c0 -188.667 75 -283 225 -283c67.333 0 139.833 20.5 217.5 61.5s134.167 88.167 169.5 141.5l-243 111c-33.333 14.667 -54 26.167 -62 34.5s-12 21.833 -12 40.5
c0 30 15.667 71 47 123c117.333 194 255.333 291 414 291c57.333 0 86 -19.667 86 -59c0 -7.33301 -8.33301 -35.333 -25 -84l-18 -56c-36 15.333 -72.333 23 -109 23c-96.667 0 -175.667 -47 -237 -141z" />
    <glyph glyph-name="yeharabic" unicode="&#x64a;" horiz-adv-x="1001" arabic-form="isolated" 
d="M197 -528l102 90l80 -72l82 72l125 -119l-103 -88l-75 70l-84 -70zM578 285l249 -110.999c56 -24.667 84 -48.667 84 -72c0 -18.667 -13 -52.667 -39 -102l-96 -188c-50.667 -49.333 -101.667 -88.333 -153 -117c-101.333 -56 -197.666 -84 -288.999 -84
c-86 0 -156 28 -210 84s-81 128.333 -81 217c0 68 18.333 153.333 55 256c19.333 53.333 40.666 103.666 63.999 150.999l-8 -32c-19.333 -76.667 -29 -145 -29 -205c0 -188.667 75 -283 225 -283c67.333 0 139.833 20.5 217.5 61.5s134.167 88.167 169.5 141.5l-243 111
c-33.333 14.667 -54 26.167 -62 34.5s-12 21.833 -12 40.5c0 30 15.667 71 47 123c117.333 194 255.333 291 414 291c57.333 0 86 -19.667 86 -59c0 -7.33301 -8.33301 -35.333 -25 -84l-18 -56c-36 15.333 -72.333 23 -109 23c-96.667 0 -175.667 -47 -237 -141z" />
    <glyph glyph-name="fathatanarabic" unicode="&#xfe70;" arabic-form="isolated" 
d="M618 1416l-36 -43.001c-94.667 -108 -216.334 -163.333 -365.001 -166c-53.333 -1.33301 -121.666 4.33398 -204.999 17.001c94.667 23.333 192.167 50 292.5 80s204.833 67.333 313.5 112zM618 1601l-36 -43c-94.667 -108 -216.334 -163.333 -365.001 -166
c-53.333 -1.33301 -121.666 4 -204.999 16c94.667 23.333 192.167 50 292.5 80s204.833 67.667 313.5 113z" />
    <glyph glyph-name="dammatanarabic" unicode="&#xfe72;" arabic-form="isolated" 
d="M367 1295l-25 -106.999l-23 90c-12 -4 -55.5 -15.167 -130.5 -33.5l-112.5 -27.5c0 -1.33301 21.5 39.667 64.5 123s64.5 140.666 64.5 171.999c0 12 -5 18 -15 18c-28.667 0 -89.334 -40.333 -182.001 -121c18 27.333 33 49.333 45 66c79.333 98 145 147 197 147
c23.333 0 35 -12.333 35 -37c0 -48.667 -37 -142 -111 -280c22 4 70.333 21 145 51c6 75.333 26.333 136.833 61 184.5s75.334 71.5 122.001 71.5c39.333 0 59 -19.667 59 -59c0 -26 -6 -61 -18 -105c-16.667 -50.667 -34.667 -81.334 -54 -92.001
c-31.333 -19.333 -72 -39.666 -122 -60.999zM479 1387c11.333 23.333 17 47.999 17 73.999c0 25.333 -9 38 -27 38c-20.667 0 -40.5 -15.667 -59.5 -47s-29.833 -66.666 -32.5 -105.999c23.333 5.33301 57.333 19 102 41z" />
    <glyph glyph-name="kasratanarabic" unicode="&#xfe74;" arabic-form="isolated" 
d="M608 -12c-9.33301 -11.333 -21.667 -25 -37 -41c-94 -101.333 -214.667 -153.333 -362 -156c-54.667 0 -123 5.33301 -205 16c94 22 190.833 47 290.5 75s204.167 63.333 313.5 106zM609.999 -217l-37 -43c-94 -108 -215.333 -163.333 -364 -166
c-53.333 -1.33301 -121.666 4 -204.999 16c94 23.333 191.167 50 291.5 80s205.166 67.667 314.499 113z" />
    <glyph glyph-name="fathaarabic" unicode="&#xfe76;" arabic-form="isolated" 
d="M618 1412l-36 -43c-94.667 -108 -216.334 -163.333 -365.001 -166c-53.333 -1.33301 -121.666 4 -204.999 16c94.667 23.333 192.167 50 292.5 80s204.833 67.667 313.5 113z" />
    <glyph glyph-name="dammaarabic" unicode="&#xfe78;" arabic-form="isolated" 
d="M10 1230c71.333 36 176.667 92.6699 316 170.003c4 78 25.833 143.333 65.5 196s86.5 79 140.5 79c42.667 0 64 -23.333 64 -70c0 -20.667 -5.83301 -51.334 -17.5 -92.001s-23 -71.334 -34 -92.001s-66.167 -51.334 -165.5 -92.001c-1.33301 -6 -11 -46.333 -29 -121
l-22 104c-41.333 -14.667 -94 -29.667 -158 -45c-104 -24.667 -157.333 -37 -160 -37zM393.001 1370c2.66699 1.33301 16.998 7.99902 42.998 19.999c58.667 28.667 88 66.334 88 113.001c0 17.333 -10 26 -30 26c-23.333 0 -44.666 -15 -63.999 -45
s-31.666 -68 -36.999 -114z" />
    <glyph glyph-name="kasraarabic" unicode="&#xfe7a;" arabic-form="isolated" 
d="M618 -6l-36 -43c-94.667 -108 -216.334 -163.333 -365.001 -166c-53.333 -1.33301 -121.666 4 -204.999 16c94.667 23.333 192.167 50 292.5 80s204.833 67.667 313.5 113z" />
    <glyph glyph-name="shaddaarabic" unicode="&#xfe7c;" arabic-form="isolated" 
d="M387 1470c52 -61.333 78 -116 78 -164c0 -26 -9.66699 -61.333 -29 -106h-145l-25 37l-41 -37c-91.333 0 -145.333 4 -162 12c-35.333 19.333 -53 51.333 -53 96c0 45.333 15.667 92 47 140c-6.66699 -36 -10 -60 -10 -72c0 -57.333 33.333 -86 100 -86h84l-77 115l45 47
l112 -162h99c-10 48 -34.667 91 -74 129z" />
    <glyph glyph-name="sukunarabic" unicode="&#xfe7e;" arabic-form="isolated" 
d="M361 1215c-30 -9.33301 -62.334 -14.001 -97.001 -14.001c-61.333 0 -92 26 -92 78c0 54.667 30.667 117.334 92 188.001c50.667 58.667 94.334 88 131.001 88c40 0 60 -28 60 -84c0 -86 -31.333 -171.333 -94 -256zM358.999 1307c20 41.333 30 84.332 30 128.999
c0 19.333 -6 29 -18 29c-10.667 0 -29 -13 -55 -39c-40 -39.333 -60 -68.666 -60 -87.999c0 -24.667 16.333 -37 49 -37c14 0 32 2 54 6z" />
    <glyph glyph-name="alefwasla" unicode="&#x671;" horiz-adv-x="401" arabic-form="isolated" 
d="M129 -68c8 105.333 11.999 194.334 11.999 267.001c0 96.667 -4.66699 227.667 -14 393c-8 135.333 -17 237 -27 305l164 203l39 -242l-37 -43l2 -24c12.667 -148 19 -270.333 19 -367s-10.333 -182 -31 -256c-15.333 -54.667 -57.666 -133.334 -126.999 -236.001z
M429.999 1354c0 -46.667 -21.666 -86.333 -64.999 -119c-38.667 -30 -81.667 -45 -129 -45h-189c-23.333 0 -35 -16.333 -35 -49c0 -5.33301 0.666992 -12.333 2 -21v-22c-35.333 36.667 -53 74.667 -53 114c0 24.667 13 44 39 58c22 10.667 46.667 16 74 16
c47.333 57.333 84.666 97 111.999 119c50.667 40.667 100.667 61 150 61c62.667 0 94 -37.333 94 -112zM328 1354c0 28.667 -12.333 43 -37 43c-31.333 0 -79.333 -37 -144 -111h78c68.667 0 103 22.667 103 68z" />
    <glyph glyph-name="tteharabic" unicode="&#x679;" horiz-adv-x="1200" arabic-form="isolated" 
d="M1053 0l-809 2c-22 0 -47.333 8.33301 -76 25c-64 36.667 -96 101.334 -96 194.001c0 104 34 205.667 102 305c-13.333 -44.667 -20 -93 -20 -145c0 -84.667 25.667 -140.667 77 -168c26 -13.333 79.333 -20 160 -20h627
c-1.33301 77.333 -26.666 149.666 -75.999 216.999l109 145c62.667 -78 94 -156.667 94 -236c0 -43.333 -15 -107.333 -45 -192c-8.66699 -24.667 -24.334 -67 -47.001 -127zM563 715l66 45.002c44.667 31.333 82.667 47 114 47c49.333 0 89 -32 119 -96
c14 -28.667 21 -50 21 -64c0 -12 -7.66699 -30.333 -23 -55l-16 -27l-23 -35h-415l-99 95h119l47 34v304c-13.333 12 -20 22.667 -20 32c0 10 9.33301 25.667 28 47l56 62c0 -12.667 3.66699 -25.334 11 -38.001s20 -27.334 38 -44.001l59 -51l-67 -86l-15 12v-182z
M782 625.002c-13.333 56 -36.333 84 -69 84c-14 0 -36 -10.333 -66 -31l-78 -53h213z" />
    <glyph glyph-name="peharabic" unicode="&#x67e;" horiz-adv-x="1200" arabic-form="isolated" 
d="M1053 0l-809 2c-22 0 -47.333 8.33301 -76 25c-64 36.667 -96 101.334 -96 194.001c0 104 34 205.667 102 305c-13.333 -44.667 -20 -93 -20 -145c0 -84.667 25.667 -140.667 77 -168c26 -13.333 79.333 -20 160 -20h627
c-1.33301 77.333 -26.666 149.666 -75.999 216.999l109 145c62.667 -78 94 -156.667 94 -236c0 -43.333 -15 -107.333 -45 -192c-8.66699 -24.667 -24.334 -67 -47.001 -127zM459 -258l102 90l80 -72l82 72l125 -119l-103 -88l-75 70l-84 -70zM569 -492l101 91l127 -117
l-101 -94z" />
    <glyph glyph-name="tcheharabic" unicode="&#x686;" horiz-adv-x="1053" arabic-form="isolated" 
d="M461 86l102 90l80 -72l82 72l125 -119l-102 -88l-76 70l-84 -70zM571 -147l101 90l129 -117l-103 -94zM1038 631l-97.998 -180.001c-82 -1.33301 -154.333 -9 -217 -23c-150 -31.333 -275.167 -94.833 -375.5 -190.5s-150.5 -198.167 -150.5 -307.5
c0 -110.667 56.667 -198.667 170 -264c83.333 -48 189.666 -72 318.999 -72c112 0 218.667 13 320 39c-66 -52.667 -113.333 -95.667 -142 -129c-17.333 -20 -30.833 -34.833 -40.5 -44.5s-19.167 -17.167 -28.5 -22.5c-34.667 -19.333 -105.667 -29 -213 -29
c-132.667 0 -238.667 23.333 -318 70c-58.667 35.333 -105.334 85.833 -140.001 151.5s-52 137.834 -52 216.501c0 226.667 111.333 429 334 607c-53.333 12 -98 18 -134 18c-64 0 -124 -13.667 -180 -41l51 113c31.333 68 80 102 146 102c20 0 47.333 -1.33301 82 -4
l102 -8c120 -10 234 -15 342 -15c84.667 0 159 4.33301 223 13z" />
    <glyph glyph-name="ddalarabic" unicode="&#x688;" horiz-adv-x="686" arabic-form="isolated" 
d="M295 930l64.998 45.001c20.667 13.333 41.334 24.5 62.001 33.5s38.334 13.5 53.001 13.5c34 0 62.667 -15 86 -45c35.333 -45.333 53 -83.666 53 -114.999c0 -12 -7.33301 -30.333 -22 -55l-17 -27l-22 -35h-416l-98 95h119l47 34v304c-14 12 -21 22.667 -21 32
c0 10 9.66699 25.667 29 47l55 62c0 -12.667 3.83301 -25.334 11.5 -38.001s20.167 -27.334 37.5 -44.001l60 -51l-68 -86l-14 12v-182zM513.998 840.001c-13.333 56 -36.667 84 -70 84c-13.333 0 -35 -10.333 -65 -31l-78 -53h213zM292.997 604.001
c159.333 -69.333 239 -169.667 239 -301c0 -52 -12 -109.333 -36 -172l-52 -131h-409l43 193h334c-4 66.667 -20 119.167 -48 157.5s-76.333 72.5 -145 102.5z" />
    <glyph glyph-name="rreharabic" unicode="&#x691;" horiz-adv-x="530" arabic-form="isolated" 
d="M119 748l65 43c50.667 32.667 88.334 49 113.001 49c35.333 0 64.666 -15 87.999 -45c35.333 -45.333 53 -84.333 53 -117c0 -14 -13 -40.667 -39 -80l-22 -35h-416l-98 92h119l47 35v305c-14 12.667 -21 23 -21 31s9.66699 23.667 29 47l53 64
c1.33301 -14 5.33301 -26.333 12 -37c10 -16.667 23 -31.667 39 -45l60 -51l-70 -86l-12 10v-180zM338 655c-15.333 57.333 -38.667 86 -70 86c-12 0 -33.667 -10.667 -65 -32l-78 -54h213zM288.999 412c76 -100 113.998 -200.333 113.998 -301
c0 -97.333 -31.333 -202.666 -94 -315.999c-72 -130.667 -146.333 -196 -223 -196c-27.333 0 -61.5 17.667 -102.5 53s-78.5 77.666 -112.5 126.999l-14 20c46 -20 92.333 -30 139 -30c60 0 119 25.5 177 76.5s104 118.167 138 201.5c-13.333 44 -31.666 86 -54.999 126
s-48.666 77.333 -75.999 112z" />
    <glyph glyph-name="jeharabic" unicode="&#x698;" horiz-adv-x="498" arabic-form="isolated" 
d="M455 666l-105 -91l-78 72l-82 -72l-124 121l100 88l78 -71l84 71zM342 901l-98 -90l-129 117l102 92zM289 412c76 -100 113.998 -200.333 113.998 -301c0 -97.333 -31.333 -202.666 -94 -315.999c-72 -130.667 -146.333 -196 -223 -196c-27.333 0 -61.5 17.667 -102.5 53
s-78.5 77.666 -112.5 126.999l-14 20c46 -20 92.333 -30 139 -30c60 0 119 25.5 177 76.5s104 118.167 138 201.5c-13.333 44 -31.666 86 -54.999 126s-48.666 77.333 -75.999 112z" />
    <glyph glyph-name="veharabic" unicode="&#x6a4;" horiz-adv-x="1303" arabic-form="isolated" 
d="M1159 0l-776.002 0.000976562c-84.667 0 -140.667 2.66699 -168 8c-42 8 -76.333 31.167 -103 69.5s-40 83.5 -40 135.5c0 110.667 34.667 214.334 104 311.001c-13.333 -53.333 -20 -98.333 -20 -135c0 -88.667 25.667 -147.334 77 -176.001
c10 -5.33301 27.333 -10.666 52 -15.999c38 -2.66699 80.333 -4 127 -4h723c4 39.333 6 67 6 83c0 3.33301 -1.33301 15.666 -4 36.999l-54 -67h-118c-49.333 0 -82.333 1.33301 -99 4c-27.333 4 -50.166 19.333 -68.499 46s-27.5 57.667 -27.5 93
c0 61.333 19.667 125.666 59 192.999c62 102 125.667 153 191 153c20.667 0 38.334 -4.66699 53.001 -14c50.667 -32.667 92 -84.5 124 -155.5s48 -146.167 48 -225.5c0 -74 -26.667 -182 -80 -324zM1174 981.001l-103 -90l-80 72l-82 -72l-125 121l103 88l76 -72l84 72z
M1063 1217l-100 -91l-127 117l100 92zM1122 424.001c-1.33301 42 -13.5 79.5 -36.5 112.5s-48.167 49.5 -75.5 49.5c-20.667 0 -40.667 -8.33301 -60 -25c-30 -26 -45 -53.333 -45 -82c0 -36.667 33 -55 99 -55h118z" />
    <glyph glyph-name="uni06A5.ini" unicode="&#x6a5;" horiz-adv-x="760" 
d="M616 0h-641.001v193h617c2.66699 24 4 51 4 81c0 15.333 -0.666992 28.333 -2 39l-53 -67h-119c-48 0 -80.667 1.33301 -98 4c-28.667 4 -52 19.333 -70 46s-27 57.667 -27 93c0 62.667 20 127 60 193c62.667 102 126 153 190 153c20.667 0 38.334 -4.66699 53.001 -14
c50.667 -32.667 92 -84.5 124 -155.5s48 -146.167 48 -225.5c0 -74 -26.333 -182 -79 -324zM579.999 424c-3.33301 42 -16.1689 79.5 -38.502 112.5s-47.166 49.5 -74.499 49.5c-23.333 0 -46.666 -11.667 -69.999 -35s-35 -47.333 -35 -72c0 -36.667 33 -55 99 -55h119z
M167.996 -205l102 90l80 -71l82 71l125 -118l-102 -89l-76 70l-84 -70zM278.996 -438l100 90l127 -117l-100 -94z" />
    <glyph glyph-name="uni06A5.med" unicode="&#x6a5;" horiz-adv-x="987" 
d="M393 0h-418.001v193h277c-2.66699 5.33301 -4 12 -4 20c0 31.333 19.667 75.666 59 132.999c128.667 186 232.334 279 311.001 279c41.333 0 76.333 -18.167 105 -54.5s43 -81.166 43 -134.499c0 -72 -27.333 -153 -82 -243h309v-193h-465l-75 47zM624.999 270
c6.66699 20.667 10 43.334 10 68.001c0 70.667 -22 106 -66 106c-24.667 0 -54.667 -17.333 -90 -52s-60.666 -67.667 -75.999 -99l93 -72c10.667 -8 18 -12 22 -12c1.33301 1.33301 4.66602 2.66602 9.99902 3.99902l9 4zM302.999 -215l103 90l79 -72l82 72l125 -119
l-102 -88l-76 70l-84 -70zM413.999 -449l100 91l127 -117l-100 -94z" />
    <glyph glyph-name="uni06A5.fin" unicode="&#x6a5;" horiz-adv-x="1602" 
d="M1008 0l-717 2.00098c-57.333 2.66699 -99 11.667 -125 27c-62.667 38 -94 100.667 -94 188c0 104 34 206.333 102 307c-13.333 -54.667 -20 -102.334 -20 -143.001c0 -83.333 25.667 -139.333 77 -168c24.667 -13.333 78.667 -20 162 -20h473
c-2.66699 5.33301 -4 12.666 -4 21.999c0 30 20 73.667 60 131c128 186 231.667 279 311 279c40.667 0 75.667 -18.167 105 -54.5s44 -81.166 44 -134.499c0 -72 -28 -153 -84 -243h310v-193h-465l-76 47zM1239 270.001c6.66699 20.667 10.001 43.333 10.001 68
c0 70.667 -21.667 106 -65 106c-24.667 0 -54.834 -17.333 -90.501 -52s-60.834 -67.667 -75.501 -99l92 -72c10.667 -8 18.334 -12 23.001 -12c2.66699 1.33301 8.66699 4 18 8zM821.001 -172l103 90l80 -72l81 72l125 -119l-102 -88l-76 70l-84 -70zM932.001 -406l100 91
l127 -117l-100 -94z" />
    <glyph glyph-name="uni06A7.ini" unicode="&#x6a7;" horiz-adv-x="760" 
d="M616 0h-641.001v193h617c2.66699 24 4 51 4 81c0 15.333 -0.666992 28.333 -2 39l-53 -67h-119c-48 0 -80.667 1.33301 -98 4c-28.667 4 -52 19.333 -70 46s-27 57.667 -27 93c0 62.667 20 127 60 193c62.667 102 126 153 190 153c20.667 0 38.334 -4.66699 53.001 -14
c50.667 -32.667 92 -84.5 124 -155.5s48 -146.167 48 -225.5c0 -74 -26.333 -182 -79 -324zM579.999 424c-3.33301 42 -16.1689 79.5 -38.502 112.5s-47.166 49.5 -74.499 49.5c-23.333 0 -46.666 -11.667 -69.999 -35s-35 -47.333 -35 -72c0 -36.667 33 -55 99 -55h119z
M548.996 958l-100 -90l-127 117l100 92z" />
    <glyph glyph-name="uni06A7.med" unicode="&#x6a7;" horiz-adv-x="987" 
d="M393 0l-418 -0.000976562v193h277c-2.66699 5.33301 -4 12 -4 20c0 30 19.667 74.333 59 133c126 186 229.667 279 311 279c41.333 0 76.333 -18.167 105 -54.5s43 -81.166 43 -134.499c0 -73.333 -27.333 -154.333 -82 -243h309v-193h-465l-77 47zM625 269.999
c6.66699 20.667 9.99902 43.333 9.99902 68c0 70.667 -22 106 -66 106c-24.667 0 -54.667 -17.333 -90 -52s-60.666 -67.667 -75.999 -99l93 -72c10.667 -8 18 -12 22 -12c2.66699 1.33301 9 4 19 8zM716.999 837.998l-101 -90l-127 116l101 92z" />
    <glyph glyph-name="uni06A7.fin" unicode="&#x6a7;" horiz-adv-x="1061" 
d="M836 0c-11.333 -86 -45.667 -200.67 -103 -344.003c-155.333 -94 -295.333 -141 -420 -141c-80 0 -145 26.833 -195 80.5s-75 123.5 -75 209.5c0 64.667 7.16699 122.834 21.5 174.501s43.5 128.834 87.5 231.501l-9 -33c-17.333 -84.667 -26 -154.334 -26 -209.001
c0 -181.333 73.667 -272 221 -272c105.333 0 223.333 46.333 354 139l4 21c7.33301 32.667 13.666 80.334 18.999 143.001h-125c-52 0 -91.667 2.66699 -119 8c-31.333 6.66699 -58 24 -80 52s-33 60.667 -33 98c0 96.667 39 196.334 117 299.001
c46.667 60 90.334 90 131.001 90c52 0 99.5 -33.167 142.5 -99.5s71.5 -149.833 85.5 -250.5v-4h233v-193h-231zM704.999 192.997c-15.333 125.333 -52.999 188 -112.999 188c-24.667 0 -48.334 -14.333 -71.001 -43s-34 -56 -34 -82c0 -42 33 -63 99 -63h119zM692 767.997
l-100 -90l-127 117l100 92z" />
    <glyph glyph-name="uni06A8.ini" unicode="&#x6a8;" horiz-adv-x="760" 
d="M616 0h-641.001v193h617c2.66699 24 4 51 4 81c0 15.333 -0.666992 28.333 -2 39l-53 -67h-119c-48 0 -80.667 1.33301 -98 4c-28.667 4 -52 19.333 -70 46s-27 57.667 -27 93c0 62.667 20 127 60 193c62.667 102 126 153 190 153c20.667 0 38.334 -4.66699 53.001 -14
c50.667 -32.667 92 -84.5 124 -155.5s48 -146.167 48 -225.5c0 -74 -26.333 -182 -79 -324zM579.999 424c-3.33301 42 -16.1689 79.5 -38.502 112.5s-47.166 49.5 -74.499 49.5c-23.333 0 -46.666 -11.667 -69.999 -35s-35 -47.333 -35 -72c0 -36.667 33 -55 99 -55h119z
M615.996 915l-102 -90l-80 72l-82 -72l-125 121l103 88l76 -71l83 71zM505.996 1151l-100 -90l-127 117l100 92z" />
    <glyph glyph-name="uni06A8.med" unicode="&#x6a8;" horiz-adv-x="987" 
d="M393 0l-418 -0.000976562v193h277c-2.66699 5.33301 -4 12 -4 20c0 30 19.667 74.333 59 133c126 186 229.667 279 311 279c41.333 0 76.333 -18.167 105 -54.5s43 -81.166 43 -134.499c0 -73.333 -27.333 -154.333 -82 -243h309v-193h-465l-77 47zM625 269.999
c6.66699 20.667 9.99902 43.333 9.99902 68c0 70.667 -22 106 -66 106c-24.667 0 -54.667 -17.333 -90 -52s-60.666 -67.667 -75.999 -99l93 -72c10.667 -8 18 -12 22 -12c2.66699 1.33301 9 4 19 8zM775.999 820.998l-102 -90l-80 72l-82 -72l-125 121l102 88l76 -72l84 72
zM665.999 1057l-101 -90l-127 116l101 93z" />
    <glyph glyph-name="uni06A8.fin" unicode="&#x6a8;" horiz-adv-x="1061" 
d="M836 0c-11.333 -86 -45.667 -200.67 -103 -344.003c-155.333 -94 -295.333 -141 -420 -141c-80 0 -145 26.833 -195 80.5s-75 123.5 -75 209.5c0 64.667 7.16699 122.834 21.5 174.501s43.5 128.834 87.5 231.501l-9 -33c-17.333 -84.667 -26 -154.334 -26 -209.001
c0 -181.333 73.667 -272 221 -272c105.333 0 223.333 46.333 354 139l4 21c7.33301 32.667 13.666 80.334 18.999 143.001h-125c-52 0 -91.667 2.66699 -119 8c-31.333 6.66699 -58 24 -80 52s-33 60.667 -33 98c0 96.667 39 196.334 117 299.001
c46.667 60 90.334 90 131.001 90c52 0 99.5 -33.167 142.5 -99.5s71.5 -149.833 85.5 -250.5v-4h233v-193h-231zM704.999 192.997c-15.333 125.333 -52.999 188 -112.999 188c-24.667 0 -48.334 -14.333 -71.001 -43s-34 -56 -34 -82c0 -42 33 -63 99 -63h119zM748 747.997
l-103 -91l-80 72l-82 -72l-125 121l103 88l76 -71l84 71zM637 982.997l-100 -90l-127 117l100 92z" />
    <glyph glyph-name="keheh" unicode="&#x6a9;" horiz-adv-x="1483" arabic-form="isolated" 
d="M1249 0l-1005 1.99805c-22 0 -47.333 8.33301 -76 25c-64 36.667 -96 101.334 -96 194.001c0 102.667 34 204.334 102 305.001c-13.333 -44.667 -20 -93 -20 -145c0 -83.333 25.667 -139.333 77 -168c26 -13.333 79.333 -20 160 -20h723l-301 204l-29 -41l-104 68
c-23.333 14.667 -35 31.667 -35 51c0 9.33301 4.66699 26.333 14 51l13 31l55 121l684 203l-78 -174l-465 -150l418 -283c30 -20 45 -43 45 -69c0 -10 -3.33301 -24.333 -10 -43l-14 -31z" />
    <glyph glyph-name="uni06AE.ini" unicode="&#x6ae;" horiz-adv-x="1057" 
d="M1044 1096l-81 -176.001l-537 -158l424 -467c36.667 -41.333 55 -71.333 55 -90c0 -11.333 -4.66699 -25.666 -14 -42.999l-21 -39l-63 -123h-832v193h750l-334 370l-31 -33l-71 70c-5.33301 5.33301 -13 12.333 -23 21c-13.333 13.333 -20 27 -20 41
c0 10.667 4 25 12 43l10 22l78 174zM258 -158.001l102 90l80 -71l82 71l125 -118l-102 -88l-76 69l-84 -69zM369 -391.001l100 90l127 -117l-100 -94z" />
    <glyph glyph-name="uni06AE.med" unicode="&#x6ae;" horiz-adv-x="1196" 
d="M-25 0v193h750l-334 370l-29 -33l-96 91c-13.333 12 -20 25.667 -20 41c0 10.667 4 25 12 43l10 22l78 174l698 195l-81 -176l-537 -158l426 -467c36.667 -41.333 55 -72 55 -92c0 -4 -0.666992 -7.33301 -2 -10h295v-193h-315l-51 59l-37 -59h-822zM328 -168l102 90
l80 -72l82 72l125 -119l-103 -88l-75 70l-84 -70zM438 -401l101 90l127 -117l-101 -94z" />
    <glyph glyph-name="uni06AE.fin" unicode="&#x6ae;" horiz-adv-x="1399" 
d="M1167 1100l2.00098 -867.001c0 -26.667 16.667 -40 50 -40h184v-193h-307c-16.667 0 -31 2 -43 6c-20.667 6.66699 -35 24.334 -43 53.001l-37 -59h-651c-40 -0 -71 1.33301 -93 4c-43.333 5.33301 -80.333 27.833 -111 67.5s-46 85.5 -46 137.5c0 68 17 143 51 225
c9.33301 24.667 25.666 54.667 48.999 90l-4 -22c-8 -45.333 -12 -85 -12 -119c0 -80.667 24.333 -136 73 -166c27.333 -16 85.333 -24 174 -24h607v739zM731.001 665.999l-37 -94.999c-96.667 -13.333 -175.667 -54 -237 -122c9.33301 50 29 92 59 126
c-50.667 11.333 -76 41.666 -76 90.999c0 35.333 22 79 66 131c34 40.667 79 61 135 61c35.333 0 53 -11.667 53 -35c0 -18.667 -8.66699 -41.667 -26 -69c-16.667 5.33301 -31.667 8 -45 8c-52 0 -93.667 -20 -125 -60c39.333 -36.667 89 -55 149 -55
c23.333 0 51.333 6.33301 84 19zM477.001 -156l103 90l79 -71l82 71l125 -118l-102 -88l-76 69l-84 -69zM588.001 -389l100 90l127 -117l-100 -94z" />
    <glyph glyph-name="gafarabic" unicode="&#x6af;" horiz-adv-x="1483" arabic-form="isolated" 
d="M1249 0l-1005 1.99805c-22 0 -47.333 8.33301 -76 25c-64 36.667 -96 101.334 -96 194.001c0 102.667 34 204.334 102 305.001c-13.333 -44.667 -20 -93 -20 -145c0 -83.333 25.667 -139.333 77 -168c26 -13.333 79.333 -20 160 -20h723l-301 204l-29 -41l-104 68
c-23.333 14.667 -35 31.667 -35 51c0 9.33301 4.66699 26.333 14 51l13 31l55 121l684 203l-78 -174l-465 -150l418 -283c30 -20 45 -43 45 -69c0 -10 -3.33301 -24.333 -10 -43l-14 -31zM1528 1139l-78 -172l-692 -205l76 176z" />
    <glyph glyph-name="noonghunnaarabic" unicode="&#x6ba;" horiz-adv-x="850" arabic-form="isolated" 
d="M668 459c83.333 -122 125.001 -251.668 125.001 -389.001c0 -70 -28 -178 -84 -324c-135.333 -91.333 -262.333 -137 -381 -137c-80.667 0 -148.334 28 -203.001 84s-82 125.667 -82 209c0 69.333 20.333 162.666 61 279.999c14 38.667 34 87.334 60 146.001
c-24.667 -117.333 -37 -209.666 -37 -276.999c0 -79.333 19.5 -141.833 58.5 -187.5s92.5 -68.5 160.5 -68.5c50.667 0 108 14 172 42s118.667 62 164 102c-4 76 -14.333 142.667 -31 200c-14.667 53.333 -46 116.333 -94 189z" />
    <glyph glyph-name="hehwithyehabove" unicode="&#x6c0;" horiz-adv-x="668" arabic-form="isolated" 
d="M532 0l-313.001 -0.000976562c-9.33301 0 -19.666 0.666992 -30.999 2h-18c-22 2.66699 -39 7.33398 -51 14.001c-37.333 20.667 -56 66 -56 136c0 64 32.333 186 97 366c26 74 58.667 111 98 111c49.333 0 121.333 -39 216 -117s142 -151 142 -219
c0 -14 -12 -61.667 -36 -143l-27 -89zM488.999 192.999c-4 61.333 -17.333 109.667 -40 145c-36 54.667 -82.667 90.667 -140 108c-8 3.33301 -15.333 5 -22 5c-23.333 0 -43.333 -24 -60 -72c-18.667 -54.667 -28 -95.667 -28 -123c0 -42 29.333 -63 88 -63h202z
M495.999 938l-37.001 -94c-97.333 -14 -176.666 -55 -237.999 -123c6.66699 46.667 26.667 89 60 127c-50.667 10.667 -76 40 -76 88c0 38 21 82.333 63 133c34 40.667 80.667 61 140 61c34 0 51 -11.333 51 -34c0 -18 -9 -41.333 -27 -70c-16 5.33301 -31 8 -45 8
c-52 0 -93.667 -19.667 -125 -59c40 -36.667 90 -55 150 -55c20 0 48 6 84 18z" />
    <glyph glyph-name="hehaltonearabic" unicode="&#x6c1;" horiz-adv-x="668" arabic-form="isolated" 
d="M532 0l-313.001 -0.000976562c-9.33301 0 -19.666 0.666992 -30.999 2h-18c-22 2.66699 -39 7.33398 -51 14.001c-37.333 20.667 -56 66 -56 136c0 64 32.333 186 97 366c26 74 58.667 111 98 111c49.333 0 121.333 -39 216 -117s142 -151 142 -219
c0 -14 -12 -61.667 -36 -143l-27 -89zM488.999 192.999c-4 61.333 -17.333 109.667 -40 145c-36 54.667 -82.667 90.667 -140 108c-8 3.33301 -15.333 5 -22 5c-23.333 0 -43.333 -24 -60 -72c-18.667 -54.667 -28 -95.667 -28 -123c0 -42 29.333 -63 88 -63h202z" />
    <glyph glyph-name="farsiyeh" unicode="&#x6cc;" horiz-adv-x="1001" arabic-form="isolated" 
d="M578 285l249 -110.999c56 -24.667 84 -48.667 84 -72c0 -18.667 -13 -52.667 -39 -102l-22 -43l-74 -145c-50.667 -49.333 -101.667 -88.333 -153 -117c-101.333 -56 -197.666 -84 -288.999 -84c-86 0 -156 28 -210 84s-81 128.333 -81 217c0 68 18.333 153.333 55 256
c19.333 53.333 40.666 103.666 63.999 150.999l-8 -32c-19.333 -76.667 -29 -145 -29 -205c0 -188.667 75 -283 225 -283c67.333 0 139.833 20.5 217.5 61.5s134.167 88.167 169.5 141.5l-243 111c-33.333 14.667 -54 26.167 -62 34.5s-12 21.833 -12 40.5
c0 30 15.667 71 47 123c117.333 194 255.333 291 414 291c57.333 0 86 -19.667 86 -59c0 -7.33301 -8.33301 -35.333 -25 -84l-18 -56c-36 15.333 -72.333 23 -109 23c-96.667 0 -175.667 -47 -237 -141z" />
    <glyph glyph-name="yehbarreearabic" unicode="&#x6d2;" horiz-adv-x="1272" arabic-form="isolated" 
d="M195 193l925.004 0.00195312c41.333 0 71.166 0.666992 89.499 2s34.166 6.66602 47.499 15.999l-120 -131c-28.667 -31.333 -53.334 -52 -74.001 -62c-26 -12 -69 -18 -129 -18h-920l76 238c23.333 73.333 44 123 62 149c43.333 64 121.666 96 234.999 96h188
c64.667 0 108 3 130 9c55.333 13.333 101.666 76.666 138.999 189.999c26 80.667 46.333 134 61 160c11.333 14.667 23 22 35 22c20.667 0 55.334 -34 104.001 -102c42.667 -58.667 64 -112 64 -160c0 -34 -9 -86.667 -27 -158c-14.667 33.333 -33.667 68.333 -57 105
c-39.333 61.333 -67.333 92 -84 92c-4 0 -7.33301 -1.33301 -10 -4c-10 -6.66699 -22.333 -34.667 -37 -84c-30 -92.667 -71.667 -161 -125 -205c-24.667 -20.667 -52 -35 -82 -43c-34 -9.33301 -86 -14 -156 -14h-196c-44 0 -75.333 -6.33301 -94 -19
c-23.333 -16 -38.333 -42.333 -45 -79z" />
    <glyph glyph-name="alefwaslafinal" unicode="&#x671;" horiz-adv-x="487" arabic-form="final" 
d="M494 0h-312c-16 -0 -33 3.83301 -51 11.5s-27.667 27.834 -29 60.501l-2 39v825l156 164v-826c0 -32.667 2.66699 -54.334 8 -65.001s27.333 -16 66 -16h164v-193zM473 1333c0 -46 -21.666 -85.665 -64.999 -118.998c-38.667 -30 -81.667 -45 -129 -45h-189
c-23.333 0 -35 -16.333 -35 -49c0 -5.33301 0.666992 -12 2 -20v-23c-35.333 37.333 -53 75.666 -53 114.999c0 24.667 13 43.667 39 57c22 11.333 46.667 17 74 17c47.333 57.333 84.666 96.666 111.999 117.999c50.667 41.333 100.667 62 150 62
c62.667 0 94 -37.667 94 -113zM371.001 1333c0 28.667 -12.333 43 -37 43c-31.333 0 -79.333 -36.667 -144 -110h78c68.667 0 103 22.333 103 67z" />
    <glyph glyph-name="pehfinalarabic" unicode="&#x67e;" horiz-adv-x="1395" arabic-form="final" 
d="M1108 449l74 -256.002h219v-193h-314l-20 63l-53 -63l-770 2c-22 0 -47.333 8.33301 -76 25c-64 36.667 -96 101.334 -96 194.001c0 102.667 34 204.334 102 305.001c-13.333 -44.667 -20 -93 -20 -145c0 -83.333 25.667 -139.333 77 -168c26 -13.333 79.333 -20 160 -20
h639l-43 139zM516 -258.002l102 90l80 -72l82 72l125 -119l-102 -88l-76 70l-84 -70zM627 -492.002l100 91l127 -117l-100 -94z" />
    <glyph glyph-name="pehinitialarabic" unicode="&#x67e;" horiz-adv-x="485" arabic-form="initial" 
d="M-25 193l327.999 0.000976562c-1.33301 77.333 -26.666 149.666 -75.999 216.999l107 145c62.667 -75.333 94 -154 94 -236c0 -47.333 -14.333 -111.333 -43 -192c-8 -24.667 -24.333 -67 -49 -127h-361v193zM19.999 -257.999l105 90l78 -72l82 72l125 -119l-101 -88
l-78 70l-84 -70zM132.999 -491.999l100 91l127 -117l-100 -94z" />
    <glyph glyph-name="pehmedialarabic" unicode="&#x67e;" horiz-adv-x="651" arabic-form="medial" 
d="M365 449l73 -256h219v-193h-313l-20 63l-54 -63h-295v193h312l-41 139zM129 -258l102 90l80 -72l82 72l125 -119l-102 -88l-76 70l-84 -70zM240 -492l100 91l127 -117l-100 -94z" />
    <glyph glyph-name="ttehfinalarabic" unicode="&#x679;" horiz-adv-x="1395" arabic-form="final" 
d="M1108 449l74 -256.002h219v-193h-314l-20 63l-53 -63l-770 2c-22 0 -47.333 8.33301 -76 25c-64 36.667 -96 101.334 -96 194.001c0 102.667 34 204.334 102 305.001c-13.333 -44.667 -20 -93 -20 -145c0 -83.333 25.667 -139.333 77 -168c26 -13.333 79.333 -20 160 -20
h639l-43 139zM602 675.998l68 42.999c52 32.667 89.333 49 112 49c36 0 65.333 -15 88 -45c36 -45.333 54 -84.333 54 -117c0 -13.333 -13 -40 -39 -80l-23 -34h-416l-98 92h119l47 34v306c-13.333 12 -20 22 -20 30c0 8.66699 9.33301 24.334 28 47.001l53 64
c2 -14 6.33301 -26.333 13 -37c9.33301 -16 22.333 -31 39 -45l59 -51l-70 -86l-14 10v-180zM823 583.997c-14.667 57.333 -37.667 86 -69 86c-12.667 0 -34.667 -11 -66 -33l-78 -53h213z" />
    <glyph glyph-name="ttehinitialarabic" unicode="&#x679;" horiz-adv-x="633" arabic-form="initial" 
d="M-25 193h474c-2 78.667 -27.333 151 -76 217l108 145c62.667 -75.333 94 -154 94 -236c0 -43.333 -15 -107.333 -45 -192c-8 -24.667 -23.667 -67 -47 -127h-508v193zM256 872l66.0029 45.998c21.333 14.667 41.666 26.167 60.999 34.5s36.333 12.5 51 12.5
c35.333 0 64.666 -15 87.999 -45c35.333 -45.333 53 -83.666 53 -114.999c0 -15.333 -12.667 -42.666 -38 -81.999l-23 -35h-416l-98 94h119l47 35v303c-14 12.667 -21 23.667 -21 33s9.66699 25 29 47l53 62c1.33301 -14 5.66602 -26.333 12.999 -37
c9.33301 -16.667 22.333 -31.667 39 -45l59 -52l-70 -86l-12 13v-183zM475.003 781.998c-13.333 56 -36.333 84 -69 84c-14 0 -36 -10 -66 -30l-78 -54h213z" />
    <glyph glyph-name="ttehmedialarabic" unicode="&#x679;" horiz-adv-x="575" arabic-form="medial" 
d="M260 776l66.002 43c47.333 31.333 84.666 47 111.999 47c37.333 0 66.666 -14.333 87.999 -43c36 -47.333 54 -86 54 -116c0 -11.333 -13 -38 -39 -80l-23 -37h-416l-98 94h119l47 35v305c-13.333 12 -20 22.333 -20 31c0 9.33301 9.33301 25 28 47l55 63
c0 -12 4.16699 -24.833 12.5 -38.5s20.833 -28.167 37.5 -43.5l59 -51l-70 -86l-12 10v-180zM350.002 449l74 -256h156v-193h-250l-21 63l-53 -63h-281v193h297l-43 139zM479.002 684c-13.333 57.333 -36.333 86 -69 86c-12.667 0 -34.667 -11 -66 -33l-78 -53h213z" />
    <glyph glyph-name="vehfinalarabic" unicode="&#x6a4;" horiz-adv-x="1602" arabic-form="final" 
d="M1008 0l-717 2.00098c-57.333 2.66699 -99 11.667 -125 27c-62.667 38 -94 100.667 -94 188c0 104 34 206.333 102 307c-13.333 -54.667 -20 -102.334 -20 -143.001c0 -83.333 25.667 -139.333 77 -168c24.667 -13.333 78.667 -20 162 -20h473
c-2.66699 5.33301 -4 12.666 -4 21.999c0 30 20 73.667 60 131c128 186 231.667 279 311 279c40.667 0 75.667 -18.167 105 -54.5s44 -81.166 44 -134.499c0 -72 -28 -153 -84 -243h310v-193h-465l-76 47zM1386 860.001l-102 -90l-78 72l-82 -72l-125 119l101 88l76 -70
l86 70zM1276 1094l-100 -90l-127 116l100 94zM1239 270.001c6.66699 20.667 10.001 43.333 10.001 68c0 70.667 -21.667 106 -65 106c-24.667 0 -54.834 -17.333 -90.501 -52s-60.834 -67.667 -75.501 -99l92 -72c10.667 -8 18.334 -12 23.001 -12
c2.66699 1.33301 8.66699 4 18 8z" />
    <glyph glyph-name="vehinitialarabic" unicode="&#x6a4;" horiz-adv-x="760" arabic-form="initial" 
d="M616 0h-641.001v193h617c2.66699 24 4 51 4 81c0 15.333 -0.666992 28.333 -2 39l-53 -67h-119c-48 0 -80.667 1.33301 -98 4c-28.667 4 -52 19.333 -70 46s-27 57.667 -27 93c0 62.667 20 127 60 193c62.667 102 126 153 190 153c20.667 0 38.334 -4.66699 53.001 -14
c50.667 -32.667 92 -84.5 124 -155.5s48 -146.167 48 -225.5c0 -74 -26.333 -182 -79 -324zM626.999 981l-103 -90l-78 72l-84 -72l-124 121l102 88l76 -72l84 72zM515.999 1217l-100 -91l-127 117l100 92zM579.999 424c-3.33301 42 -16.1689 79.5 -38.502 112.5
s-47.166 49.5 -74.499 49.5c-23.333 0 -46.666 -11.667 -69.999 -35s-35 -47.333 -35 -72c0 -36.667 33 -55 99 -55h119z" />
    <glyph glyph-name="vehmedialarabic" unicode="&#x6a4;" horiz-adv-x="987" arabic-form="medial" 
d="M393 0h-418.001v193h277c-2.66699 5.33301 -4 12 -4 20c0 31.333 19.667 75.666 59 132.999c128.667 186 232.334 279 311.001 279c41.333 0 76.333 -18.167 105 -54.5s43 -81.166 43 -134.499c0 -72 -27.333 -153 -82 -243h309v-193h-465l-75 47zM736.999 860l-102 -90
l-80 72l-82 -72l-125 119l103 88l75 -70l84 70zM626.999 1094l-101 -90l-129 116l103 94zM624.999 270c6.66699 20.667 10 43.334 10 68.001c0 70.667 -22 106 -66 106c-24.667 0 -54.667 -17.333 -90 -52s-60.666 -67.667 -75.999 -99l93 -72c10.667 -8 18 -12 22 -12
c1.33301 1.33301 4.66602 2.66602 9.99902 3.99902l9 4z" />
    <glyph glyph-name="tchehfinalarabic" unicode="&#x686;" horiz-adv-x="1249" arabic-form="final" 
d="M344 61l102 91l78 -72l84 72l123 -119l-100 -90l-76 71l-84 -71zM455 -174l100 90l127 -117l-100 -92zM735 430l-4.00098 -0.000976562c-147.333 -28.667 -273.166 -91.5 -377.499 -188.5s-156.5 -200.167 -156.5 -309.5c0 -100.667 45.333 -182.167 136 -244.5
s208.334 -93.5 353.001 -93.5c112 0 218.667 13 320 39c-66 -52.667 -113.333 -95.667 -142 -129c-17.333 -20 -30.833 -34.833 -40.5 -44.5s-19.167 -17.167 -28.5 -22.5c-34.667 -19.333 -105.667 -29 -213 -29c-132.667 0 -238.667 23.333 -318 70
c-58.667 35.333 -105.334 85.833 -140.001 151.5s-52 137.834 -52 216.501c0 226.667 109.667 427.667 329 603l5 4h-7l-26 8c-34 6.66699 -67 10 -99 10c-65.333 0 -126 -13.667 -182 -41l51 113c31.333 68 80 102 146 102c20 0 47.333 -1.33301 82 -4l102 -8
c120 -10 234 -15 342 -15c86 0 160.333 4.33301 223 13l-98 -180l-57 -2l-27 -3h-6l68 -176c13.333 -35.333 25.833 -57 37.5 -65s36.5 -12 74.5 -12h225v-193h-272c-56 0 -96.333 10.5 -121 31.5s-43.667 61.167 -57 120.5l-10 45z" />
    <glyph glyph-name="tchehinitialarabic" unicode="&#x686;" horiz-adv-x="1122" arabic-form="initial" 
d="M387 -223l102 92l80 -72l82 72l125 -121l-102 -88l-76 72l-84 -72zM498 -457l100 90l127 -116l-100 -92zM1108 315l-103.998 -164.999c-60.667 12 -111.334 18 -152.001 18c-113.333 0 -209.666 -37 -288.999 -111c-24.667 -22.667 -42.334 -36.5 -53.001 -41.5
s-31 -7.5 -61 -7.5h-474v193h541c30 24.667 62 43 96 55c-60 48 -122.667 88.333 -188 121s-118 49 -158 49c-6.66699 0 -19.667 -2 -39 -6l64 63c47.333 48 91.666 72 132.999 72c31.333 0 76.333 -15.667 135 -47c124 -66.667 236.667 -117.334 338 -152.001
c57.333 -20 120 -33 188 -39z" />
    <glyph glyph-name="tchehmedialarabic" unicode="&#x686;" horiz-adv-x="1311" arabic-form="medial" 
d="M373 -229l102 90l80 -72l82 72l125 -119l-103 -88l-75 70l-84 -70zM483 -463l101 90l127 -116l-101 -95zM1108 307l-58.998 -91.999l-23 2c4 -16 21 -24 51 -24h240v-193h-270c-49.333 0 -84.333 4 -105 12c-32.667 14 -55.334 47 -68.001 99
c0 5.33301 -1.33301 11.333 -4 18l-8 31h-4c-117.333 0 -215.666 -37 -294.999 -111c-24.667 -23.333 -42.334 -37.333 -53.001 -42s-31 -7 -61 -7h-474v193h541c30 24 62 42.333 96 55c-60 49.333 -122.667 90 -188 122s-118 48 -158 48c-6.66699 0 -19.667 -2 -39 -6
l64 63c47.333 48 91.666 72 132.999 72c30 0 75 -15.667 135 -47c144.667 -76.667 257.334 -127.334 338.001 -152.001c75.333 -23.333 145.666 -37 210.999 -41z" />
    <glyph glyph-name="ddalfinalarabic" unicode="&#x688;" horiz-adv-x="913" arabic-form="final" 
d="M371 981l65 43c48 31.333 86.333 47 115 47c36.667 0 66 -14.333 88 -43c34 -44.667 51 -83.667 51 -117c0 -13.333 -12.333 -40 -37 -80l-22 -36h-416l-98 94h119l47 35v305c-14 12 -21 22.333 -21 31c0 8 9.66699 23.667 29 47l53 63
c1.33301 -16 5.33301 -28.333 12 -37c8.66699 -14.667 21.667 -29.667 39 -45l60 -51l-70 -86l-14 10v-180zM590 889c-14 57.333 -37.333 86 -70 86c-12 0 -33.667 -11 -65 -33l-76 -53h211zM918 193v-192.999h-285l-35 66l-47 -66h-361c-50 0 -84 4.66699 -102 14
c-26 14 -39 39.333 -39 76c0 27.333 8.33301 63.666 25 108.999l26 61c8.66699 -27.333 21.5 -45.333 38.5 -54s47.833 -13 92.5 -13h295l-174 303l86 147l262 -450h218z" />
    <glyph glyph-name="jehfinalarabic" unicode="&#x698;" horiz-adv-x="618" arabic-form="final" 
d="M442 666l-102 -91l-80 72l-82 -72l-125 121l103 88l75 -71l84 71zM330 901l-99 -90l-129 117l103 92zM393 193l230.001 -0.00195312v-193h-232c-23.333 -102.667 -66 -195.167 -128 -277.5s-121 -123.5 -177 -123.5c-50.667 0 -110.667 45 -180 135l-35 45
c-2.66699 2.66699 -7.33398 9.33398 -14.001 20.001c46 -20 92.333 -30 139 -30c61.333 0 120.333 25.167 177 75.5s102.667 117.833 138 202.5c-12 39.333 -30.333 81 -55 125c-20.667 36.667 -46 74.334 -76 113.001l109 127c52 -70 86.667 -143 104 -219z" />
    <glyph glyph-name="rrehfinalarabic" unicode="&#x691;" horiz-adv-x="618" arabic-form="final" 
d="M393 193l230.001 -0.00195312v-193h-232c-23.333 -102.667 -66 -195.167 -128 -277.5s-121 -123.5 -177 -123.5c-50.667 0 -110.667 45 -180 135l-35 45c-2.66699 2.66699 -7.33398 9.33398 -14.001 20.001c46 -20 92.333 -30 139 -30c61.333 0 120.333 25.167 177 75.5
s102.667 117.833 138 202.5c-12 39.333 -30.333 81 -55 125c-20.667 36.667 -46 74.334 -76 113.001l109 127c52 -70 86.667 -143 104 -219zM256.001 757.998l66.0029 44.999c21.333 14.667 41.666 26.167 60.999 34.5s36.333 12.5 51 12.5c35.333 0 64.666 -15 87.999 -45
c35.333 -45.333 53 -83.666 53 -114.999c0 -12 -7.33301 -30.333 -22 -55l-16 -27l-23 -35h-416l-98 95h119l47 34v304c-14 12 -21 22.667 -21 32c0 10 9.66699 25.667 29 47l53 62c1.33301 -14 5.66602 -26.333 12.999 -37c9.33301 -16.667 22.333 -31.667 39 -45l59 -51
l-70 -86l-12 12v-182zM475.004 667.997c-14.667 56 -37.667 84 -69 84c-14 0 -36 -10.333 -66 -31l-78 -53h213z" />
    <glyph glyph-name="kehekfinal" unicode="&#x6a9;" horiz-adv-x="1626" arabic-form="final" 
d="M1276 59l-27 -59.002l-1005 2c-22 0 -47.333 8.33301 -76 25c-64 36.667 -96 101.334 -96 194.001c0 102.667 34 204.334 102 305.001c-13.333 -44.667 -20 -93 -20 -145c0 -83.333 25.667 -139.333 77 -168c26 -13.333 79.333 -20 160 -20h723l-301 204l-29 -41l-104 68
c-23.333 14.667 -35 31.667 -35 51c0 9.33301 4.66699 26.333 14 51l13 31l55 121l684 203l-78 -174l-465 -150l418 -283c30 -20 45 -43.667 45 -71v-10h301v-193h-291z" />
    <glyph glyph-name="kehehinitial" unicode="&#x6a9;" horiz-adv-x="1073" arabic-form="initial" 
d="M1001 881l-77 -174l-465 -150l420 -283c30 -18.667 45 -41.667 45 -69c0 -8 -4.33301 -22.333 -13 -43l-12 -31l-59 -131h-865v193h730l-302 204l-28 -41l-103 68c-24 16.667 -36 33.667 -36 51c0 14 4.66699 31 14 51l14 31l55 121z" />
    <glyph glyph-name="kehehmedial" unicode="&#x6a9;" horiz-adv-x="1210" arabic-form="medial" 
d="M868 63l-28 -63h-865v193h730l-302 204l-28 -41l-103 68c-24 16.667 -36 33.667 -36 51c0 14 4.66699 31 14 51l14 31l55 121l682 203l-77 -174l-465 -150l420 -283c30 -18.667 45 -41.667 45 -69c0 -5.33301 -0.666992 -9.33301 -2 -12h295v-193h-277z" />
    <glyph glyph-name="gaffinalarabic" unicode="&#x6af;" horiz-adv-x="1626" arabic-form="final" 
d="M1276 59l-27 -59.002l-1005 2c-22 0 -47.333 8.33301 -76 25c-64 36.667 -96 101.334 -96 194.001c0 102.667 34 204.334 102 305.001c-13.333 -44.667 -20 -93 -20 -145c0 -83.333 25.667 -139.333 77 -168c26 -13.333 79.333 -20 160 -20h723l-301 204l-29 -41l-104 68
c-23.333 14.667 -35 31.667 -35 51c0 9.33301 4.66699 26.333 14 51l13 31l55 121l684 203l-78 -174l-465 -150l418 -283c30 -20 45 -43.667 45 -71v-10h301v-193h-291zM1528 1139l-78 -172l-692 -205l76 176z" />
    <glyph glyph-name="gafinitialarabic" unicode="&#x6af;" horiz-adv-x="1073" arabic-form="initial" 
d="M1001 881l-77 -174l-465 -150l420 -283c30 -18.667 45 -41.667 45 -69c0 -8 -4.33301 -22.333 -13 -43l-12 -31l-59 -131h-865v193h730l-302 204l-28 -41l-103 68c-24 16.667 -36 33.667 -36 51c0 14 4.66699 31 14 51l14 31l55 121zM1118 1139l-76 -172l-694 -205
l78 176z" />
    <glyph glyph-name="gafmedialarabic" unicode="&#x6af;" horiz-adv-x="1210" arabic-form="medial" 
d="M868 63l-28 -63h-865v193h730l-302 204l-28 -41l-103 68c-24 16.667 -36 33.667 -36 51c0 14 4.66699 31 14 51l14 31l55 121l682 203l-77 -174l-465 -150l420 -283c30 -18.667 45 -41.667 45 -69c0 -5.33301 -0.666992 -9.33301 -2 -12h295v-193h-277zM1118 1139
l-76 -172l-694 -205l78 176z" />
    <glyph glyph-name="noonghunnafinalarabic" unicode="&#x6ba;" horiz-adv-x="1004" arabic-form="final" 
d="M780 193h230.001v-193h-224c-5.33301 -36.667 -31 -121.334 -77 -254.001c-135.333 -91.333 -262.333 -137 -381 -137c-80.667 0 -148.334 28 -203.001 84s-82 125.667 -82 209c0 69.333 20.333 162.666 61 279.999c14 38.667 34 87.334 60 146.001
c-24.667 -117.333 -37 -209.666 -37 -276.999c0 -79.333 19.5 -141.833 58.5 -187.5s92.5 -68.5 160.5 -68.5c50.667 0 108 14 172 42s118.667 62 164 102c-4 76 -14.333 142.667 -31 200c-14.667 53.333 -46 116.333 -94 189l111 131c53.333 -76.667 90 -164 110 -262z" />
    <glyph glyph-name="hehwithyehabovefinal" unicode="&#x6c0;" horiz-adv-x="926" arabic-form="final" 
d="M598 709l104 -516h228v-193h-344l-25 115l-61 -88l-443 65l70 213c4 11.333 9.5 25.5 16.5 42.5s26.167 33.5 57.5 49.5l270 148l-10 45zM494 438l-228 -125c-22 -12 -35.667 -29 -41 -51l314 -47zM580 940l-37.001 -94c-97.333 -14 -176.666 -55 -237.999 -123
c6.66699 46.667 26.667 89 60 127c-50.667 10.667 -76 40 -76 88c0 38 21 82.333 63 133c34 41.333 80.667 62 140 62c34 0 51 -11.667 51 -35c0 -18 -9 -41.333 -27 -70c-16 5.33301 -31 8 -45 8c-52 0 -93.667 -19.667 -125 -59c40 -36.667 90 -55 150 -55
c20 0 48 6 84 18z" />
    <glyph glyph-name="hehfinalaltonearabic" unicode="&#x6c1;" horiz-adv-x="926" arabic-form="final" 
d="M598 709l104 -516h228v-193h-344l-25 115l-61 -88l-443 65l70 213c4 11.333 9.5 25.5 16.5 42.5s26.167 33.5 57.5 49.5l270 148l-10 45zM494 438l-228 -125c-22 -12 -35.667 -29 -41 -51l314 -47z" />
    <glyph glyph-name="hehinitialaltonearabic" unicode="&#x6c1;" horiz-adv-x="485" arabic-form="initial" 
d="M262 0l-74.001 -113c-20 -31.333 -30 -53 -30 -65c0 -38.667 43.667 -73.667 131 -105l-86 -133c-131.333 62.667 -197 118.667 -197 168c0 20.667 14.333 53.334 43 98.001l96 150h-170v193h328c-1.33301 77.333 -26.666 149.666 -75.999 216.999l107 145
c62.667 -75.333 94 -154 94 -236c0 -47.333 -14.333 -111.333 -43 -192c-8 -24.667 -24.333 -67 -49 -127h-74z" />
    <glyph glyph-name="hehmedialaltonearabic" unicode="&#x6c1;" horiz-adv-x="883" arabic-form="medial" 
d="M887 193v-193.001h-144c-31.333 0 -52 -2 -62 -6s-24.667 -18.333 -44 -43c-5.33301 -8 -16.333 -22.333 -33 -43l-442 -570c-19.333 -24 -31 -36 -35 -36c-6.66699 0 -10 4 -10 12c1.33301 8 2 12.667 2 14l10 62l104 645c-12 -16.667 -20.333 -26 -25 -28
s-22.667 -3.66699 -54 -5l-39 -2h-140v193h320c48 0 82.167 6 102.5 18s41.5 39.333 63.5 82l-115 -477l154 270c20 36.667 36.833 62.834 50.5 78.501s38.5 24.167 74.5 25.5l37 3h225z" />
    <glyph glyph-name="yehbarreefinalarabic" unicode="&#x6d2;" horiz-adv-x="1278" arabic-form="final" 
d="M1282 193l-0.000976562 -192.999h-956c-46.667 0 -76.167 -5.5 -88.5 -16.5s-27.166 -38.167 -44.499 -81.5h923c50.667 0 97.667 4 141 12l-112 -121c-30 -32.667 -56.333 -54.834 -79 -66.501s-81 -17.5 -175 -17.5h-877l84 252c24.667 74 48 124.667 70 152
c14.667 17.333 33.667 33 57 47c32.667 18.667 93 28.667 181 30l96 3h780z" />
    <glyph glyph-name="farsiyehfinal" unicode="&#x6cc;" horiz-adv-x="1149" arabic-form="final" 
d="M1153 193l-0.00195312 -192.999h-248l-14 -31l-55 -119c-30 -60 -54.667 -107.667 -74 -143c-154.667 -113.333 -300 -170 -436 -170c-83.333 0 -151.333 28.667 -204 86s-79 131 -79 221c0 96 39.667 229.333 119 400c-24.667 -98.667 -37 -180 -37 -244
c0 -180 77.667 -270 233 -270c46.667 0 99.334 11.833 158.001 35.5s109.334 54.167 152.001 91.5c20 17.333 42.333 41.666 67 72.999c-64 49.333 -154.667 74 -272 74h-14l83 189h621z" />
    <glyph glyph-name="farsiyehinitial" unicode="&#x6cc;" horiz-adv-x="485" arabic-form="initial" 
d="M-25 193l327.999 0.000976562c-1.33301 77.333 -26.666 149.666 -75.999 216.999l107 145c62.667 -74 94 -152.667 94 -236c0 -50 -14.333 -114 -43 -192c-8 -24.667 -24.333 -67 -49 -127h-361v193zM58.999 -253.999l105 90l78 -72l82 72l125 -119l-101 -88l-78 72
l-84 -72z" />
    <glyph glyph-name="farsiyehmedial" unicode="&#x6cc;" horiz-adv-x="651" arabic-form="medial" 
d="M365 449l73 -256h219v-193h-313l-20 63l-54 -63h-295v193h312l-41 139zM129 -258l102 90l80 -72l82 72l125 -119l-102 -88l-76 70l-84 -70z" />
    <glyph glyph-name="alefmaddaabovefinalarabic" unicode="&#x622;" horiz-adv-x="487" arabic-form="final" 
d="M-92 1200l52.9961 64c46.667 54.667 83.667 82 111 82c18.667 0 56.334 -13.667 113.001 -41s94 -41 112 -41c14.667 0 36.334 7.33301 65.001 22l64 37l-76 -84c-38 -36.667 -70 -55 -96 -55c-23.333 0 -61.666 13.333 -114.999 40s-86.666 40 -99.999 40
c-9.33301 0 -53 -21.333 -131 -64zM493.996 0h-312c-16 -0 -33 3.83301 -51 11.5s-27.667 27.834 -29 60.501l-2 39v825l156 164v-826c0 -32.667 2.66699 -54.334 8 -65.001s27.333 -16 66 -16h164v-193z" />
    <glyph glyph-name="alefhamzaabovefinalarabic" unicode="&#x623;" horiz-adv-x="487" arabic-form="final" 
d="M256 1208l-37.001 -93.999c-36.667 -5.33301 -72.667 -15 -108 -29c-49.333 -18.667 -92.333 -50.667 -129 -96c6.66699 49.333 26.334 92.333 59.001 129c-50.667 11.333 -76 40.666 -76 87.999c0 38.667 21.333 83 64 133c34 41.333 80.333 62 139 62
c34 0 51 -12.333 51 -37c0 -18 -8.66699 -40.667 -26 -68c-18 6 -34 9 -48 9c-50 0 -90.667 -20 -122 -60c39.333 -36.667 89 -55 149 -55c19.333 0 47.333 6 84 18zM493.999 0.000976562h-312c-16 0 -33 3.83301 -51 11.5s-27.667 27.834 -29 60.501l-2 39v825l156 164
v-826c0 -32.667 2.66699 -54.334 8 -65.001s27.333 -16 66 -16h164v-193z" />
    <glyph glyph-name="wawhamzaabovefinalarabic" unicode="&#x624;" horiz-adv-x="774" arabic-form="final" 
d="M408 801l-37 -94.001c-100 -14 -179.333 -55 -238 -123c9.33301 50 30 92.333 62 127c-52 10.667 -78 40.667 -78 90c0 36.667 18.333 76.334 55 119.001c44 48.667 93 73 147 73c34.667 0 52 -11.667 52 -35c0 -20 -9 -43 -27 -69c-16.667 5.33301 -31.667 8 -45 8
c-50.667 0 -91.667 -19.667 -123 -59c40 -36 89.333 -54 148 -54c22.667 0 50.667 5.66699 84 17zM549 192.999h230.999v-193h-239c-11.333 -61.333 -34 -124 -68 -188c-75.333 -143.333 -151 -215 -227 -215c-53.333 0 -130 64.667 -230 194c49.333 -18 93 -27 131 -27
c62 0 118.833 21.167 170.5 63.5s91.167 99.833 118.5 172.5h-139c-49.333 0 -82.666 1.33301 -99.999 4c-36 5.33301 -65.833 22 -89.5 50s-35.5 60.667 -35.5 98c0 56 15 117 45 183s68 123.667 114 173c27.333 28.667 58.333 43 93 43c48.667 0 95.5 -35.5 140.5 -106.5
s73.167 -154.833 84.5 -251.5zM421.999 192.999c-15.333 125.333 -53 188 -113 188c-26 0 -50.167 -13.667 -72.5 -41s-33.5 -56 -33.5 -86c0 -40.667 25.333 -61 76 -61h143z" />
    <glyph glyph-name="alefhamzabelowfinalarabic" unicode="&#x625;" horiz-adv-x="487" arabic-form="final" 
d="M258 -369l-37.0029 -93.999c-43.333 -8 -78.666 -17.667 -105.999 -29c-49.333 -20 -92.333 -52 -129 -96c6.66699 50.667 26.334 93.667 59.001 129c-50.667 11.333 -76 40.666 -76 87.999c0 38.667 21.333 83 64 133c34 41.333 79.667 62 137 62
c35.333 0 53 -12.333 53 -37c0 -18 -8.66699 -41.333 -26 -70c-14 6 -29.667 9 -47 9c-52 0 -93 -19.333 -123 -58c36.667 -36.667 86.334 -55 149.001 -55c22 0 49.333 6 82 18zM493.997 0.000976562h-312c-16 0 -33 3.83301 -51 11.5s-27.667 27.834 -29 60.501l-2 39v825
l156 164v-826c0 -32.667 2.66699 -54.334 8 -65.001s27.333 -16 66 -16h164v-193z" />
    <glyph glyph-name="yehhamzaabovefinalarabic" unicode="&#x626;" horiz-adv-x="1149" arabic-form="final" 
d="M270 520l-37.002 -96.001c-98 -12 -176.333 -53 -235 -123c6.66699 50.667 26.334 93 59.001 127c-50 12 -75 42 -75 90c0 38 21 82.333 63 133c32.667 40 78.334 60 137.001 60c34 0 51 -11.667 51 -35c0 -19.333 -8 -42.666 -24 -69.999c-14 5.33301 -29.667 8 -47 8
c-52 0 -93 -19 -123 -57c39.333 -36.667 88.333 -55 147 -55c20.667 0 48.667 6 84 18zM1153 192.999l-0.00195312 -192.999h-248l-14 -31l-55 -119c-30 -60 -54.667 -107.667 -74 -143c-154.667 -113.333 -300 -170 -436 -170c-83.333 0 -151.333 28.667 -204 86
s-79 131 -79 221c0 96 39.667 229.333 119 400c-24.667 -98.667 -37 -180 -37 -244c0 -180 77.667 -270 233 -270c46.667 0 99.334 11.833 158.001 35.5s109.334 54.167 152.001 91.5c20 17.333 42.333 41.666 67 72.999c-64 49.333 -154.667 74 -272 74h-14l83 189h621z
" />
    <glyph glyph-name="yehhamzaaboveinitialarabic" unicode="&#x626;" horiz-adv-x="485" arabic-form="initial" 
d="M-25 193h328c-4 78.667 -29.333 151 -76 217l107 145c62.667 -75.333 94 -154 94 -236c0 -50 -14.333 -114 -43 -192c-8 -24.667 -24.333 -67 -49 -127h-361v193zM424 842l-37.001 -94c-98 -14 -176.333 -55 -235 -123c6.66699 47.333 26.334 89.666 59.001 126.999
c-50.667 10.667 -76 40.667 -76 90c0 36.667 21.333 80.334 64 131.001c34 40.667 79.667 61 137 61c35.333 0 53 -11.667 53 -35c0 -18.667 -9 -41.667 -27 -69c-17.333 5.33301 -33 8 -47 8c-50 0 -90.667 -19.667 -122 -59c39.333 -36 88.333 -54 147 -54
c24.667 0 52.667 5.66699 84 17z" />
    <glyph glyph-name="yehhamzaabovemedialarabic" unicode="&#x626;" horiz-adv-x="651" arabic-form="medial" 
d="M365 449l73 -256h219v-193h-313l-20 63l-54 -63h-295v193h312l-41 139zM455 735l-34.999 -94c-100 -12 -179.333 -53 -238 -123c7.33301 50.667 27.333 93 60 127c-50.667 12.667 -76 42.667 -76 90c0 38.667 21 83 63 133c33.333 40 79.333 60 138 60
c35.333 0 53 -11.667 53 -35c0 -18 -9 -41.333 -27 -70c-13.333 5.33301 -29 8 -47 8c-52 0 -93 -19.667 -123 -59c40 -35.333 90 -53 150 -53c23.333 0 50.666 5.33301 81.999 16z" />
    <glyph glyph-name="aleffinalarabic" unicode="&#x627;" horiz-adv-x="487" arabic-form="final" 
d="M494 0h-312c-16 -0 -33 3.83301 -51 11.5s-27.667 27.834 -29 60.501l-2 39v825l156 164v-826c0 -32.667 2.66699 -54.334 8 -65.001s27.333 -16 66 -16h164v-193z" />
    <glyph glyph-name="behfinalarabic" unicode="&#x628;" horiz-adv-x="1368" arabic-form="final" 
d="M1108 449l74 -256.002h219v-193h-314l-20 63l-53 -63l-770 2c-22 0 -47.333 8.33301 -76 25c-64 36.667 -96 101.334 -96 194.001c0 102.667 34 204.334 102 305.001c-13.333 -44.667 -20 -93 -20 -145c0 -83.333 25.667 -139.333 77 -168c26 -13.333 79.333 -20 160 -20
h639l-43 139zM528 -250.002l99 90l129 -116l-103 -95z" />
    <glyph glyph-name="behinitialarabic" unicode="&#x628;" horiz-adv-x="485" arabic-form="initial" 
d="M-25 193l327.999 0.000976562c-1.33301 77.333 -26.666 149.666 -75.999 216.999l107 145c62.667 -75.333 94 -154 94 -236c0 -47.333 -14.333 -111.333 -43 -192c-8 -24.667 -24.333 -67 -49 -127h-361v193zM159.999 -249.999l100 90l127 -116l-100 -95z" />
    <glyph glyph-name="behmedialarabic" unicode="&#x628;" horiz-adv-x="651" arabic-form="medial" 
d="M365 449l73 -256h219v-193h-313l-20 63l-54 -63h-295v193h312l-41 139zM215 -256l100 90l127 -117l-100 -92z" />
    <glyph glyph-name="tehmarbutafinalarabic" unicode="&#x629;" horiz-adv-x="926" arabic-form="final" 
d="M598 709l104 -516h228v-193h-344l-25 115l-61 -88l-443 65l70 213c4 11.333 9.5 25.5 16.5 42.5s26.167 33.5 57.5 49.5l270 148l-10 45zM709 905l-103 -90l-80 72l-82 -72l-125 119l103 88l76 -72l84 72zM494 438l-228 -125c-22 -12 -35.667 -29 -41 -51l314 -47z" />
    <glyph glyph-name="tehfinalarabic" unicode="&#x62a;" horiz-adv-x="1395" arabic-form="final" 
d="M1108 449l74 -256.002h219v-193h-314l-20 63l-53 -63l-770 2c-22 0 -47.333 8.33301 -76 25c-64 36.667 -96 101.334 -96 194.001c0 102.667 34 204.334 102 305.001c-13.333 -44.667 -20 -93 -20 -145c0 -83.333 25.667 -139.333 77 -168c26 -13.333 79.333 -20 160 -20
h639l-43 139zM799 591.998l-103 -90l-78 71l-83 -71l-123 119l100 88l76 -72l84 72z" />
    <glyph glyph-name="tehinitialarabic" unicode="&#x62a;" horiz-adv-x="487" arabic-form="initial" 
d="M-25 193l327.999 0.000976562c-1.33301 77.333 -26.666 149.666 -75.999 216.999l107 145c62.667 -75.333 94 -154 94 -236c0 -47.333 -14.333 -111.333 -43 -192c-8 -24.667 -24.333 -67 -49 -127h-361v193zM429.999 776.001l-102 -90l-80 72l-82 -72l-125 119l102 88
l76 -70l84 70z" />
    <glyph glyph-name="tehmedialarabic" unicode="&#x62a;" horiz-adv-x="651" arabic-form="medial" 
d="M365 449l73 -256h219v-193h-313l-20 63l-54 -63h-295v193h312l-41 139zM492 680l-105 -90l-78 72l-82 -72l-125 119l101 90l78 -72l84 72z" />
    <glyph glyph-name="thehfinalarabic" unicode="&#x62b;" horiz-adv-x="1395" arabic-form="final" 
d="M1108 449l74 -256.002h219v-193h-314l-20 63l-53 -63l-770 2c-22 0 -47.333 8.33301 -76 25c-64 36.667 -96 101.334 -96 194.001c0 102.667 34 204.334 102 305.001c-13.333 -44.667 -20 -93 -20 -145c0 -83.333 25.667 -139.333 77 -168c26 -13.333 79.333 -20 160 -20
h639l-43 139zM799 591.998l-103 -90l-78 71l-83 -71l-123 119l100 88l76 -72l84 72zM688 824.998l-100 -90l-127 117l100 94z" />
    <glyph glyph-name="thehinitialarabic" unicode="&#x62b;" horiz-adv-x="487" arabic-form="initial" 
d="M-25 193l327.999 0.000976562c-1.33301 77.333 -26.666 149.666 -75.999 216.999l107 145c62.667 -75.333 94 -154 94 -236c0 -47.333 -14.333 -111.333 -43 -192c-8 -24.667 -24.333 -67 -49 -127h-361v193zM429.999 776.001l-102 -90l-80 72l-82 -72l-125 119l102 88
l76 -70l84 70zM318.999 1010l-100 -88l-127 114l101 94z" />
    <glyph glyph-name="thehmedialarabic" unicode="&#x62b;" horiz-adv-x="651" arabic-form="medial" 
d="M365 449l73 -256h219v-193h-313l-20 63l-54 -63h-295v193h312l-41 139zM492 680l-105 -90l-78 72l-82 -72l-125 119l101 90l78 -72l84 72zM379 915l-98 -90l-129 117l100 92z" />
    <glyph glyph-name="jeemfinalarabic" unicode="&#x62c;" horiz-adv-x="1249" arabic-form="final" 
d="M659 -14l-98 -90l-129 116l103 92zM735 430l-4.00098 -0.000976562c-147.333 -28.667 -273.166 -91.5 -377.499 -188.5s-156.5 -200.167 -156.5 -309.5c0 -100.667 45.333 -182.167 136 -244.5s208.334 -93.5 353.001 -93.5c112 0 218.667 13 320 39
c-66 -52.667 -113.333 -95.667 -142 -129c-17.333 -20 -30.833 -34.833 -40.5 -44.5s-19.167 -17.167 -28.5 -22.5c-34.667 -19.333 -105.667 -29 -213 -29c-132.667 0 -238.667 23.333 -318 70c-58.667 35.333 -105.334 85.833 -140.001 151.5s-52 137.834 -52 216.501
c0 226.667 109.667 427.667 329 603l5 4h-7l-26 8c-34 6.66699 -67 10 -99 10c-65.333 0 -126 -13.667 -182 -41l51 113c31.333 68 80 102 146 102c20 0 47.333 -1.33301 82 -4l102 -8c120 -10 234 -15 342 -15c86 0 160.333 4.33301 223 13l-98 -180l-57 -2l-27 -3h-6
l68 -176c13.333 -35.333 25.833 -57 37.5 -65s36.5 -12 74.5 -12h225v-193h-272c-56 0 -96.333 10.5 -121 31.5s-43.667 61.167 -57 120.5l-10 45z" />
    <glyph glyph-name="jeeminitialarabic" unicode="&#x62c;" horiz-adv-x="1122" arabic-form="initial" 
d="M471 -227l100 90l127 -117l-100 -94zM1108 307l-103.998 -166c-60.667 12.667 -111.334 19 -152.001 19c-113.333 0 -209.666 -37 -288.999 -111c-24.667 -23.333 -42.334 -37.333 -53.001 -42s-31 -7 -61 -7h-474v193h541c30 24 62 42.333 96 55
c-60 49.333 -122.667 90 -188 122s-118 48 -158 48c-6.66699 0 -19.667 -2 -39 -6l64 63c47.333 48 91.666 72 132.999 72c31.333 0 76.333 -15.667 135 -47c124 -67.333 236.667 -118 338 -152c57.333 -19.333 120 -32.333 188 -39z" />
    <glyph glyph-name="jeemmedialarabic" unicode="&#x62c;" horiz-adv-x="1311" arabic-form="medial" 
d="M471 -227l100 90l127 -117l-100 -94zM1108 307l-58.998 -91.999l-23 2c4 -16 21 -24 51 -24h240v-193h-270c-49.333 0 -84.333 4 -105 12c-32.667 14 -55.334 47 -68.001 99c0 5.33301 -1.33301 11.333 -4 18l-8 31h-4c-117.333 0 -215.666 -37 -294.999 -111
c-24.667 -23.333 -42.334 -37.333 -53.001 -42s-31 -7 -61 -7h-474v193h541c30 24 62 42.333 96 55c-60 49.333 -122.667 90 -188 122s-118 48 -158 48c-6.66699 0 -19.667 -2 -39 -6l64 63c47.333 48 91.666 72 132.999 72c30 0 75 -15.667 135 -47
c144.667 -76.667 257.334 -127.334 338.001 -152.001c75.333 -23.333 145.666 -37 210.999 -41z" />
    <glyph glyph-name="hahfinalarabic" unicode="&#x62d;" horiz-adv-x="1249" arabic-form="final" 
d="M735 430l-4.00098 -0.000976562c-147.333 -28.667 -273.166 -91.5 -377.499 -188.5s-156.5 -200.167 -156.5 -309.5c0 -100.667 45.333 -182.167 136 -244.5s208.334 -93.5 353.001 -93.5c112 0 218.667 13 320 39c-66 -52.667 -113.333 -95.667 -142 -129
c-17.333 -20 -30.833 -34.833 -40.5 -44.5s-19.167 -17.167 -28.5 -22.5c-34.667 -19.333 -105.667 -29 -213 -29c-132.667 0 -238.667 23.333 -318 70c-58.667 35.333 -105.334 85.833 -140.001 151.5s-52 137.834 -52 216.501c0 226.667 109.667 427.667 329 603l5 4h-7
l-26 8c-34 6.66699 -67 10 -99 10c-65.333 0 -126 -13.667 -182 -41l51 113c31.333 68 80 102 146 102c20 0 47.333 -1.33301 82 -4l102 -8c120 -10 234 -15 342 -15c86 0 160.333 4.33301 223 13l-98 -180l-57 -2l-27 -3h-6l68 -176c13.333 -35.333 25.833 -57 37.5 -65
s36.5 -12 74.5 -12h225v-193h-272c-56 0 -96.333 10.5 -121 31.5s-43.667 61.167 -57 120.5l-10 45z" />
    <glyph glyph-name="hahinitialarabic" unicode="&#x62d;" horiz-adv-x="1122" arabic-form="initial" 
d="M1108 307l-103.998 -166c-60.667 12.667 -111.334 19 -152.001 19c-113.333 0 -209.666 -37 -288.999 -111c-24.667 -23.333 -42.334 -37.333 -53.001 -42s-31 -7 -61 -7h-474v193h541c30 24 62 42.333 96 55c-60 49.333 -122.667 90 -188 122s-118 48 -158 48
c-6.66699 0 -19.667 -2 -39 -6l64 63c47.333 48 91.666 72 132.999 72c31.333 0 76.333 -15.667 135 -47c124 -67.333 236.667 -118 338 -152c57.333 -19.333 120 -32.333 188 -39z" />
    <glyph glyph-name="hahmedialarabic" unicode="&#x62d;" horiz-adv-x="1311" arabic-form="medial" 
d="M1108 307l-58.998 -91.999l-23 2c4 -16 21 -24 51 -24h240v-193h-270c-49.333 0 -84.333 4 -105 12c-32.667 14 -55.334 47 -68.001 99c0 5.33301 -1.33301 11.333 -4 18l-8 31h-4c-117.333 0 -215.666 -37 -294.999 -111c-24.667 -23.333 -42.334 -37.333 -53.001 -42
s-31 -7 -61 -7h-474v193h541c30 24 62 42.333 96 55c-60 49.333 -122.667 90 -188 122s-118 48 -158 48c-6.66699 0 -19.667 -2 -39 -6l64 63c47.333 48 91.666 72 132.999 72c30 0 75 -15.667 135 -47c144.667 -76.667 257.334 -127.334 338.001 -152.001
c75.333 -23.333 145.666 -37 210.999 -41z" />
    <glyph glyph-name="khahfinalarabic" unicode="&#x62e;" horiz-adv-x="1249" arabic-form="final" 
d="M664 877l-101 -89l-127 117l101 92zM735 430l-4.00098 -0.000976562c-147.333 -28.667 -273.166 -91.5 -377.499 -188.5s-156.5 -200.167 -156.5 -309.5c0 -100.667 45.333 -182.167 136 -244.5s208.334 -93.5 353.001 -93.5c112 0 218.667 13 320 39
c-66 -52.667 -113.333 -95.667 -142 -129c-17.333 -20 -30.833 -34.833 -40.5 -44.5s-19.167 -17.167 -28.5 -22.5c-34.667 -19.333 -105.667 -29 -213 -29c-132.667 0 -238.667 23.333 -318 70c-58.667 35.333 -105.334 85.833 -140.001 151.5s-52 137.834 -52 216.501
c0 226.667 109.667 427.667 329 603l5 4h-7l-26 8c-34 6.66699 -67 10 -99 10c-65.333 0 -126 -13.667 -182 -41l51 113c31.333 68 80 102 146 102c20 0 47.333 -1.33301 82 -4l102 -8c120 -10 234 -15 342 -15c86 0 160.333 4.33301 223 13l-98 -180l-57 -2l-27 -3h-6
l68 -176c13.333 -35.333 25.833 -57 37.5 -65s36.5 -12 74.5 -12h225v-193h-272c-56 0 -96.333 10.5 -121 31.5s-43.667 61.167 -57 120.5l-10 45z" />
    <glyph glyph-name="khahinitialarabic" unicode="&#x62e;" horiz-adv-x="1122" arabic-form="initial" 
d="M729 745l-100 -88l-127 115l100 94zM1108 307l-103.998 -166c-60.667 12.667 -111.334 19 -152.001 19c-113.333 0 -209.666 -37 -288.999 -111c-24.667 -23.333 -42.334 -37.333 -53.001 -42s-31 -7 -61 -7h-474v193h541c30 24 62 42.333 96 55
c-60 49.333 -122.667 90 -188 122s-118 48 -158 48c-6.66699 0 -19.667 -2 -39 -6l64 63c47.333 48 91.666 72 132.999 72c31.333 0 76.333 -15.667 135 -47c124 -67.333 236.667 -118 338 -152c57.333 -19.333 120 -32.333 188 -39z" />
    <glyph glyph-name="khahmedialarabic" unicode="&#x62e;" horiz-adv-x="1311" arabic-form="medial" 
d="M727 745l-100 -88l-127 115l100 94zM1108 307l-58.998 -91.999l-23 2c4 -16 21 -24 51 -24h240v-193h-270c-49.333 0 -84.333 4 -105 12c-32.667 14 -55.334 47 -68.001 99c0 5.33301 -1.33301 11.333 -4 18l-8 31h-4c-117.333 0 -215.666 -37 -294.999 -111
c-24.667 -23.333 -42.334 -37.333 -53.001 -42s-31 -7 -61 -7h-474v193h541c30 24 62 42.333 96 55c-60 49.333 -122.667 90 -188 122s-118 48 -158 48c-6.66699 0 -19.667 -2 -39 -6l64 63c47.333 48 91.666 72 132.999 72c30 0 75 -15.667 135 -47
c144.667 -76.667 257.334 -127.334 338.001 -152.001c75.333 -23.333 145.666 -37 210.999 -41z" />
    <glyph glyph-name="dalfinalarabic" unicode="&#x62f;" horiz-adv-x="913" arabic-form="final" 
d="M918 193v-192.999h-285l-35 66l-47 -66h-361c-50 0 -84 4.66699 -102 14c-26 14 -39 39.333 -39 76c0 27.333 8.33301 63.666 25 108.999l26 61c8.66699 -27.333 21.5 -45.333 38.5 -54s47.833 -13 92.5 -13h295l-174 303l86 147l262 -450h218z" />
    <glyph glyph-name="thalfinalarabic" unicode="&#x630;" horiz-adv-x="913" arabic-form="final" 
d="M524 903l-98 -90l-129 117l102 92zM918 193v-192.999h-285l-35 66l-47 -66h-361c-50 0 -84 4.66699 -102 14c-26 14 -39 39.333 -39 76c0 27.333 8.33301 63.666 25 108.999l26 61c8.66699 -27.333 21.5 -45.333 38.5 -54s47.833 -13 92.5 -13h295l-174 303l86 147
l262 -450h218z" />
    <glyph glyph-name="rehfinalarabic" unicode="&#x631;" horiz-adv-x="618" arabic-form="final" 
d="M393 193l230.001 -0.00195312v-193h-232c-23.333 -102.667 -66 -195.167 -128 -277.5s-121 -123.5 -177 -123.5c-50.667 0 -110.667 45 -180 135l-35 45c-2.66699 2.66699 -7.33398 9.33398 -14.001 20.001c46 -20 92.333 -30 139 -30c61.333 0 120.333 25.167 177 75.5
s102.667 117.833 138 202.5c-12 39.333 -30.333 81 -55 125c-20.667 36.667 -46 74.334 -76 113.001l109 127c52 -70 86.667 -143 104 -219z" />
    <glyph glyph-name="zainfinalarabic" unicode="&#x632;" horiz-adv-x="618" arabic-form="final" 
d="M324 645l-99 -90l-129 117l103 94zM393 193l230.001 -0.00195312v-193h-232c-23.333 -102.667 -66 -195.167 -128 -277.5s-121 -123.5 -177 -123.5c-50.667 0 -110.667 45 -180 135l-35 45c-2.66699 2.66699 -7.33398 9.33398 -14.001 20.001c46 -20 92.333 -30 139 -30
c61.333 0 120.333 25.167 177 75.5s102.667 117.833 138 202.5c-12 39.333 -30.333 81 -55 125c-20.667 36.667 -46 74.334 -76 113.001l109 127c52 -70 86.667 -143 104 -219z" />
    <glyph glyph-name="seenfinalarabic" unicode="&#x633;" horiz-adv-x="1755" arabic-form="final" 
d="M1524 193h237.002v-193h-241l-43 74l-33 -74h-283l-31 74l-57 -74h-287v-4l-71 -227l-13 -25c-132 -90 -256.667 -135 -374 -135c-80.667 0 -148.334 28.333 -203.001 85s-82 127.334 -82 212.001c0 69.333 20.333 162.666 61 279.999c19.333 56 40 104 62 144l-8 -33
c-20.667 -82 -31 -159 -31 -231c0 -179.333 71.667 -269 215 -269c56 0 116 13.667 180 41s118 61.666 162 102.999c-2.66699 80 -14.334 148.667 -35.001 206c-17.333 50.667 -47.333 112.334 -90 185.001l109 127c32.667 -49.333 57.667 -97.333 75 -144
c15.333 -39.333 27.666 -80 36.999 -122h295l-102 229l98 127l166 -356h182c-1.33301 76 -26.666 148.333 -75.999 217l107 145c62.667 -74 94 -151 94 -231c0 -41.333 -6.66699 -85 -20 -131z" />
    <glyph glyph-name="seeninitialarabic" unicode="&#x633;" horiz-adv-x="1503" arabic-form="initial" 
d="M961 0h-361l-31 74l-59 -74h-535v193h539l-102 229l96 127l168 -356h287l-103 229l98 127l166 -356h183v8c0 8 -2.33301 23.667 -7 47c-9.33301 57.333 -32.333 111.333 -69 162l106 145c63.333 -75.333 95 -155.333 95 -240c0 -65.333 -31 -170.333 -93 -315h-290
l-31 74z" />
    <glyph glyph-name="seenmedialarabic" unicode="&#x633;" horiz-adv-x="1640" arabic-form="medial" 
d="M1411 193l236 -0.000976562v-193h-240l-43 74l-35 -74h-280l-31 74l-57 -74h-361l-31 74l-59 -74h-535v193h539l-102 229l96 127l168 -356h287l-103 229l98 127l166 -356h183v8c0 8 -2.33301 23.667 -7 47c-9.33301 56 -32.333 110 -69 162l106 145
c63.333 -74 95 -153.333 95 -238c0 -31.333 -7 -72.666 -21 -123.999z" />
    <glyph glyph-name="sheenfinalarabic" unicode="&#x634;" horiz-adv-x="1755" arabic-form="final" 
d="M1221 780l-103 -90l-78 72l-84 -72l-122 119l100 88l76 -70l84 70zM1110 1014l-100 -88l-127 114l100 95zM1524 193h237.002v-193h-241l-43 74l-33 -74h-283l-31 74l-57 -74h-287v-4l-71 -227l-13 -25c-132 -90 -256.667 -135 -374 -135
c-80.667 0 -148.334 28.333 -203.001 85s-82 127.334 -82 212.001c0 69.333 20.333 162.666 61 279.999c19.333 56 40 104 62 144l-8 -33c-20.667 -82 -31 -159 -31 -231c0 -179.333 71.667 -269 215 -269c56 0 116 13.667 180 41s118 61.666 162 102.999
c-2.66699 80 -14.334 148.667 -35.001 206c-17.333 50.667 -47.333 112.334 -90 185.001l109 127c32.667 -49.333 57.667 -97.333 75 -144c15.333 -39.333 27.666 -80 36.999 -122h295l-102 229l98 127l166 -356h182c-1.33301 76 -26.666 148.333 -75.999 217l107 145
c62.667 -74 94 -151 94 -231c0 -41.333 -6.66699 -85 -20 -131z" />
    <glyph glyph-name="sheeninitialarabic" unicode="&#x634;" horiz-adv-x="1503" arabic-form="initial" 
d="M1108 780l-102 -90l-78 72l-84 -72l-123 119l100 88l76 -70l84 70zM997 1014l-100 -88l-127 114l100 95zM961 0h-361l-31 74l-59 -74h-535v193h539l-102 229l96 127l168 -356h287l-103 229l98 127l166 -356h183v8c0 8 -2.33301 23.667 -7 47
c-9.33301 57.333 -32.333 111.333 -69 162l106 145c63.333 -75.333 95 -155.333 95 -240c0 -65.333 -31 -170.333 -93 -315h-290l-31 74z" />
    <glyph glyph-name="sheenmedialarabic" unicode="&#x634;" horiz-adv-x="1640" arabic-form="medial" 
d="M1108 780l-102 -90l-78 72l-84 -72l-123 119l100 88l76 -70l84 70zM997 1014l-100 -88l-127 114l100 95zM1411 193l236 -0.000976562v-193h-240l-43 74l-35 -74h-280l-31 74l-57 -74h-361l-31 74l-59 -74h-535v193h539l-102 229l96 127l168 -356h287l-103 229l98 127
l166 -356h183v8c0 8 -2.33301 23.667 -7 47c-9.33301 56 -32.333 110 -69 162l106 145c63.333 -74 95 -153.333 95 -238c0 -31.333 -7 -72.666 -21 -123.999z" />
    <glyph glyph-name="sadfinalarabic" unicode="&#x635;" horiz-adv-x="1993" arabic-form="final" 
d="M786 0l-0.00195312 -7.99902c-17.333 -88.667 -45.333 -171.334 -84 -248.001c-132 -90 -256.667 -135 -374 -135c-82 0 -150 28.667 -204 86s-81 128.333 -81 213c0 70.667 20.333 163.334 61 278.001c20.667 58.667 41.334 106.667 62.001 144l-8 -33
c-20.667 -82 -31 -160 -31 -234c0 -177.333 71.667 -266 215 -266c54.667 0 114.334 13.667 179.001 41s119 61.666 163 102.999v8c1.33301 9.33301 2 20.333 2 33c0 25.333 -4 56 -12 92c-18 80.667 -56.333 166.667 -115 258l109 127c53.333 -78 91.333 -166.667 114 -266
l420 268c24.667 16 57.334 35.667 98.001 59c76.667 46.667 135 70 175 70c57.333 0 120.666 -35 189.999 -105c61.333 -61.333 92 -132.333 92 -213c0 -24 -4 -50.333 -12 -79h254v-193h-1213zM1649 193.001c-18 68 -51.168 126.5 -99.501 175.5s-97.833 73.5 -148.5 73.5
c-11.333 0 -21.666 -1.33301 -30.999 -4c-22 -6.66699 -66.333 -29.667 -133 -69l-92 -56l-58 -37l-135 -83h697z" />
    <glyph glyph-name="sadinitialarabic" unicode="&#x635;" horiz-adv-x="1452" arabic-form="initial" 
d="M1325 0h-993.001l-19 66l-59 -66h-279v193h304l-37 129l123 112l71 -241l420 268c24.667 16 57.334 35.667 98.001 59c76.667 46.667 134.667 70 174 70c57.333 0 121 -35 191 -105c61.333 -61.333 92 -132.333 92 -213c0 -31.333 -24 -110.333 -72 -237l-6 -17z
M1303 193c-18 68 -51.334 126.5 -100.001 175.5s-98 73.5 -148 73.5c-11.333 0 -21.666 -1.33301 -30.999 -4c-22 -6.66699 -66.333 -29.667 -133 -69l-92 -56l-58 -37l-135 -83h697z" />
    <glyph glyph-name="sadmedialarabic" unicode="&#x635;" horiz-adv-x="1647" arabic-form="medial" 
d="M436 193l420 268l96 59c75.333 46.667 134 70 176 70c57.333 0 120.333 -35 189 -105c61.333 -62.667 92 -133.667 92 -213c0 -30 -3.33301 -56.333 -10 -79h252v-193h-1319l-19 66l-57 -66h-281v193h304l-37 129l125 112zM1300 193c-16 68 -48.334 126.5 -97.001 175.5
s-98.667 73.5 -150 73.5c-7.33301 0 -17.666 -1.33301 -30.999 -4c-26 -8 -70.333 -31 -133 -69l-283 -176h694z" />
    <glyph glyph-name="dadfinalarabic" unicode="&#x636;" horiz-adv-x="1993" arabic-form="final" 
d="M1231 717l-101 -90l-129 116l103 93zM786 0l-0.00195312 -7.99902c-17.333 -88.667 -45.333 -171.334 -84 -248.001c-132 -90 -256.667 -135 -374 -135c-82 0 -150 28.667 -204 86s-81 128.333 -81 213c0 70.667 20.333 163.334 61 278.001
c20.667 58.667 41.334 106.667 62.001 144l-8 -33c-20.667 -82 -31 -160 -31 -234c0 -177.333 71.667 -266 215 -266c54.667 0 114.334 13.667 179.001 41s119 61.666 163 102.999v8c1.33301 9.33301 2 20.333 2 33c0 25.333 -4 56 -12 92
c-18 80.667 -56.333 166.667 -115 258l109 127c53.333 -78 91.333 -166.667 114 -266l420 268c24.667 16 57.334 35.667 98.001 59c76.667 46.667 135 70 175 70c57.333 0 120.666 -35 189.999 -105c61.333 -61.333 92 -132.333 92 -213c0 -24 -4 -50.333 -12 -79h254v-193
h-1213zM1649 193.001c-18 68 -51.168 126.5 -99.501 175.5s-97.833 73.5 -148.5 73.5c-11.333 0 -21.666 -1.33301 -30.999 -4c-22 -6.66699 -66.333 -29.667 -133 -69l-92 -56l-58 -37l-135 -83h697z" />
    <glyph glyph-name="dadinitialarabic" unicode="&#x636;" horiz-adv-x="1452" arabic-form="initial" 
d="M891 717l-100 -90l-127 116l100 93zM1325 0h-993.001l-19 66l-59 -66h-279v193h304l-37 129l123 112l71 -241l420 268c24.667 16 57.334 35.667 98.001 59c76.667 46.667 134.667 70 174 70c57.333 0 121 -35 191 -105c61.333 -61.333 92 -132.333 92 -213
c0 -31.333 -24 -110.333 -72 -237l-6 -17zM1303 193c-18 68 -51.334 126.5 -100.001 175.5s-98 73.5 -148 73.5c-11.333 0 -21.666 -1.33301 -30.999 -4c-22 -6.66699 -66.333 -29.667 -133 -69l-92 -56l-58 -37l-135 -83h697z" />
    <glyph glyph-name="dadmedialarabic" unicode="&#x636;" horiz-adv-x="1647" arabic-form="medial" 
d="M895 717l-98 -90l-129 116l102 93zM436 193l420 268l96 59c75.333 46.667 134 70 176 70c57.333 0 120.333 -35 189 -105c61.333 -62.667 92 -133.667 92 -213c0 -30 -3.33301 -56.333 -10 -79h252v-193h-1319l-19 66l-57 -66h-281v193h304l-37 129l125 112zM1300 193
c-16 68 -48.334 126.5 -97.001 175.5s-98.667 73.5 -150 73.5c-7.33301 0 -17.666 -1.33301 -30.999 -4c-26 -8 -70.333 -31 -133 -69l-283 -176h694z" />
    <glyph glyph-name="tahfinalarabic" unicode="&#x637;" horiz-adv-x="1544" arabic-form="final" 
d="M1303 193l245 0.000976562v-193h-1409l-125 193h320l102 63l-55 623c-32.667 13.333 -49 29 -49 47c0 13.333 7.33301 31.666 22 54.999l82 127c2.66699 -31.333 9.16699 -52.166 19.5 -62.499s38.833 -25.833 85.5 -46.5l94 -41l-66 -151l-39 14l21 -270
c1.33301 -18 2 -39.333 2 -64c0 -62.667 -11 -120.667 -33 -174l109 68c73.333 48 170.333 107.333 291 178c40.667 20.667 74.667 31 102 31c30 0 64 -11 102 -33c54.667 -31.333 101.5 -74.333 140.5 -129s58.5 -105.334 58.5 -152.001c0 -24 -6.66699 -51.667 -20 -83z
M1198 193.001c-14.667 66.667 -46.6689 124.833 -96.002 174.5s-98.666 74.5 -147.999 74.5c-9.33301 0 -20.666 -1.33301 -33.999 -4c-49.333 -16 -122 -55.667 -218 -119l-65 -43l-133 -83h694z" />
    <glyph glyph-name="tahinitialarabic" unicode="&#x637;" horiz-adv-x="1255" arabic-form="initial" 
d="M-25 0l-0.00195312 193h248l103 63l-54 623c-34 10.667 -51 26.334 -51 47.001c0 10.667 8.33301 29 25 55l80 127c2.66699 -31.333 9 -52.166 19 -62.499s38.333 -25.833 85 -46.5l94 -41l-65 -151l-39 14l20 -270c1.33301 -18 2 -39.333 2 -64
c0 -62.667 -10.667 -120.667 -32 -174l108 68l70 45l106 68c101.333 64 174.333 96 219 96c28.667 0 62.334 -11 101.001 -33c54.667 -31.333 101.334 -74.333 140.001 -129s58 -104.334 58 -149.001c0 -30.667 -22.333 -98.334 -67 -203.001l-33 -76h-1137zM1090 193
c-18 68 -51.168 126.5 -99.501 175.5s-97.166 73.5 -146.499 73.5c-44 0 -128 -41 -252 -123l-66 -43l-133 -83h697z" />
    <glyph glyph-name="tahmedialarabic" unicode="&#x637;" horiz-adv-x="1430" arabic-form="medial" 
d="M1190 193h243.999v-193h-1459v193h246l101 63l-54 623c-32.667 10.667 -49 26.334 -49 47.001c0 13.333 7.66699 31.666 23 54.999l82 127c1.33301 -31.333 7.33301 -52.166 18 -62.499s39.334 -25.833 86.001 -46.5l94 -41l-65 -151l-41 14l22 -270
c1.33301 -16.667 2 -38 2 -64c0 -62.667 -10.667 -120.667 -32 -174l108 68l70 45l106 68c101.333 64 173.666 96 216.999 96c30 0 64.333 -11 103 -33c54.667 -31.333 101.334 -74.333 140.001 -129s58 -105.334 58 -152.001c0 -21.333 -6.66699 -49 -20 -83zM1085 193
c-16 66.667 -48.333 124.833 -97 174.5s-97.334 74.5 -146.001 74.5c-10 0 -21.667 -1.33301 -35 -4c-49.333 -16 -121.666 -55.667 -216.999 -119l-66 -43l-135 -83h696z" />
    <glyph glyph-name="zahfinalarabic" unicode="&#x638;" horiz-adv-x="1544" arabic-form="final" 
d="M987 801l-100 -88l-127 116l100 93zM1303 193l245 0.000976562v-193h-1409l-125 193h320l102 63l-55 623c-32.667 13.333 -49 29 -49 47c0 13.333 7.33301 31.666 22 54.999l82 127c2.66699 -31.333 9.16699 -52.166 19.5 -62.499s38.833 -25.833 85.5 -46.5l94 -41
l-66 -151l-39 14l21 -270c1.33301 -18 2 -39.333 2 -64c0 -62.667 -11 -120.667 -33 -174l109 68c73.333 48 170.333 107.333 291 178c40.667 20.667 74.667 31 102 31c30 0 64 -11 102 -33c54.667 -31.333 101.5 -74.333 140.5 -129s58.5 -105.334 58.5 -152.001
c0 -24 -6.66699 -51.667 -20 -83zM1198 193.001c-14.667 66.667 -46.6689 124.833 -96.002 174.5s-98.666 74.5 -147.999 74.5c-9.33301 0 -20.666 -1.33301 -33.999 -4c-49.333 -16 -122 -55.667 -218 -119l-65 -43l-133 -83h694z" />
    <glyph glyph-name="zahinitialarabic" unicode="&#x638;" horiz-adv-x="1255" arabic-form="initial" 
d="M874 801l-98 -88l-129 116l103 93zM-25 0l-0.00195312 193h248l103 63l-54 623c-34 10.667 -51 26.334 -51 47.001c0 10.667 8.33301 29 25 55l80 127c2.66699 -31.333 9 -52.166 19 -62.499s38.333 -25.833 85 -46.5l94 -41l-65 -151l-39 14l20 -270
c1.33301 -18 2 -39.333 2 -64c0 -62.667 -10.667 -120.667 -32 -174l108 68l70 45l106 68c101.333 64 174.333 96 219 96c28.667 0 62.334 -11 101.001 -33c54.667 -31.333 101.334 -74.333 140.001 -129s58 -104.334 58 -149.001c0 -30.667 -22.333 -98.334 -67 -203.001
l-33 -76h-1137zM1090 193c-18 68 -51.168 126.5 -99.501 175.5s-97.166 73.5 -146.499 73.5c-44 0 -128 -41 -252 -123l-66 -43l-133 -83h697z" />
    <glyph glyph-name="zahmedialarabic" unicode="&#x638;" horiz-adv-x="1430" arabic-form="medial" 
d="M872 801l-100 -88l-127 116l100 93zM1190 193h243.999v-193h-1459v193h246l101 63l-54 623c-32.667 10.667 -49 26.334 -49 47.001c0 13.333 7.66699 31.666 23 54.999l82 127c1.33301 -31.333 7.33301 -52.166 18 -62.499s39.334 -25.833 86.001 -46.5l94 -41l-65 -151
l-41 14l22 -270c1.33301 -16.667 2 -38 2 -64c0 -62.667 -10.667 -120.667 -32 -174l108 68l70 45l106 68c101.333 64 173.666 96 216.999 96c30 0 64.333 -11 103 -33c54.667 -31.333 101.334 -74.333 140.001 -129s58 -105.334 58 -152.001
c0 -21.333 -6.66699 -49 -20 -83zM1085 193c-16 66.667 -48.333 124.833 -97 174.5s-97.334 74.5 -146.001 74.5c-10 0 -21.667 -1.33301 -35 -4c-49.333 -16 -121.666 -55.667 -216.999 -119l-66 -43l-135 -83h696z" />
    <glyph glyph-name="ainfinalarabic" unicode="&#x639;" horiz-adv-x="918" arabic-form="final" 
d="M922 193l-0.000976562 -192.999h-473l-46 98l-12 -8c-132 -70.667 -198 -152.667 -198 -246c0 -73.333 44.333 -137.333 133 -192c77.333 -48 185 -72 323 -72c104 0 218.667 13.667 344 41c-9.33301 -9.33301 -23 -20.333 -41 -33c-8 -6.66699 -25 -23.667 -51 -51
l-29.5 -32.5l-33.5 -36.5c-15.333 -18 -32.666 -29.667 -51.999 -35c-62.667 -20.667 -139.667 -31 -231 -31c-154 0 -273 32.833 -357 98.5s-126 158.5 -126 278.5c0 173.333 89.333 330.333 268 471c-48 105.333 -121.667 162.666 -221 171.999l92 192
c10.667 4.66699 25 9.66699 43 15c61.333 20 135 30 221 30c147.333 0 221 -53 221 -159c0 -74 -51 -171 -153 -291l4 -16h375zM503.999 352.001c28.667 34 43 60.667 43 80c0 27.333 -20.667 41 -62 41c-10.667 0 -34.334 -2.66699 -71.001 -8
c26 -14 45.833 -30.5 59.5 -49.5s23.834 -40.167 30.501 -63.5z" />
    <glyph glyph-name="aininitialarabic" unicode="&#x639;" horiz-adv-x="952" arabic-form="initial" 
d="M909 193l-69 -193h-865v193h293c-24.667 38 -37 76.667 -37 116c0 46.667 15 96 45 148c76.667 133.333 165 200 265 200c56 0 109 -26.333 159 -79c34.667 -36 62.667 -85.333 84 -148c-72 49.333 -137.333 74 -196 74c-100 0 -186.667 -55.333 -260 -166l10 -10l84 -84
c24.667 -22 48.667 -39 72 -51h415z" />
    <glyph glyph-name="ainmedialarabic" unicode="&#x639;" horiz-adv-x="1020" arabic-form="medial" 
d="M1024 193v-193h-481l-31 66l-55 -66h-482v193h482c-34 144.667 -111.333 221 -232 229l92 199c104 28.667 193.667 43 269 43c140.667 0 211 -55.333 211 -166c0 -27.333 -4.33301 -52 -13 -74c-18.667 -50.667 -61 -119.667 -127 -207l-18 -24h385zM606 352
c28.667 34 43.001 60.667 43.001 80c0 27.333 -20.333 41 -61 41c-14 0 -37.333 -2.66699 -70 -8c24.667 -14 44.167 -30.5 58.5 -49.5s24.166 -40.167 29.499 -63.5z" />
    <glyph glyph-name="ghainfinalarabic" unicode="&#x63a;" horiz-adv-x="918" arabic-form="final" 
d="M524 918l-100 -91l-127 117l100 94zM922 193l-0.000976562 -192.999h-473l-46 98l-12 -8c-132 -70.667 -198 -152.667 -198 -246c0 -73.333 44.333 -137.333 133 -192c77.333 -48 185 -72 323 -72c104 0 218.667 13.667 344 41c-9.33301 -9.33301 -23 -20.333 -41 -33
c-8 -6.66699 -25 -23.667 -51 -51l-29.5 -32.5l-33.5 -36.5c-15.333 -18 -32.666 -29.667 -51.999 -35c-62.667 -20.667 -139.667 -31 -231 -31c-154 0 -273 32.833 -357 98.5s-126 158.5 -126 278.5c0 173.333 89.333 330.333 268 471
c-48 105.333 -121.667 162.666 -221 171.999l92 192c10.667 4.66699 25 9.66699 43 15c61.333 20 135 30 221 30c147.333 0 221 -53 221 -159c0 -74 -51 -171 -153 -291l4 -16h375zM503.999 352.001c28.667 34 43 60.667 43 80c0 27.333 -20.667 41 -62 41
c-10.667 0 -34.334 -2.66699 -71.001 -8c26 -14 45.833 -30.5 59.5 -49.5s23.834 -40.167 30.501 -63.5z" />
    <glyph glyph-name="ghaininitialarabic" unicode="&#x63a;" horiz-adv-x="952" arabic-form="initial" 
d="M586 913l-99 -90l-129 117l103 92zM909 193l-69 -193h-865v193h293c-24.667 38 -37 76.667 -37 116c0 46.667 15 96 45 148c76.667 133.333 165 200 265 200c56 0 109 -26.333 159 -79c34.667 -36 62.667 -85.333 84 -148c-72 49.333 -137.333 74 -196 74
c-100 0 -186.667 -55.333 -260 -166l10 -10l84 -84c24.667 -22 48.667 -39 72 -51h415z" />
    <glyph glyph-name="ghainmedialarabic" unicode="&#x63a;" horiz-adv-x="1020" arabic-form="medial" 
d="M627 913l-101 -90l-127 117l101 92zM1024 193v-193h-481l-31 66l-55 -66h-482v193h482c-34 144.667 -111.333 221 -232 229l92 199c104 28.667 193.667 43 269 43c140.667 0 211 -55.333 211 -166c0 -27.333 -4.33301 -52 -13 -74
c-18.667 -50.667 -61 -119.667 -127 -207l-18 -24h385zM606 352c28.667 34 43.001 60.667 43.001 80c0 27.333 -20.333 41 -61 41c-14 0 -37.333 -2.66699 -70 -8c24.667 -14 44.167 -30.5 58.5 -49.5s24.166 -40.167 29.499 -63.5z" />
    <glyph glyph-name="fehfinalarabic" unicode="&#x641;" horiz-adv-x="1602" arabic-form="final" 
d="M1008 0l-717 0.000976562c-57.333 4 -99 13.667 -125 29c-62.667 38 -94 100.667 -94 188c0 104 34 206.333 102 307c-13.333 -54.667 -20 -102.334 -20 -143.001c0 -83.333 25.667 -139.333 77 -168c24.667 -13.333 78.667 -20 162 -20h473
c-2.66699 5.33301 -4 12.666 -4 21.999c0 30 20 73.667 60 131c128 186 231.667 279 311 279c40.667 0 75.667 -18.167 105 -54.5s44 -81.166 44 -134.499c0 -72 -28 -153 -84 -243h310v-193h-465l-76 47zM1284 877.001l-98 -89l-129 117l102 92zM1239 270.001
c6.66699 20.667 10.001 43.333 10.001 68c0 70.667 -21.667 106 -65 106c-24.667 0 -54.834 -17.333 -90.501 -52s-60.834 -67.667 -75.501 -99l92 -72c10.667 -8 18.334 -12 23.001 -12c2.66699 1.33301 8.66699 4 18 8z" />
    <glyph glyph-name="fehinitialarabic" unicode="&#x641;" horiz-adv-x="760" arabic-form="initial" 
d="M616 0h-641.001v193h617c2.66699 24 4 51 4 81c0 15.333 -0.666992 28.333 -2 39l-53 -67h-119c-48 0 -80.667 1.33301 -98 4c-28.667 4 -52 19.333 -70 46s-27 57.667 -27 93c0 62.667 20 127 60 193c62.667 102 126 153 190 153c20.667 0 38.334 -4.66699 53.001 -14
c50.667 -32.667 92 -84.5 124 -155.5s48 -146.167 48 -225.5c0 -74 -26.333 -182 -79 -324zM558.999 956l-100 -90l-127 117l100 92zM579.999 424c-3.33301 42 -16.1689 79.5 -38.502 112.5s-47.166 49.5 -74.499 49.5c-23.333 0 -46.666 -11.667 -69.999 -35
s-35 -47.333 -35 -72c0 -36.667 33 -55 99 -55h119z" />
    <glyph glyph-name="fehmedialarabic" unicode="&#x641;" horiz-adv-x="987" arabic-form="medial" 
d="M393 0h-418.001v193h277c-2.66699 5.33301 -4 12 -4 20c0 31.333 19.667 75.666 59 132.999c128.667 186 232.334 279 311.001 279c41.333 0 76.333 -18.167 105 -54.5s43 -81.166 43 -134.499c0 -72 -27.333 -153 -82 -243h309v-193h-465l-75 47zM669.999 877l-99 -89
l-129 117l103 92zM624.999 270c6.66699 20.667 10 43.334 10 68.001c0 70.667 -22 106 -66 106c-24.667 0 -54.667 -17.333 -90 -52s-60.666 -67.667 -75.999 -99l93 -72c10.667 -8 18 -12 22 -12c1.33301 1.33301 4.66602 2.66602 9.99902 3.99902l9 4z" />
    <glyph glyph-name="qaffinalarabic" unicode="&#x642;" horiz-adv-x="1061" arabic-form="final" 
d="M836 0c-11.333 -86 -45.667 -200.67 -103 -344.003c-155.333 -94 -295.333 -141 -420 -141c-80 0 -145 26.833 -195 80.5s-75 123.5 -75 209.5c0 64.667 7.16699 122.834 21.5 174.501s43.5 128.834 87.5 231.501l-9 -33c-17.333 -84.667 -26 -154.334 -26 -209.001
c0 -181.333 73.667 -272 221 -272c105.333 0 223.333 46.333 354 139l4 21c7.33301 32.667 13.666 80.334 18.999 143.001h-125c-52 0 -91.667 2.66699 -119 8c-31.333 6.66699 -58 24 -80 52s-33 60.667 -33 98c0 96.667 39 196.334 117 299.001
c46.667 60 90.334 90 131.001 90c52 0 99.5 -33.167 142.5 -99.5s71.5 -149.833 85.5 -250.5v-4h233v-193h-231zM783.999 787.997l-102 -90l-78 72l-84 -72l-123 119l101 90l75 -71l84 71zM704.999 192.997c-15.333 125.333 -52.999 188 -112.999 188
c-24.667 0 -48.334 -14.333 -71.001 -43s-34 -56 -34 -82c0 -42 33 -63 99 -63h119z" />
    <glyph glyph-name="qafinitialarabic" unicode="&#x642;" horiz-adv-x="760" arabic-form="initial" 
d="M616 0h-641.001v193h617c2.66699 24 4 51 4 81c0 15.333 -0.666992 28.333 -2 39l-53 -67h-119c-48 0 -80.667 1.33301 -98 4c-28.667 4 -52 19.333 -70 46s-27 57.667 -27 93c0 62.667 20 127 60 193c62.667 102 126 153 190 153c20.667 0 38.334 -4.66699 53.001 -14
c50.667 -32.667 92 -84.5 124 -155.5s48 -146.167 48 -225.5c0 -74 -26.333 -182 -79 -324zM638.999 948l-102 -90l-80 72l-82 -72l-125 119l102 88l76 -72l84 72zM579.999 424c-3.33301 42 -16.1689 79.5 -38.502 112.5s-47.166 49.5 -74.499 49.5
c-23.333 0 -46.666 -11.667 -69.999 -35s-35 -47.333 -35 -72c0 -36.667 33 -55 99 -55h119z" />
    <glyph glyph-name="qafmedialarabic" unicode="&#x642;" horiz-adv-x="987" arabic-form="medial" 
d="M393 0l-418 -0.000976562v193h277c-2.66699 5.33301 -4 12 -4 20c0 30 19.667 74.333 59 133c126 186 229.667 279 311 279c41.333 0 76.333 -18.167 105 -54.5s43 -81.166 43 -134.499c0 -73.333 -27.333 -154.333 -82 -243h309v-193h-465l-77 47zM735 861.999l-102 -90
l-80 72l-82 -72l-125 119l103 88l75 -70l84 70zM625 269.999c6.66699 20.667 9.99902 43.333 9.99902 68c0 70.667 -22 106 -66 106c-24.667 0 -54.667 -17.333 -90 -52s-60.666 -67.667 -75.999 -99l93 -72c10.667 -8 18 -12 22 -12c2.66699 1.33301 9 4 19 8z" />
    <glyph glyph-name="kaffinalarabic" unicode="&#x643;" horiz-adv-x="1399" arabic-form="final" 
d="M1167 1100l2.00098 -867.001c0 -26.667 16.667 -40 50 -40h184v-193h-307c-16.667 0 -31 2 -43 6c-20.667 6.66699 -35 24.334 -43 53.001l-37 -59h-651c-40 -0 -71 1.33301 -93 4c-43.333 5.33301 -80.333 27.833 -111 67.5s-46 85.5 -46 137.5c0 68 17 143 51 225
c9.33301 24.667 25.666 54.667 48.999 90l-4 -22c-8 -45.333 -12 -85 -12 -119c0 -80.667 24.333 -136 73 -166c27.333 -16 85.333 -24 174 -24h607v739zM731.001 665.999l-37 -94.999c-96.667 -13.333 -175.667 -54 -237 -122c9.33301 50 29 92 59 126
c-50.667 11.333 -76 41.666 -76 90.999c0 35.333 22 79 66 131c34 40.667 79 61 135 61c35.333 0 53 -11.667 53 -35c0 -18.667 -8.66699 -41.667 -26 -69c-16.667 5.33301 -31.667 8 -45 8c-52 0 -93.667 -20 -125 -60c39.333 -36.667 89 -55 149 -55
c23.333 0 51.333 6.33301 84 19z" />
    <glyph glyph-name="kafinitialarabic" unicode="&#x643;" horiz-adv-x="1057" arabic-form="initial" 
d="M1044 1096l-81 -176.001l-537 -158l424 -467c36.667 -41.333 55 -71.333 55 -90c0 -11.333 -4.66699 -25.666 -14 -42.999l-21 -39l-63 -123h-832v193h750l-334 370l-31 -33l-71 70c-5.33301 5.33301 -13 12.333 -23 21c-13.333 13.333 -20 27 -20 41
c0 10.667 4 25 12 43l10 22l78 174z" />
    <glyph glyph-name="kafmedialarabic" unicode="&#x643;" horiz-adv-x="1196" arabic-form="medial" 
d="M-25 0v193h750l-334 370l-29 -33l-96 91c-13.333 12 -20 25.667 -20 41c0 10.667 4 25 12 43l10 22l78 174l698 195l-81 -176l-537 -158l426 -467c36.667 -41.333 55 -72 55 -92c0 -4 -0.666992 -7.33301 -2 -10h295v-193h-315l-51 59l-37 -59h-822z" />
    <glyph glyph-name="lamfinalarabic" unicode="&#x644;" horiz-adv-x="1055" arabic-form="final" 
d="M807 0l-10 -29l-29 -98c-10.667 -35.333 -27 -75.666 -49 -120.999c-146 -95.333 -276.333 -143 -391 -143c-79.333 0 -146.666 28 -201.999 84s-83 124.333 -83 205c0 110 40.333 253.333 121 430c-24.667 -118.667 -37 -212.334 -37 -281.001
c0 -76.667 19.5 -137.834 58.5 -183.501s91.167 -68.5 156.5 -68.5c54.667 0 113.667 13.333 177 40s117.666 61.334 162.999 104.001l-8 993l160 168v-907h225v-193h-252z" />
    <glyph glyph-name="laminitialarabic" unicode="&#x644;" horiz-adv-x="547" arabic-form="initial" 
d="M512 952l-66 -151l-36 14l34 -506c0 -40.667 -13.667 -102 -41 -184l-2 -6l-30 -88l-13 -31h-383v193h340l-55 679c-34 10 -51 26.667 -51 50c0 9.33301 4.66699 21.333 14 36l15 23l73 123c1.33301 -30 9 -52 23 -66c8 -8 25.667 -18 53 -30z" />
    <glyph glyph-name="lammedialarabic" unicode="&#x644;" horiz-adv-x="608" arabic-form="medial" 
d="M377 1100v-867c0 -26.667 17 -40 51 -40h184v-193h-307c-49.333 0 -78 19.667 -86 59l-43 -59h-201l5 193h239v739z" />
    <glyph glyph-name="meemfinalarabic" unicode="&#x645;" horiz-adv-x="1180" arabic-form="final" 
d="M1186 193l-0.00195312 -193.001h-264l-68 -145l-498 278l13 125c-33.333 -14.667 -63.833 -32.334 -91.5 -53.001l-78.5 -60l28 -360c0 -9.33301 0.666992 -19 2 -29v-18c0 -40 -10.667 -82.333 -32 -127c-18 -38 -32.333 -66 -43 -84l-29 -49l-45 456
c-5.33301 52 -8 83.667 -8 95c0 28.667 14.333 78.334 43 149.001c35.333 88.667 83 152.334 143 191.001c76.667 48.667 200.334 93 371.001 133c80.667 18.667 147.334 28 200.001 28c48 0 80.5 -8.83301 97.5 -26.5s25.5 -52.5 25.5 -104.5v-206h234zM839.998 81.999v203
c0 31.333 -5.16699 52 -15.5 62s-31.833 15 -64.5 15c-100 0 -198.333 -23 -295 -69z" />
    <glyph glyph-name="meeminitialarabic" unicode="&#x645;" horiz-adv-x="911" arabic-form="initial" 
d="M-25 0v193.002h240l152 198c60 79.333 104.333 132.666 133 159.999c34 32.667 70.667 49 110 49c61.333 0 118.666 -46.333 171.999 -139s80 -175.334 80 -248.001c0 -24.667 -9.33301 -56 -28 -94c-11.333 -23.333 -45.666 -87 -102.999 -191l-10 -18l-440 190
l-64 -100h-242zM715 121.002c5.33301 27.333 8 49.668 8 67.001c0 75.333 -20.333 139.666 -61 192.999c-30.667 39.333 -59.667 59 -87 59c-34 0 -90.333 -55.333 -169 -166l-11 -14z" />
    <glyph glyph-name="meemmedialarabic" unicode="&#x645;" horiz-adv-x="1030" arabic-form="medial" 
d="M1034 193v-193h-260l-74 -150l-436 250l-65 -100h-224v193h269c38 110 95.5 195.833 172.5 257.5s166.167 92.5 267.5 92.5c53.333 0 89 -13.667 107 -41c8 -12.667 12 -47 12 -103v-206h231zM692 74l-0.000976562 237c0 45.333 -28 68 -84 68
c-91.333 0 -165.666 -42.333 -222.999 -127z" />
    <glyph glyph-name="noonfinalarabic" unicode="&#x646;" horiz-adv-x="1004" arabic-form="final" 
d="M489 535l-100 -91l-127 117l100 92zM780 193h230.001v-193h-224c-5.33301 -36.667 -31 -121.334 -77 -254.001c-135.333 -91.333 -262.333 -137 -381 -137c-80.667 0 -148.334 28 -203.001 84s-82 125.667 -82 209c0 69.333 20.333 162.666 61 279.999
c14 38.667 34 87.334 60 146.001c-24.667 -117.333 -37 -209.666 -37 -276.999c0 -79.333 19.5 -141.833 58.5 -187.5s92.5 -68.5 160.5 -68.5c50.667 0 108 14 172 42s118.667 62 164 102c-4 76 -14.333 142.667 -31 200c-14.667 53.333 -46 116.333 -94 189l111 131
c53.333 -76.667 90 -164 110 -262z" />
    <glyph glyph-name="nooninitialarabic" unicode="&#x646;" horiz-adv-x="485" arabic-form="initial" 
d="M-25 193l327.999 0.000976562c-1.33301 77.333 -26.666 149.666 -75.999 216.999l107 145c62.667 -75.333 94 -154 94 -236c0 -47.333 -14.333 -111.333 -43 -192c-8 -24.667 -24.333 -67 -49 -127h-361v193zM378.999 776.001l-98 -90l-129 117l102 94z" />
    <glyph glyph-name="noonmedialarabic" unicode="&#x646;" horiz-adv-x="651" arabic-form="medial" 
d="M365 449l73 -256h219v-193h-313l-20 63l-54 -63h-295v193h312l-41 139zM426 686l-100 -90l-127 117l100 92z" />
    <glyph glyph-name="hehfinalarabic" unicode="&#x647;" horiz-adv-x="926" arabic-form="final" 
d="M598 709l104 -516h228v-193h-344l-25 115l-61 -88l-443 65l70 213c4 11.333 9.5 25.5 16.5 42.5s26.167 33.5 57.5 49.5l270 148l-10 45zM494 438l-228 -125c-22 -12 -35.667 -29 -41 -51l314 -47z" />
    <glyph glyph-name="hehinitialarabic" unicode="&#x647;" horiz-adv-x="991" arabic-form="initial" 
d="M487 723c302 -202 453 -348.664 453 -439.997c0 -20.667 -11.667 -58.334 -35 -113.001l-16 -39l-51 -131h-863v193h263c-7.33301 25.333 -11 47.666 -11 66.999c0 91.333 37 169.333 111 234c20.667 17.333 44.667 35 72 53c-16.667 10.667 -25 23 -25 37
c0 13.333 13.667 35.666 41 66.999zM819 193.003c-6.66699 36.667 -19 69.333 -37 98c-26 40.667 -69 83 -129 127c1.33301 -10 2 -19.667 2 -29c0 -68 -15.667 -133.333 -47 -196h211zM543 193.002c8 30 11.999 55.667 11.999 77c0 97.333 -37 146 -111 146
c-30 0 -55.833 -12.333 -77.5 -37s-32.5 -52.667 -32.5 -84c0 -36.667 15 -64.667 45 -84c14.667 -12 49.334 -18 104.001 -18h60z" />
    <glyph glyph-name="hehmedialarabic" unicode="&#x647;" horiz-adv-x="1094" arabic-form="medial" 
d="M1098 193v-192.998h-219c-1.33301 -5.33301 -16.333 -47.666 -45 -126.999l-19 -47c-14.667 -38 -25 -62.667 -31 -74c-17.333 -40.667 -37.666 -71.334 -60.999 -92.001c-68 -61.333 -154.667 -92 -260 -92c-90 0 -161.667 23.833 -215 71.5s-80 112.5 -80 194.5
c0 45.333 10.333 100.666 31 165.999h-224v193h306c12 20 35 55.333 69 106c56 83.333 136 189 240 317l112 140c45.333 -58.667 83.666 -117.334 114.999 -176.001c34 -63.333 51 -115.333 51 -156c0 -46.667 -40 -123.667 -120 -231h350zM399 193.002l129 -0.000976562
c52 0 95 17.667 129 53c48 48.667 72 92.334 72 131.001c0 35.333 -22.333 88 -67 158l-41 -50c-32 -36.667 -79.333 -96.667 -142 -180zM727 -153.999c-27.333 40 -53.335 70.999 -78.002 92.999c-44.667 40.667 -115 61 -211 61h-116
c-19.333 -39.333 -29 -72.666 -29 -99.999c0 -40 20.833 -75 62.5 -105s89.834 -45 144.501 -45c66.667 0 142.334 32 227.001 96z" />
    <glyph glyph-name="wawfinalarabic" unicode="&#x648;" horiz-adv-x="774" arabic-form="final" 
d="M549 193h230.999v-193h-239c-11.333 -61.333 -34 -124 -68 -188c-75.333 -143.333 -151 -215 -227 -215c-53.333 0 -130 64.667 -230 194c49.333 -18 93 -27 131 -27c62 0 118.833 21.167 170.5 63.5s91.167 99.833 118.5 172.5h-139
c-49.333 -0 -82.666 1.33301 -99.999 4c-36 5.33301 -65.833 22 -89.5 50s-35.5 60.667 -35.5 98c0 56 15 117 45 183s68 123.667 114 173c27.333 28.667 58.333 43 93 43c48.667 0 95.5 -35.5 140.5 -106.5s73.167 -154.833 84.5 -251.5zM421.999 193
c-15.333 125.333 -53 188 -113 188c-26 0 -50.167 -13.667 -72.5 -41s-33.5 -56 -33.5 -86c0 -40.667 25.333 -61 76 -61h143z" />
    <glyph glyph-name="alefmaksurafinalarabic" unicode="&#x649;" horiz-adv-x="1149" arabic-form="final" 
d="M1153 193l-0.00195312 -192.999h-248l-14 -31l-55 -119c-30 -60 -54.667 -107.667 -74 -143c-154.667 -113.333 -300 -170 -436 -170c-83.333 0 -151.333 28.667 -204 86s-79 131 -79 221c0 96 39.667 229.333 119 400c-24.667 -98.667 -37 -180 -37 -244
c0 -180 77.667 -270 233 -270c46.667 0 99.334 11.833 158.001 35.5s109.334 54.167 152.001 91.5c20 17.333 42.333 41.666 67 72.999c-64 49.333 -154.667 74 -272 74h-14l83 189h621z" />
    <glyph glyph-name="yehfinalarabic" unicode="&#x64a;" horiz-adv-x="1149" arabic-form="final" 
d="M190 -604l103 90l78 -72l84 72l125 -119l-103 -90l-76 72l-84 -72zM1153 193l-0.00195312 -192.999h-248l-14 -31l-55 -119c-30 -60 -54.667 -107.667 -74 -143c-154.667 -113.333 -300 -166 -436 -158c-83.333 0 -151.333 28.667 -204 86s-79 131.333 -79 222
c0 95.333 39.667 228.333 119 399c-24.667 -98 -37 -179.333 -37 -244c0 -180 77.667 -270 233 -270c46.667 0 99.334 9.83301 158.001 29.5s109.334 48.167 152.001 85.5c20 17.333 42.333 41.666 67 72.999c-64 49.333 -154.667 74 -272 74h-14l83 189h621z" />
    <glyph glyph-name="yehinitialarabic" unicode="&#x64a;" horiz-adv-x="485" arabic-form="initial" 
d="M-25 193l327.999 0.000976562c-1.33301 77.333 -26.666 149.666 -75.999 216.999l107 145c62.667 -74 94 -152.667 94 -236c0 -50 -14.333 -114 -43 -192c-8 -24.667 -24.333 -67 -49 -127h-361v193zM58.999 -253.999l105 90l78 -72l82 72l125 -119l-101 -88l-78 72
l-84 -72z" />
    <glyph glyph-name="yehmedialarabic" unicode="&#x64a;" horiz-adv-x="651" arabic-form="medial" 
d="M365 449l73 -256h219v-193h-313l-20 63l-54 -63h-295v193h312l-41 139zM137 -254l105 90l77 -72l82 72l125 -119l-100 -88l-78 72l-84 -72z" />
    <glyph glyph-name=".notdef" horiz-adv-x="1024" 
d="M129 0v1497h768v-1497h-768zM256 129h512v1241h-512v-1241z" />
    <glyph glyph-name="space" unicode=" " horiz-adv-x="412" 
 />
    <glyph glyph-name="uni0021" unicode="!" horiz-adv-x="492" 
d="M327 649l-39 -373h-117l-43 373v326h199v-326zM320 76c0 -23.333 -7.5 -43.166 -22.5 -59.499s-35.5 -24.5 -61.5 -24.5c-25.333 0 -45.666 8.16699 -60.999 24.5s-23 36.166 -23 59.499c0 24.667 7.66699 44.834 23 60.501s35.666 23.5 60.999 23.5
c26 0 46.5 -7.83301 61.5 -23.5s22.5 -35.834 22.5 -60.501z" />
    <glyph glyph-name="uni0022" unicode="&#x22;" horiz-adv-x="724" 
d="M665 942c0 -45.333 -66.333 -195.332 -199 -449.999h-28c50 132.667 75 241.667 75 327c0 25.333 -28.667 76.666 -86 153.999l164 125c49.333 -61.333 74 -113.333 74 -156zM313 940.001c0 -41.333 -66.333 -191.665 -199 -450.998h-29
c50.667 141.333 76 250.666 76 327.999c0 25.333 -28.667 76.666 -86 153.999l162 125c50.667 -58.667 76 -110.667 76 -156z" />
    <glyph glyph-name="uni0023" unicode="#" horiz-adv-x="689" 
d="M643 440h-164l-39 -188h-96l39 188h-152l-37 -188h-94l37 188h-88v92h107l32 156h-139v92h156l41 189h94l-39 -189h151l37 189h97l-41 -189h98v-92h-117l-28 -156h145v-92zM432 688h-150l-30 -156h149z" />
    <glyph glyph-name="uni0024" unicode="$" horiz-adv-x="725" 
d="M691 260c0 -38 -7.33887 -74.0029 -22.0059 -108.003s-34.667 -63.833 -60 -89.5s-55 -46 -89 -61s-70.333 -22.5 -109 -22.5v-118h-94v121c-169.333 21.333 -263.333 122.333 -282 303l137 25c10.667 -114.667 59 -181.667 145 -201v320l-66 30
c-69.333 32 -121.666 69.333 -156.999 112s-52.666 93.334 -51.999 152.001c0 36.667 7.33301 70.334 22 101.001s34.667 57.334 60 80.001s54.5 40.167 87.5 52.5s68.167 18.5 105.5 18.5v116h94v-116c151.333 -22 234.333 -109.667 249 -263l-131 -23
c-13.333 86.667 -52.666 137.667 -117.999 153v-281l57 -25c40.667 -16.667 75.334 -34.334 104.001 -53.001s51.834 -39 69.501 -61s30.334 -46.167 38.001 -72.5s11.5 -56.166 11.5 -89.499zM316.994 595.997v245c-17.333 0 -33.666 -2.66699 -48.999 -8
s-28.833 -12.833 -40.5 -22.5s-20.834 -21 -27.501 -34s-10 -27.833 -10 -44.5c0 -50.667 30.667 -90.667 92 -120zM543.994 242.997c0 62 -29.667 105.333 -89 130l-44 18v-286c88.667 22.667 133 68.667 133 138z" />
    <glyph glyph-name="uni0025" unicode="%" horiz-adv-x="1012" 
d="M425 786c0 -35.333 -3.83203 -69.002 -11.499 -101.002s-19.334 -60.333 -35.001 -85s-34.834 -44.167 -57.501 -58.5s-49 -21.5 -79 -21.5c-28 0 -53.167 7.16699 -75.5 21.5s-41.166 33.833 -56.499 58.5s-27.166 53 -35.499 85s-12.5 65.667 -12.5 101
c0 39.333 4.66699 75.333 14 108s22 60.834 38 84.501s35 42 57 55s45.667 19.5 71 19.5c28.667 0 54.5 -7 77.5 -21s42.167 -33.167 57.5 -57.5s27.166 -52.666 35.499 -84.999s12.5 -66.833 12.5 -103.5zM767.001 1053l-410 -1057h-115l414 1057h111zM949.001 261.998
c0 -39.333 -4.49609 -75.332 -13.4961 -107.999s-21.5 -60.667 -37.5 -84s-35.167 -41.5 -57.5 -54.5s-46.833 -19.5 -73.5 -19.5c-28.667 0 -54.334 6.83301 -77.001 20.5s-41.834 32.5 -57.501 56.5s-27.667 52.167 -36 84.5s-12.5 67.166 -12.5 104.499
c0 39.333 4.5 75.333 13.5 108s21.5 60.5 37.5 83.5s35.167 40.833 57.5 53.5s47.166 19 74.499 19c26 0 50.167 -6.66699 72.5 -20s41.666 -31.833 57.999 -55.5s29 -51.5 38 -83.5s13.5 -67 13.5 -105zM316.005 785.999c0 116.667 -24.667 175 -74 175
c-48.667 0 -73 -58.333 -73 -175c0 -116 24.333 -174 73 -174c49.333 0 74 58 74 174zM840.005 261.999c0 114.667 -24.333 172 -73 172c-48 0 -72 -57.333 -72 -172c0 -117.333 24 -176 72 -176c48.667 0 73 58.667 73 176z" />
    <glyph glyph-name="uni0026" unicode="&#x26;" horiz-adv-x="1005" 
d="M538 879c-12 32.667 -42 49.0029 -90 49.0029c-68 0 -102 -35 -102 -105c0 -10.667 0.833008 -19.834 2.5 -27.501s4.16699 -14.834 7.5 -21.501s7.5 -13.167 12.5 -19.5s11.167 -13.5 18.5 -21.5c4.66699 -10 19 -27.667 43 -53c36 18 65 39.5 87 64.5
s33 51.833 33 80.5c0 17.333 -4 34.666 -12 51.999v2zM397 121.003c20 1.33301 38 3.99805 54 7.99805s31.5 9.83301 46.5 17.5s30 17.334 45 29.001s31.167 25.5 48.5 41.5l-209 262c-31.333 -20 -56.833 -37.667 -76.5 -53s-35 -30.166 -46 -44.499s-18.5 -29 -22.5 -44
s-6 -31.833 -6 -50.5v-15c0 -20 4.66699 -39.167 14 -57.5s21.5 -34.333 36.5 -48s32.167 -24.667 51.5 -33s39.333 -12.5 60 -12.5h4zM864 489.001c0 -74 -27.998 -156.33 -83.998 -246.997l198 -240h-213l-82 98c-24 -24.667 -46.833 -45.5 -68.5 -62.5
s-44.334 -30.667 -68.001 -41s-49 -17.833 -76 -22.5s-57.833 -7 -92.5 -7c-47.333 0 -89.833 7.66699 -127.5 23s-69.834 36.166 -96.501 62.499s-47.5 57 -62.5 92s-23.167 72.167 -24.5 111.5v16c0 32.667 3.16699 62.5 9.5 89.5s16 51.667 29 74s29.667 43.333 50 63
s44.833 39.167 73.5 58.5l59 41l-37 49c-42 60.667 -63 120.667 -63 180c0 32.667 6.5 63.667 19.5 93s31.333 55 55 77s52 39.5 85 52.5s69.167 19.5 108.5 19.5c36.667 0 70.834 -7.16699 102.501 -21.5s59 -32.833 82 -55.5s41 -48.334 54 -77.001
s19.5 -57.334 19.5 -86.001c0 -48 -11.333 -90.833 -34 -128.5s-56.334 -71.167 -101.001 -100.5l-57 -37l153 -190c20.667 52 31 93.667 31 125v26h158v-35z" />
    <glyph glyph-name="uni0027" unicode="'" horiz-adv-x="261" 
d="M239 914c0 -30.667 -47.667 -139.668 -143 -327.001h-56c19.333 56.667 33.5 105 42.5 145s13.5 72.667 13.5 98c0 16.667 -22 53 -66 109l141 111c45.333 -57.333 68 -102.666 68 -135.999z" />
    <glyph glyph-name="uni0028" unicode="(" horiz-adv-x="427" 
d="M249 -141c-113.333 177.333 -170 351.333 -170 522c0 194.667 54.667 368.667 164 522h112c-76 -149.333 -114 -323.333 -114 -522c0 -180 39.667 -354 119 -522h-111z" />
    <glyph glyph-name="uni0029" unicode=")" horiz-adv-x="438" 
d="M342 381c0 -172.667 -57.333 -346.667 -172 -522h-111c80.667 164 121 338 121 522c0 98.667 -9.16699 191.167 -27.5 277.5s-47.5 167.833 -87.5 244.5h113c109.333 -157.333 164 -331.333 164 -522z" />
    <glyph glyph-name="uni002A" unicode="*" horiz-adv-x="534" 
d="M493 594c-45.333 -18 -90.332 -30.998 -134.999 -38.998c14.667 -15.333 29.5 -31.833 44.5 -49.5s31.5 -35.834 49.5 -54.501l-109 -76l-44.5 64l-35.5 53c-10.667 -23.333 -22.834 -45 -36.501 -65s-26.5 -37.333 -38.5 -52l-103 76c16.667 22.667 32.5 42.667 47.5 60
l40.5 46c-18.667 4 -40 9.16699 -64 15.5l-71 19.5l43 123c28 -11.333 52.333 -20.333 73 -27s38 -13.334 52 -20.001c-1.33301 11.333 -2.33301 22.833 -3 34.5s-1 23.167 -1 34.5v68h129c0 -28 -0.666992 -52.833 -2 -74.5s-3.33301 -42.5 -6 -62.5
c17.333 8 37 16.5 59 25.5s45.333 16.833 70 23.5z" />
    <glyph glyph-name="uni002B" unicode="+" horiz-adv-x="556" 
d="M536 309h-182v-186h-152v186h-184v146h184v186h152v-186h182v-146z" />
    <glyph glyph-name="uni002C" unicode="," horiz-adv-x="371" 
d="M269 74c0 -30.667 -47.667 -139.333 -143 -326h-58c20.667 58 35.5 107 44.5 147s13.5 71.667 13.5 95c0 16 -22 52.667 -66 110l141 109c45.333 -57.333 68 -102.333 68 -135z" />
    <glyph glyph-name="uni002D" unicode="-" horiz-adv-x="614" 
d="M493 307h-375v150h375v-150z" />
    <glyph glyph-name="uni002E" unicode="." horiz-adv-x="358" 
d="M245 76c0 -11.333 -2.16797 -21.998 -6.50098 -31.998s-10.333 -18.833 -18 -26.5s-16.5 -13.834 -26.5 -18.501s-21 -7 -33 -7c-56 0 -84 28 -84 84c0 22 7.83301 41.5 23.5 58.5s35.834 25.5 60.501 25.5c22 0 41.5 -7.83301 58.5 -23.5s25.5 -35.834 25.5 -60.501z
" />
    <glyph glyph-name="uni002F" unicode="/" horiz-adv-x="445" 
d="M439 1020l-295 -1040h-139l295 1040h139z" />
    <glyph glyph-name="uni0030" unicode="0" horiz-adv-x="838" 
d="M419 119c64.667 0 114.667 31.999 150 95.999c5.33301 10.667 10.5 26 15.5 46s9.83301 43 14.5 69c5.33301 30 9.33301 60 12 90s4 60 4 90c0 29.333 -1.33301 59.333 -4 90s-6.66699 61 -12 91c-4.66699 26 -9.5 49 -14.5 69s-10.167 35.333 -15.5 46
c-34.667 64 -84.667 96 -150 96c-64 0 -113.667 -32 -149 -96c-5.33301 -10.667 -10.5 -26 -15.5 -46s-9.83301 -43 -14.5 -69c-5.33301 -30 -9.33301 -60.333 -12 -91s-4 -60.667 -4 -90c0 -30 1.33301 -60 4 -90s6.66699 -60 12 -90
c4.66699 -25.333 9.5 -48.166 14.5 -68.499s10.167 -35.833 15.5 -46.5c18 -30 39.5 -53.5 64.5 -70.5s53.167 -25.5 84.5 -25.5zM419 -33.001c-59.333 0 -111.834 13.668 -157.501 41.001s-83.5 66.666 -113.5 117.999c-25.333 44 -44.833 98.167 -58.5 162.5
s-20.5 138.166 -20.5 221.499c0 168.667 25.667 297.334 77 386.001c62 104.667 153 157 273 157c120.667 0 212 -52.333 274 -157c50.667 -86.667 76 -215.334 76 -386.001c0 -83.333 -6.66699 -157.333 -20 -222s-32.666 -118.667 -57.999 -162
c-30 -51.333 -68 -90.666 -114 -117.999s-98.667 -41 -158 -41z" />
    <glyph glyph-name="uni0031" unicode="1" horiz-adv-x="838" 
d="M612 0h-153.002v721h-233v127c54.667 8.66699 98.334 17.167 131.001 25.5s55.334 17.5 68.001 27.5c24 19.333 48.667 70 74 152h113v-1053z" />
    <glyph glyph-name="uni0032" unicode="2" horiz-adv-x="838" 
d="M82 668c4 256.667 127.997 385.001 371.997 385.001c98.667 0 178.334 -33.333 239.001 -100c57.333 -61.333 86 -133.666 86 -216.999c0 -68 -24.333 -133 -73 -195c-9.33301 -12 -20.333 -24.333 -33 -37s-30 -26.834 -52 -42.501s-50.833 -33.834 -86.5 -54.501
s-81.167 -45 -136.5 -73h1c-14 -7.33301 -29.5 -17.333 -46.5 -30s-33.167 -25.667 -48.5 -39c-21.333 -19.333 -38.666 -38.833 -51.999 -58.5s-21.666 -37.5 -24.999 -53.5h542v-153h-711c4 58.667 10.833 110 20.5 154s22.167 80.333 37.5 109
c40.667 73.333 113.334 139.333 218.001 198l153 86c87.333 50 131 112.333 131 187c0 67.333 -26.667 116 -80 146c-15.333 8.66699 -31.333 15.334 -48 20.001s-33.334 7 -50.001 7h-9c-124 -4.66699 -189.333 -84.334 -196 -239.001h-153z" />
    <glyph glyph-name="uni0033" unicode="3" horiz-adv-x="838" 
d="M213 329c8 -144 64.665 -216.001 169.998 -216.001c84.667 0 147.334 19.667 188.001 59c30 30 45 69.667 45 119v10c0 4 -0.333008 8 -1 12c-4.66699 65.333 -27 108.666 -67 129.999c-31.333 16.667 -102.666 25 -213.999 25v140c98.667 0 162.334 8.66699 191.001 26
c38 18.667 57 62 57 130c0 52.667 -18.333 90.334 -55 113.001c-31.333 20 -67 30 -107 30c-122.667 0 -184 -72 -184 -216h-152c1.33301 117.333 29.5 207 84.5 269s136.167 93 243.5 93c97.333 0 175.333 -24 234 -72c66.667 -55.333 100 -133.666 100 -234.999
c0 -74.667 -36 -141 -108 -199c50 -25.333 85.5 -58.5 106.5 -99.5s31.5 -92.833 31.5 -155.5c0 -96 -35.333 -174.333 -106 -235h1c-66.667 -60 -152.334 -90 -257.001 -90c-221.333 0 -339 120.667 -353 362h152z" />
    <glyph glyph-name="uni0034" unicode="4" horiz-adv-x="838" 
d="M488 392v393l-279 -393h279zM488 240h-440v157l475 656h118v-661h149v-152h-149v-240h-153v240z" />
    <glyph glyph-name="uni0035" unicode="5" horiz-adv-x="838" 
d="M86 464l85.0049 588.997h557v-151h-428l-18 -120c-6 -40 -11.667 -80 -17 -120c20.667 14.667 44.167 25.334 70.5 32.001s56.166 10 89.499 10c88 0 162.667 -22.333 224 -67c86.667 -64 130 -164.333 130 -301c0 -46 -8.5 -90.167 -25.5 -132.5
s-41.5 -81.166 -73.5 -116.499c-34.667 -38 -74.334 -67.5 -119.001 -88.5s-92.334 -31.5 -143.001 -31.5c-60.667 0 -114.834 10 -162.501 30s-88.167 49.333 -121.5 88c-24.667 28.667 -43.5 59.167 -56.5 91.5s-19.5 66.166 -19.5 101.499v4h157
c7.33301 -23.333 14.666 -43.666 21.999 -60.999s14.666 -30.666 21.999 -39.999c32 -41.333 77 -62 135 -62c143.333 0 215 73.667 215 221c0 68.667 -18.667 121.667 -56 159s-84.333 56 -141 56c-69.333 0 -130.666 -30.333 -183.999 -91h-142z" />
    <glyph glyph-name="uni0036" unicode="6" horiz-adv-x="838" 
d="M230 321c0 -64.667 21.002 -116.333 63.002 -155c37.333 -35.333 80.666 -53 129.999 -53c59.333 0 106.166 18 140.499 54s51.5 89 51.5 159c0 130.667 -63.333 196 -190 196c-48.667 0 -91 -15 -127 -45c-45.333 -37.333 -68 -89.333 -68 -156zM596.002 756.001
l0.000976562 11.998c0 38.667 -13 70.667 -39 96c-32 28.667 -70 43 -114 43c-82 0 -143.333 -46 -184 -138c-13.333 -30 -23.833 -61.833 -31.5 -95.5s-12.167 -69.5 -13.5 -107.5c21.333 19.333 38.833 34.333 52.5 45s22.5 17.334 26.5 20.001
c41.333 25.333 90.666 38 147.999 38c92 0 169.667 -30 233 -90c66.667 -64.667 100 -148.667 100 -252c0 -88 -25 -165.333 -75 -232c-65.333 -85.333 -158.333 -128 -279 -128c-237.333 0 -356 169 -356 507c0 386 133.667 579 401 579c50.667 0 102.667 -17.667 156 -53
c77.333 -51.333 122 -132.666 134 -243.999h-159z" />
    <glyph glyph-name="uni0037" unicode="7" horiz-adv-x="838" 
d="M61 902v150.999h715v-129c-34 -42 -71.667 -96 -113 -162s-86 -142.667 -134 -230c-40 -73.333 -74.333 -154.666 -103 -243.999s-51.667 -185.333 -69 -288h-170c16.667 68.667 32 127.667 46 177s26.667 89.333 38 120v-1c12 34 27 70.833 45 110.5
s39.333 82.5 64 128.5v-1c28 54 66 120 114 198l45.5 73.5l30.5 50l18.5 30.5l9.5 16h-537z" />
    <glyph glyph-name="uni0038" unicode="8" horiz-adv-x="838" 
d="M529 879c-11.333 9.33301 -25.999 16.3359 -43.999 21.0029s-39.667 7 -65 7c-52.667 0 -93 -11.333 -121 -34h1c-30.667 -26.667 -46 -60.334 -46 -101.001c0 -23.333 3.66699 -45.333 11 -66c21.333 -57.333 67 -86 137 -86c71.333 0 121.666 18.333 150.999 55
c19.333 25.333 29 54.666 29 87.999c0 49.333 -17.667 87.666 -53 114.999v1zM222.001 290.003c2 -48.667 18.334 -89.002 49.001 -121.002c34.667 -37.333 84 -56 148 -56c52.667 0 98.334 18.333 137.001 55s58 78 58 124c0 73.333 -26 126 -78 158
c-33.333 20 -72.333 30 -117 30c-64.667 0 -115.334 -18.667 -152.001 -56c-14.667 -17.333 -25.834 -36.166 -33.501 -56.499s-11.5 -43.166 -11.5 -68.499v-9zM210.002 991.001c57.333 41.333 122.668 61.998 196.001 61.998c89.333 0 166.666 -22 231.999 -66
c68 -44.667 102 -118 102 -220c0 -58 -14 -104 -42 -138c-11.333 -13.333 -23 -26.333 -35 -39s-23.333 -23 -34 -31c29.333 -15.333 57.333 -43 84 -83l-1 2c21.333 -23.333 37.666 -51.833 48.999 -85.5s17 -73.167 17 -118.5s-11.5 -87.666 -34.5 -126.999
s-56.5 -76 -100.5 -110c-62.667 -46.667 -142.667 -70 -240 -70c-100 0 -181.667 30.333 -245 91c-65.333 61.333 -98 133.333 -98 216c0 84.667 17.333 148 52 190c7.33301 14.667 19.333 29.334 36 44.001s38 30.334 64 47.001c-24.667 18 -45 35.167 -61 51.5
s-27 31.5 -33 45.5c-14.667 32 -22 72 -22 120c0 45.333 9.33301 86.166 28 122.499s47.334 68.5 86.001 96.5z" />
    <glyph glyph-name="uni0039" unicode="9" horiz-adv-x="838" 
d="M608 699c0 64.667 -20.998 116.668 -62.998 156.001c-38 34.667 -81.667 52 -131 52c-58 0 -104.5 -18 -139.5 -54s-52.5 -88.667 -52.5 -158c0 -130.667 63.667 -196 191 -196c23.333 0 46.166 4 68.499 12s42.166 19.333 59.499 34
c21.333 17.333 37.833 39.166 49.5 65.499s17.5 55.833 17.5 88.5zM242.002 265.001v-8c0 -40.667 13.667 -74 41 -100c30.667 -29.333 67.667 -44 111 -44c83.333 0 144.666 46.333 183.999 139c13.333 30 23.833 61.333 31.5 94s12.167 68.334 13.5 107.001
c-21.333 -18.667 -38.666 -33.334 -51.999 -44.001s-22.666 -17.667 -27.999 -21c-20.667 -11.333 -43 -20.166 -67 -26.499s-50.667 -9.5 -80 -9.5c-92.667 0 -170.334 30 -233.001 90c-66 64 -99 148 -99 252c0 88 25 165 75 231c65.333 85.333 158 128 278 128
c237.333 0 356 -168.667 356 -506c0 -386.667 -133.333 -580 -400 -580c-50.667 0 -103 18.333 -157 55c-36.667 25.333 -66.667 58.666 -90 99.999s-38 89 -44 143h160z" />
    <glyph glyph-name="uni003A" unicode=":" horiz-adv-x="364" 
d="M274 616c0 -21.333 -7.83301 -40.501 -23.5 -57.501s-36.5 -25.5 -62.5 -25.5c-25.333 0 -46 7.83301 -62 23.5s-24 35.5 -24 59.5c0 26 8 46.833 24 62.5s36.667 23.5 62 23.5c11.333 0 22 -2 32 -6s19.167 -9.83301 27.5 -17.5s14.833 -16.667 19.5 -27
s7 -22.166 7 -35.499zM267 81.999c0 -23.333 -7.83301 -42.834 -23.5 -58.501s-36.167 -23.5 -61.5 -23.5c-26 0 -46.833 7.83301 -62.5 23.5s-23.5 35.167 -23.5 58.5c0 26 7.83301 46.833 23.5 62.5s36.5 23.5 62.5 23.5c10.667 0 21.167 -2 31.5 -6
s19.5 -9.83301 27.5 -17.5s14.333 -16.667 19 -27s7 -22.166 7 -35.499z" />
    <glyph glyph-name="uni003B" unicode=";" horiz-adv-x="395" 
d="M219 489c0 -10 -1.83398 -19.501 -5.50098 -28.501s-9 -17 -16 -24s-15.167 -12.667 -24.5 -17s-19.666 -6.5 -30.999 -6.5c-23.333 0 -42.166 7.16699 -56.499 21.5s-21.5 32.5 -21.5 54.5c0 22.667 7.16699 41.167 21.5 55.5s33.166 21.5 56.499 21.5
c9.33301 0 18.5 -1.83301 27.5 -5.5s17.167 -9 24.5 -16s13.333 -15.167 18 -24.5s7 -19.666 7 -30.999zM279.999 73.999c0 -30.667 -47.667 -139.333 -143 -326h-58c20.667 58 35.5 107 44.5 147s13.5 71.667 13.5 95c0 16 -22 52.667 -66 110l141 109
c45.333 -57.333 68 -102.333 68 -135z" />
    <glyph glyph-name="uni003C" unicode="&#x3c;" horiz-adv-x="657" 
d="M579 76l-578 248v120l578 244v-153l-371 -150l371 -154v-155z" />
    <glyph glyph-name="uni003D" unicode="=" horiz-adv-x="703" 
d="M632 418h-514v149h514v-149zM632 195h-514v149h514v-149z" />
    <glyph glyph-name="uni003E" unicode="&#x3e;" horiz-adv-x="699" 
d="M698 324l-580 -248v153l369 156l-369 150v153l580 -244v-120z" />
    <glyph glyph-name="uni003F" unicode="?" horiz-adv-x="702" 
d="M396 0h-155v170h155v-170zM599 690c0 -37.333 -10.8311 -74.665 -32.498 -111.998s-53.167 -75.666 -94.5 -114.999c-18.667 -15.333 -34.334 -30.333 -47.001 -45s-23 -29.834 -31 -45.501s-13.667 -32.167 -17 -49.5s-5 -36.333 -5 -57h-113
c0 99.333 35 184.666 105 255.999l10 10c16 16 29.167 30 39.5 42s18.666 23.667 24.999 35s10.833 23.166 13.5 35.499s4 26.833 4 43.5s-3.33301 32 -10 46s-15.834 26.333 -27.501 37s-25.167 19 -40.5 25s-31.666 9 -48.999 9c-70 0 -113 -37.667 -129 -113l-125 21
c6 33.333 17 63.666 33 90.999s36 50.833 60 70.5s51.333 34.834 82 45.501s63.667 16 99 16c36 0 69.333 -6 100 -18s57 -29 79 -51s39.333 -48 52 -78s19 -63 19 -99z" />
    <glyph glyph-name="uni0040" unicode="@" horiz-adv-x="1446" 
d="M869 543c-2.66699 23.333 -12.6641 42.833 -29.9971 58.5s-43 23.5 -77 23.5c-32 0 -60.833 -8.83301 -86.5 -26.5s-47.334 -40 -65.001 -67s-31.334 -56.333 -41.001 -88s-14.5 -61.5 -14.5 -89.5c0 -16 2.66699 -32.667 8 -50s13.166 -33 23.499 -47
s22.666 -25.5 36.999 -34.5s30.5 -13.5 48.5 -13.5c40 0 74.667 17.5 104 52.5s53.333 86.5 72 154.5c4.66699 15.333 8.66699 30 12 44s6 26.5 8 37.5s3.33301 19.667 4 26l1 9.5c0.666992 0 1.33398 -0.333008 2.00098 -1zM1115 735l-143.999 -444.009
c-3.33301 -9.33301 -5.5 -16.666 -6.5 -21.999s-1.5 -9 -1.5 -11c0 -14.667 4.5 -26.5 13.5 -35.5s18.833 -13.5 29.5 -13.5c36.667 0 69.5 10.833 98.5 32.5s53.5 48.334 73.5 80.001s35.167 65.5 45.5 101.5s15.5 68.333 15.5 97c0 61.333 -15 116.666 -45 165.999
s-68.5 91.5 -115.5 126.5s-99 62 -156 81s-112.833 28.5 -167.5 28.5c-46 0 -91 -6.83301 -135 -20.5s-85.5 -32.667 -124.5 -57s-74.667 -53 -107 -86s-60.333 -68.833 -84 -107.5s-42 -79.5 -55 -122.5s-19.5 -86.167 -19.5 -129.5c0 -48 6 -93.167 18 -135.5
s30.833 -81.666 56.5 -117.999s58.5 -69.333 98.5 -99s88 -55.5 144 -77.5c24.667 -9.33301 51.5 -16.666 80.5 -21.999s59.5 -8 91.5 -8c36 0 78 4.66699 126 14s102.333 23.666 163 42.999l55 -129c-114 -46.667 -228.667 -70 -344 -70c-35.333 0 -69 1.5 -101 4.5
s-64 9.16699 -96 18.5s-64.833 22.5 -98.5 39.5s-69.5 39.167 -107.5 66.5c-48.667 32 -89 65.5 -121 100.5s-57.333 71.5 -76 109.5s-31.834 77.667 -39.501 119s-11.5 84.666 -11.5 129.999c0 72 10.667 138.833 32 200.5s49.833 117.834 85.5 168.501
s77.334 95.334 125.001 134.001s97.667 71.334 150 98.001s105.666 46.834 159.999 60.501s106.5 20.5 156.5 20.5c51.333 0 101.666 -6.16699 150.999 -18.5s96.166 -29.5 140.499 -51.5s85.333 -48.5 123 -79.5s70.5 -65.167 98.5 -102.5s50.5 -77.166 67.5 -119.499
s26.833 -85.833 29.5 -130.5v-24c0 -57.333 -10.167 -114 -30.5 -170s-48.333 -106.167 -84 -150.5s-77.5 -80.166 -125.5 -107.499s-99.667 -41 -155 -41c-46 0 -83.167 8 -111.5 24s-47.833 38 -58.5 66l-19 -19c-23.333 -20 -51 -35.167 -83 -45.5
s-61.667 -15.5 -89 -15.5c-32.667 0 -63.667 7 -93 21s-55.166 33 -77.499 57s-40 52.5 -53 85.5s-19.5 68.5 -19.5 106.5c0 52.667 10.167 103.834 30.5 153.501s47.833 93.834 82.5 132.501s74.834 69.667 120.501 93s93.834 35 144.501 35c14.667 0 30.167 -2 46.5 -6
s32 -9.83301 47 -17.5s29.167 -17.167 42.5 -28.5s24.666 -24 33.999 -38l21 59h158z" />
    <glyph glyph-name="uni0041" unicode="A" horiz-adv-x="1011" 
d="M371 453h258l-123 368zM684 305h-364l-107 -305h-180l383 1055h188l371 -1055h-188z" />
    <glyph glyph-name="uni0042" unicode="B" horiz-adv-x="1025" 
d="M285 899v-281h250c108 0 162 44.667 162 134c0 48 -18.5 84.5 -55.5 109.5s-88.833 37.5 -155.5 37.5h-201zM285 465v-309.001h309c23.333 0 44.333 4 63 12s34.667 19.333 48 34s23.5 31.834 30.5 51.501s10.5 41.5 10.5 65.5c0 54.667 -19 92.667 -57 114
s-94 32 -168 32h-236zM113 -0.000976562l-0.000976562 1055h467c38.667 0 75.5 -7 110.5 -21s65.667 -33.5 92 -58.5s47.333 -54.667 63 -89s23.5 -71.833 23.5 -112.5c0 -46 -9.66699 -87.5 -29 -124.5s-46 -67.833 -80 -92.5c25.333 -14 47.5 -28.667 66.5 -44
s34.833 -32.666 47.5 -51.999s22.167 -41.166 28.5 -65.499s9.5 -52.5 9.5 -84.5c0 -41.333 -8.16699 -80.666 -24.5 -117.999s-37.666 -70.333 -63.999 -99s-56 -51.5 -89 -68.5s-66.167 -25.5 -99.5 -25.5h-522z" />
    <glyph glyph-name="uni0043" unicode="C" horiz-adv-x="1046" 
d="M801 702c-49.333 142 -135.332 212.996 -257.999 212.996c-48 0 -90.333 -9.66699 -127 -29s-67.5 -46.5 -92.5 -81.5s-43.833 -76.667 -56.5 -125s-19 -101.5 -19 -159.5c0 -57.333 6.33301 -110.166 19 -158.499s31.5 -90 56.5 -125s55.833 -62.333 92.5 -82
s79 -29.5 127 -29.5c132 0 224.667 95.667 278 287h173c-11.333 -67.333 -30.833 -128.333 -58.5 -183s-61.5 -101.334 -101.5 -140.001s-84.833 -68.667 -134.5 -90s-101.834 -32 -156.501 -32h-6c-74 1.33301 -139.667 16.333 -197 45s-105.833 67.834 -145.5 117.501
s-69.667 107.834 -90 174.501s-30.5 138.667 -30.5 216c0 120.667 22.333 225.334 67 314.001c45.333 90.667 117.333 157.334 216 200.001c32 11.333 63 20.333 93 27s61 10.667 93 12c107.333 0 197.5 -31.5 270.5 -94.5s127.5 -155.167 163.5 -276.5h-176z" />
    <glyph glyph-name="uni0044" unicode="D" horiz-adv-x="1041" 
d="M119 0l0.000976562 1055h414c67.333 0 127.833 -13 181.5 -39s99 -62.167 136 -108.5s65.333 -101.666 85 -165.999s29.5 -134.833 29.5 -211.5c-0.666992 -116 -22.5 -216 -65.5 -300s-103.833 -149 -182.5 -195c-42.667 -23.333 -80.334 -35 -113.001 -35h-485z
M291.001 898.999v-742.997h264c16 0 31.167 1 45.5 3s28 6 41 12s25.833 14.333 38.5 25s25.667 24.667 39 42c16.667 20.667 29.667 42.667 39 66s16.5 47.166 21.5 71.499s8.5 49.166 10.5 74.499s3.66699 50.666 5 75.999v29c0 56 -6.66699 105.333 -20 148
s-32.166 78.5 -56.499 107.5s-53.333 51 -87 66s-70.834 22.5 -111.501 22.5h-229z" />
    <glyph glyph-name="uni0045" unicode="E" horiz-adv-x="977" 
d="M119 0v1055h745v-156h-573v-281h551v-153h-551v-309h598v-156h-770z" />
    <glyph glyph-name="uni0046" unicode="F" horiz-adv-x="843" 
d="M119 0v1055h721v-156h-549v-281h481v-153h-481v-465h-172z" />
    <glyph glyph-name="uni0047" unicode="G" horiz-adv-x="1136" 
d="M871 315c5.33301 20 9.33203 55.6621 11.999 106.995h-309v158h467v-586h-121l-25 108c-32.667 -27.333 -62.5 -49.5 -89.5 -66.5s-53.667 -30.333 -80 -40s-53.666 -16.5 -81.999 -20.5s-59.833 -6.66699 -94.5 -8c-22 0 -46.667 3 -74 9s-54.666 13.833 -81.999 23.5
s-53 20.834 -77 33.501s-43.333 25.667 -58 39c-56 52 -100.667 114.5 -134 187.5s-50 158.5 -50 256.5c0 76.667 10.5 148.334 31.5 215.001s52.833 124.834 95.5 174.501s95.834 89.334 159.501 119.001s138.167 45.834 223.5 48.501h22
c64.667 0 121.667 -10.167 171 -30.5s91.5 -47.5 126.5 -81.5s63.167 -72.833 84.5 -116.5s36 -88.834 44 -135.501h-170c-2.66699 28.667 -12 55.5 -28 80.5s-36.5 46.833 -61.5 65.5s-53.667 33.334 -86 44.001s-66.5 16 -102.5 16
c-53.333 0 -100.833 -9.66699 -142.5 -29s-77 -46.5 -106 -81.5s-51.167 -76.833 -66.5 -125.5s-23 -102.334 -23 -161.001c0 -59.333 7.66699 -113.333 23 -162s37.5 -90.5 66.5 -125.5s64.333 -62 106 -81s89.167 -28.5 142.5 -28.5c38.667 0 74 5.5 106 16.5
s60.167 25.667 84.5 44s44.666 39.333 60.999 63s28.166 47.834 35.499 72.501v-2z" />
    <glyph glyph-name="uni0048" unicode="H" horiz-adv-x="1064" 
d="M771 0v465h-479v-465h-172v1055h172v-437h479v437h172v-1055h-172z" />
    <glyph glyph-name="uni0049" unicode="I" horiz-adv-x="421" 
d="M121 0v1055h172v-1055h-172z" />
    <glyph glyph-name="uni004A" unicode="J" horiz-adv-x="771" 
d="M77 362h170v-120c0 -34.667 11.667 -63.5 35 -86.5s53.333 -34.5 90 -34.5c43.333 0 81 17.667 113 53c20 22 30 79.333 30 172v709h172v-826c-6 -40 -17.167 -76.333 -33.5 -109s-37.833 -60.667 -64.5 -84s-57.5 -41.333 -92.5 -54s-73.833 -19 -116.5 -19
c-42 0 -81.5 6.66699 -118.5 20s-69.167 32 -96.5 56s-48.833 52.833 -64.5 86.5s-23.5 71.167 -23.5 112.5v124z" />
    <glyph glyph-name="uni004B" unicode="K" horiz-adv-x="1077" 
d="M122 1055h172v-473l477 473h228l-443 -437l428 -618h-200l-347 500l-143 -142v-358h-172v1055z" />
    <glyph glyph-name="uni004C" unicode="L" horiz-adv-x="829" 
d="M79 1055h172v-899h500v-156h-672v1055z" />
    <glyph glyph-name="uni004D" unicode="M" horiz-adv-x="1240" 
d="M943 0v725l-245 -725h-160l-244 725v-725h-172v1055h217l281 -826l278 826h217v-1055h-172z" />
    <glyph glyph-name="uni004E" unicode="N" horiz-adv-x="1081" 
d="M957 0h-181l-483 766v-766h-172v1055h188l476 -770v770h172v-1055z" />
    </font>
</defs>
</svg>
