<svg width="58" height="45" viewBox="0 0 58 45" version="1.1" xmlns="http://www.w3.org/2000/svg" xmlns:xlink="http://www.w3.org/1999/xlink">
<title>folder</title>
<desc>Created using Figma</desc>
<g id="Canvas" transform="translate(56 -1466)">
<g id="folder">
<g id="Group">
<g id="Vector">
<use xlink:href="#path0_fill" transform="translate(-55 1467)"/>
<use xlink:href="#path1_stroke" transform="translate(-55 1467)"/>
</g>
<g id="Vector">
<use xlink:href="#path2_fill" transform="translate(-29.8 1492.08)"/>
<use xlink:href="#path3_stroke" transform="translate(-29.8 1492.08)"/>
</g>
<g id="Vector">
<use xlink:href="#path4_fill" transform="translate(-24.2 1495.67)"/>
</g>
<g id="Vector">
<use xlink:href="#path5_fill" transform="translate(-24.2 1498.53)"/>
</g>
<g id="Vector">
<use xlink:href="#path5_fill" transform="translate(-24.2 1501.4)"/>
</g>
</g>
</g>
</g>
<defs>
<path id="path0_fill" d="M 30.3473 5.01667L 25.6807 0L 5.6 0L 5.6 2.86667L 2.8 2.86667L 2.8 5.73333L 0 5.73333L 0 43L 1.86667 43L 54.1333 43L 56 43L 56 12.1833L 56 10.75L 56 9.31667L 56 7.88333L 56 5.01667L 30.3473 5.01667ZM 1.86667 41.5667L 1.86667 7.16667L 2.8 7.16667L 19.1193 7.16667L 23.786 12.1833L 23.7972 12.1833L 28.1745 16.8782C 28.3565 17.0732 28.6431 17.1771 28.9333 17.1778L 28.9333 17.2L 54.1333 17.2L 54.1333 41.5667L 1.86667 41.5667ZM 54.1333 15.7667L 29.4345 15.7667L 26.0941 12.1833L 54.1333 12.1833L 54.1333 15.7667ZM 54.1333 10.75L 24.7567 10.75L 20.3588 6.0329L 20.3579 6.03218L 20.0807 5.73333L 4.66667 5.73333L 4.66667 4.3L 5.6 4.3L 21.9193 4.3L 26.586 9.31667L 54.1333 9.31667L 54.1333 10.75ZM 27.5473 7.88333L 22.8807 2.86667L 7.46667 2.86667L 7.46667 1.43333L 24.7193 1.43333L 29.386 6.45L 54.1333 6.45L 54.1333 7.88333L 27.5473 7.88333Z"/>
<path id="path1_stroke" d="M 30.3473 5.01667L 30.2558 5.1018L 30.2929 5.14167L 30.3473 5.14167L 30.3473 5.01667ZM 25.6807 0L 25.7722 -0.085138L 25.7351 -0.125L 25.6807 -0.125L 25.6807 0ZM 5.6 0L 5.6 -0.125L 5.475 -0.125L 5.475 0L 5.6 0ZM 5.6 2.86667L 5.6 2.99167L 5.725 2.99167L 5.725 2.86667L 5.6 2.86667ZM 2.8 2.86667L 2.8 2.74167L 2.675 2.74167L 2.675 2.86667L 2.8 2.86667ZM 2.8 5.73333L 2.8 5.85833L 2.925 5.85833L 2.925 5.73333L 2.8 5.73333ZM 0 5.73333L 0 5.60833L -0.125 5.60833L -0.125 5.73333L 0 5.73333ZM 0 43L -0.125 43L -0.125 43.125L 0 43.125L 0 43ZM 56 43L 56 43.125L 56.125 43.125L 56.125 43L 56 43ZM 56 5.01667L 56.125 5.01667L 56.125 4.89167L 56 4.89167L 56 5.01667ZM 1.86667 41.5667L 1.74167 41.5667L 1.74167 41.6917L 1.86667 41.6917L 1.86667 41.5667ZM 1.86667 7.16667L 1.86667 7.04167L 1.74167 7.04167L 1.74167 7.16667L 1.86667 7.16667ZM 19.1193 7.16667L 19.2109 7.08153L 19.1738 7.04167L 19.1193 7.04167L 19.1193 7.16667ZM 23.786 12.1833L 23.6945 12.2685L 23.7316 12.3083L 23.786 12.3083L 23.786 12.1833ZM 23.7972 12.1833L 23.8886 12.0981L 23.8516 12.0583L 23.7972 12.0583L 23.7972 12.1833ZM 28.1745 16.8782L 28.0831 16.9635L 28.0832 16.9635L 28.1745 16.8782ZM 28.9333 17.1778L 29.0583 17.1778L 29.0583 17.0531L 28.9336 17.0528L 28.9333 17.1778ZM 28.9333 17.2L 28.8083 17.2L 28.8083 17.325L 28.9333 17.325L 28.9333 17.2ZM 54.1333 17.2L 54.2583 17.2L 54.2583 17.075L 54.1333 17.075L 54.1333 17.2ZM 54.1333 41.5667L 54.1333 41.6917L 54.2583 41.6917L 54.2583 41.5667L 54.1333 41.5667ZM 54.1333 15.7667L 54.1333 15.8917L 54.2583 15.8917L 54.2583 15.7667L 54.1333 15.7667ZM 29.4345 15.7667L 29.3431 15.8519L 29.3802 15.8917L 29.4345 15.8917L 29.4345 15.7667ZM 26.0941 12.1833L 26.0941 12.0583L 25.8067 12.0583L 26.0027 12.2686L 26.0941 12.1833ZM 54.1333 12.1833L 54.2583 12.1833L 54.2583 12.0583L 54.1333 12.0583L 54.1333 12.1833ZM 54.1333 10.75L 54.1333 10.875L 54.2583 10.875L 54.2583 10.75L 54.1333 10.75ZM 24.7567 10.75L 24.6652 10.8352L 24.7023 10.875L 24.7567 10.875L 24.7567 10.75ZM 20.3588 6.0329L 20.4502 5.94766L 20.4432 5.94009L 20.435 5.93379L 20.3588 6.0329ZM 20.3579 6.03218L 20.2662 6.11719L 20.2734 6.12489L 20.2817 6.13129L 20.3579 6.03218ZM 20.0807 5.73333L 20.1723 5.64833L 20.1352 5.60833L 20.0807 5.60833L 20.0807 5.73333ZM 4.66667 5.73333L 4.54167 5.73333L 4.54167 5.85833L 4.66667 5.85833L 4.66667 5.73333ZM 4.66667 4.3L 4.66667 4.175L 4.54167 4.175L 4.54167 4.3L 4.66667 4.3ZM 21.9193 4.3L 22.0109 4.21486L 21.9738 4.175L 21.9193 4.175L 21.9193 4.3ZM 26.586 9.31667L 26.4945 9.4018L 26.5316 9.44167L 26.586 9.44167L 26.586 9.31667ZM 54.1333 9.31667L 54.2583 9.31667L 54.2583 9.19167L 54.1333 9.19167L 54.1333 9.31667ZM 27.5473 7.88333L 27.4558 7.96847L 27.4929 8.00833L 27.5473 8.00833L 27.5473 7.88333ZM 22.8807 2.86667L 22.9722 2.78153L 22.9351 2.74167L 22.8807 2.74167L 22.8807 2.86667ZM 7.46667 2.86667L 7.34167 2.86667L 7.34167 2.99167L 7.46667 2.99167L 7.46667 2.86667ZM 7.46667 1.43333L 7.46667 1.30833L 7.34167 1.30833L 7.34167 1.43333L 7.46667 1.43333ZM 24.7193 1.43333L 24.8109 1.3482L 24.7738 1.30833L 24.7193 1.30833L 24.7193 1.43333ZM 29.386 6.45L 29.2945 6.53514L 29.3316 6.575L 29.386 6.575L 29.386 6.45ZM 54.1333 6.45L 54.2583 6.45L 54.2583 6.325L 54.1333 6.325L 54.1333 6.45ZM 54.1333 7.88333L 54.1333 8.00833L 54.2583 8.00833L 54.2583 7.88333L 54.1333 7.88333ZM 30.4389 4.93153L 25.7722 -0.085138L 25.5891 0.085138L 30.2558 5.1018L 30.4389 4.93153ZM 25.6807 -0.125L 5.6 -0.125L 5.6 0.125L 25.6807 0.125L 25.6807 -0.125ZM 5.475 0L 5.475 2.86667L 5.725 2.86667L 5.725 0L 5.475 0ZM 5.6 2.74167L 2.8 2.74167L 2.8 2.99167L 5.6 2.99167L 5.6 2.74167ZM 2.675 2.86667L 2.675 5.73333L 2.925 5.73333L 2.925 2.86667L 2.675 2.86667ZM 2.8 5.60833L 0 5.60833L 0 5.85833L 2.8 5.85833L 2.8 5.60833ZM -0.125 5.73333L -0.125 43L 0.125 43L 0.125 5.73333L -0.125 5.73333ZM 0 43.125L 1.86667 43.125L 1.86667 42.875L 0 42.875L 0 43.125ZM 1.86667 43.125L 54.1333 43.125L 54.1333 42.875L 1.86667 42.875L 1.86667 43.125ZM 54.1333 43.125L 56 43.125L 56 42.875L 54.1333 42.875L 54.1333 43.125ZM 56.125 43L 56.125 12.1833L 55.875 12.1833L 55.875 43L 56.125 43ZM 56.125 12.1833L 56.125 10.75L 55.875 10.75L 55.875 12.1833L 56.125 12.1833ZM 56.125 10.75L 56.125 9.31667L 55.875 9.31667L 55.875 10.75L 56.125 10.75ZM 56.125 9.31667L 56.125 7.88333L 55.875 7.88333L 55.875 9.31667L 56.125 9.31667ZM 56.125 7.88333L 56.125 5.01667L 55.875 5.01667L 55.875 7.88333L 56.125 7.88333ZM 56 4.89167L 30.3473 4.89167L 30.3473 5.14167L 56 5.14167L 56 4.89167ZM 1.99167 41.5667L 1.99167 7.16667L 1.74167 7.16667L 1.74167 41.5667L 1.99167 41.5667ZM 1.86667 7.29167L 2.8 7.29167L 2.8 7.04167L 1.86667 7.04167L 1.86667 7.29167ZM 2.8 7.29167L 19.1193 7.29167L 19.1193 7.04167L 2.8 7.04167L 2.8 7.29167ZM 19.0278 7.2518L 23.6945 12.2685L 23.8775 12.0982L 19.2109 7.08153L 19.0278 7.2518ZM 23.786 12.3083L 23.7972 12.3083L 23.7972 12.0583L 23.786 12.0583L 23.786 12.3083ZM 23.7058 12.2686L 28.0831 16.9635L 28.266 16.793L 23.8886 12.0981L 23.7058 12.2686ZM 28.0832 16.9635C 28.2938 17.1891 28.6164 17.302 28.933 17.3028L 28.9336 17.0528C 28.6698 17.0521 28.4193 16.9572 28.2659 16.7929L 28.0832 16.9635ZM 28.8083 17.1778L 28.8083 17.2L 29.0583 17.2L 29.0583 17.1778L 28.8083 17.1778ZM 28.9333 17.325L 54.1333 17.325L 54.1333 17.075L 28.9333 17.075L 28.9333 17.325ZM 54.0083 17.2L 54.0083 41.5667L 54.2583 41.5667L 54.2583 17.2L 54.0083 17.2ZM 54.1333 41.4417L 1.86667 41.4417L 1.86667 41.6917L 54.1333 41.6917L 54.1333 41.4417ZM 54.1333 15.6417L 29.4345 15.6417L 29.4345 15.8917L 54.1333 15.8917L 54.1333 15.6417ZM 29.526 15.6814L 26.1856 12.0981L 26.0027 12.2686L 29.3431 15.8519L 29.526 15.6814ZM 26.0941 12.3083L 54.1333 12.3083L 54.1333 12.0583L 26.0941 12.0583L 26.0941 12.3083ZM 54.0083 12.1833L 54.0083 15.7667L 54.2583 15.7667L 54.2583 12.1833L 54.0083 12.1833ZM 54.1333 10.625L 24.7567 10.625L 24.7567 10.875L 54.1333 10.875L 54.1333 10.625ZM 24.8481 10.6648L 20.4502 5.94766L 20.2674 6.11814L 24.6652 10.8352L 24.8481 10.6648ZM 20.435 5.93379L 20.434 5.93307L 20.2817 6.13129L 20.2826 6.13201L 20.435 5.93379ZM 20.4495 5.94718L 20.1723 5.64833L 19.989 5.81834L 20.2662 6.11719L 20.4495 5.94718ZM 20.0807 5.60833L 4.66667 5.60833L 4.66667 5.85833L 20.0807 5.85833L 20.0807 5.60833ZM 4.79167 5.73333L 4.79167 4.3L 4.54167 4.3L 4.54167 5.73333L 4.79167 5.73333ZM 4.66667 4.425L 5.6 4.425L 5.6 4.175L 4.66667 4.175L 4.66667 4.425ZM 5.6 4.425L 21.9193 4.425L 21.9193 4.175L 5.6 4.175L 5.6 4.425ZM 21.8278 4.38514L 26.4945 9.4018L 26.6775 9.23153L 22.0109 4.21486L 21.8278 4.38514ZM 26.586 9.44167L 54.1333 9.44167L 54.1333 9.19167L 26.586 9.19167L 26.586 9.44167ZM 54.0083 9.31667L 54.0083 10.75L 54.2583 10.75L 54.2583 9.31667L 54.0083 9.31667ZM 27.6389 7.79819L 22.9722 2.78153L 22.7891 2.9518L 27.4558 7.96847L 27.6389 7.79819ZM 22.8807 2.74167L 7.46667 2.74167L 7.46667 2.99167L 22.8807 2.99167L 22.8807 2.74167ZM 7.59167 2.86667L 7.59167 1.43333L 7.34167 1.43333L 7.34167 2.86667L 7.59167 2.86667ZM 7.46667 1.55833L 24.7193 1.55833L 24.7193 1.30833L 7.46667 1.30833L 7.46667 1.55833ZM 24.6278 1.51847L 29.2945 6.53514L 29.4775 6.36486L 24.8109 1.3482L 24.6278 1.51847ZM 29.386 6.575L 54.1333 6.575L 54.1333 6.325L 29.386 6.325L 29.386 6.575ZM 54.0083 6.45L 54.0083 7.88333L 54.2583 7.88333L 54.2583 6.45L 54.0083 6.45ZM 54.1333 7.75833L 27.5473 7.75833L 27.5473 8.00833L 54.1333 8.00833L 54.1333 7.75833Z"/>
<path id="path2_fill" d="M 0 14.3333L 26.1333 14.3333L 26.1333 0L 0 0L 0 14.3333ZM 1.86667 1.43333L 24.2667 1.43333L 24.2667 12.9L 1.86667 12.9L 1.86667 1.43333Z"/>
<path id="path3_stroke" d="M 0 14.3333L -0.125 14.3333L -0.125 14.4583L 0 14.4583L 0 14.3333ZM 26.1333 14.3333L 26.1333 14.4583L 26.2583 14.4583L 26.2583 14.3333L 26.1333 14.3333ZM 26.1333 0L 26.2583 0L 26.2583 -0.125L 26.1333 -0.125L 26.1333 0ZM 0 0L 0 -0.125L -0.125 -0.125L -0.125 0L 0 0ZM 1.86667 1.43333L 1.86667 1.30833L 1.74167 1.30833L 1.74167 1.43333L 1.86667 1.43333ZM 24.2667 1.43333L 24.3917 1.43333L 24.3917 1.30833L 24.2667 1.30833L 24.2667 1.43333ZM 24.2667 12.9L 24.2667 13.025L 24.3917 13.025L 24.3917 12.9L 24.2667 12.9ZM 1.86667 12.9L 1.74167 12.9L 1.74167 13.025L 1.86667 13.025L 1.86667 12.9ZM 0 14.4583L 26.1333 14.4583L 26.1333 14.2083L 0 14.2083L 0 14.4583ZM 26.2583 14.3333L 26.2583 0L 26.0083 0L 26.0083 14.3333L 26.2583 14.3333ZM 26.1333 -0.125L 0 -0.125L 0 0.125L 26.1333 0.125L 26.1333 -0.125ZM -0.125 0L -0.125 14.3333L 0.125 14.3333L 0.125 0L -0.125 0ZM 1.86667 1.55833L 24.2667 1.55833L 24.2667 1.30833L 1.86667 1.30833L 1.86667 1.55833ZM 24.1417 1.43333L 24.1417 12.9L 24.3917 12.9L 24.3917 1.43333L 24.1417 1.43333ZM 24.2667 12.775L 1.86667 12.775L 1.86667 13.025L 24.2667 13.025L 24.2667 12.775ZM 1.99167 12.9L 1.99167 1.43333L 1.74167 1.43333L 1.74167 12.9L 1.99167 12.9Z"/>
<path id="path4_fill" d="M 9.33333 0L 0 0L 0 1.43333L 9.33333 1.43333L 9.33333 0Z"/>
<path id="path5_fill" d="M 14.9333 0L 0 0L 0 1.43333L 14.9333 1.43333L 14.9333 0Z"/>
</defs>
</svg>
