<svg width="136" height="19" viewBox="0 0 136 19" version="1.1" xmlns="http://www.w3.org/2000/svg" xmlns:xlink="http://www.w3.org/1999/xlink">
<title>1 (2)</title>
<desc>Created using Figma</desc>
<g id="Canvas" transform="translate(774 -925)">
<g id="1 (2)">
<g id="Canvas">
<g id="1">
<g id="food">
<g id="Group">
<g id="Group">
<g id="Group">
<g id="Vector">
<g id="Vector">
<use xlink:href="#path0_fill" transform="translate(-774 930.847)" fill="#FFFFFF"/>
</g>
</g>
<g id="Vector">
<g id="Vector">
<use xlink:href="#path1_fill" transform="translate(-773.939 925)" fill="#FFFFFF"/>
</g>
</g>
</g>
</g>
</g>
</g>
<g id="HotDog AI">
<g id="Vector">
<use xlink:href="#path2_fill" transform="translate(-721.946 926.929)" fill="#FFFFFF"/>
</g>
</g>
</g>
</g>
</g>
</g>
<defs>
<path id="path0_fill" d="M 45.3192 3.43548C 44.7443 0.988894 42.6485 -0.402739 40.5621 0.124735C 28.813 3.31202 16.6374 3.31202 4.88846 0.124735C 2.8391 -0.44763 0.706287 1.00012 0.131353 3.43548C -0.44358 5.87083 0.919568 8.45209 3.22857 9.10301C 16.0532 12.5933 29.3509 12.5933 42.2127 9.10301C 44.531 8.45209 45.9034 5.83717 45.3192 3.43548Z"/>
<path id="path1_fill" d="M 3.96475 3.61504C 4.40059 3.61504 4.82715 3.65993 5.26298 3.7946C 10.9938 5.32092 16.8265 6.10652 22.7058 6.10652C 28.5849 6.10652 34.4177 5.32092 40.1484 3.7946C 40.5843 3.65993 41.0108 3.61504 41.4467 3.61504C 42.921 3.61504 44.2936 4.26597 45.3413 5.39948C 45.4527 4.74855 45.4527 4.08639 45.3043 3.43547C 44.7293 0.988895 42.6337 -0.402738 40.5471 0.124735C 28.7982 3.31202 16.6226 3.31202 4.87352 0.124735C 2.82416 -0.44763 0.691346 1.00012 0.116412 3.43547C -0.0319574 4.08639 -0.0319574 4.74855 0.07932 5.39948C 1.11791 4.26597 2.49032 3.61504 3.96475 3.61504Z"/>
<path id="path2_fill" d="M 7.66788 7.42814L 3.17093 7.42814L 3.17093 12.9658L 2.44366e-08 12.9658L 2.44366e-08 0.0381911L 3.17093 0.0381911L 3.17093 5.09849L 7.66788 5.09849L 7.66788 0.0381911L 10.8196 0.0381911L 10.8196 12.9658L 7.66788 12.9658L 7.66788 7.42814ZM 16.9816 3.18894C 18.5062 3.18894 19.6144 3.62178 20.3062 4.48744C 21.0109 5.3531 21.3632 6.54975 21.3632 8.07739C 21.3632 8.80301 21.2671 9.47772 21.0749 10.1015C 20.8956 10.7126 20.6137 11.2472 20.2294 11.7055C 19.8578 12.1511 19.3838 12.5075 18.8073 12.7749C 18.2435 13.0295 17.5837 13.1568 16.8278 13.1568C 16.0591 13.1568 15.3929 13.0486 14.8292 12.8322C 14.2783 12.603 13.8235 12.2784 13.4647 11.8583C 13.1188 11.4382 12.8562 10.929 12.6768 10.3307C 12.5102 9.7196 12.427 9.03853 12.427 8.28744C 12.427 7.56181 12.5166 6.8871 12.696 6.26332C 12.8882 5.63953 13.17 5.10486 13.5416 4.6593C 13.9259 4.201 14.4 3.84456 14.9637 3.58995C 15.5402 3.32261 16.2129 3.18894 16.9816 3.18894ZM 16.8086 5.46131C 16.578 5.46131 16.3858 5.53132 16.2321 5.67136C 16.0783 5.79866 15.9566 5.98325 15.8669 6.22513C 15.7901 6.45427 15.7324 6.72797 15.694 7.04623C 15.6684 7.36449 15.6555 7.70821 15.6555 8.07739C 15.6555 8.4593 15.6748 8.82211 15.7132 9.16583C 15.7516 9.50955 15.8157 9.80871 15.9054 10.0633C 16.0079 10.3179 16.1488 10.5216 16.3282 10.6744C 16.5075 10.8144 16.7317 10.8844 17.0008 10.8844C 17.2314 10.8844 17.4236 10.8144 17.5773 10.6744C 17.7311 10.5343 17.8464 10.3497 17.9232 10.1206C 18.0129 9.87873 18.0706 9.59866 18.0962 9.2804C 18.1346 8.96214 18.1538 8.62479 18.1538 8.26834C 18.1538 7.8737 18.1346 7.51089 18.0962 7.1799C 18.0578 6.83618 17.9873 6.53702 17.8848 6.28241C 17.7951 6.02781 17.6606 5.83049 17.4812 5.69045C 17.3019 5.53769 17.0777 5.46131 16.8086 5.46131ZM 22.0845 3.45628L 23.6604 3.45628L 23.9871 1.48945L 26.6199 0.916583L 26.6199 3.45628L 28.8876 3.45628L 28.5225 5.67136L 26.6199 5.67136L 26.6199 9.92965C 26.6199 10.4898 26.9146 10.7698 27.5039 10.7698C 27.8242 10.7698 28.1317 10.738 28.4264 10.6744C 28.5801 10.6362 28.7339 10.598 28.8876 10.5598L 29.4065 12.5839C 29.1502 12.673 28.7915 12.7749 28.3303 12.8894C 27.8819 12.9913 27.331 13.0422 26.6776 13.0422C 25.7167 13.0422 24.9608 12.8449 24.4099 12.4503C 23.8718 12.0556 23.6027 11.3873 23.6027 10.4452L 23.6027 5.67136L 22.0845 5.67136L 22.0845 3.45628ZM 30.6095 0.0381911C 30.6992 0.0381911 30.9042 0.0381911 31.2245 0.0381911C 31.5576 0.0254607 31.9355 0.0190954 32.3583 0.0190954C 32.7811 0.0190954 33.2167 0.0190954 33.6651 0.0190954C 34.1264 0.00636506 34.5363 1.94249e-07 34.8951 1.94249e-07C 35.9841 1.94249e-07 36.9193 0.165494 37.7009 0.496482C 38.4952 0.81474 39.1486 1.26667 39.6611 1.85226C 40.1735 2.43786 40.5515 3.13802 40.7949 3.95276C 41.0383 4.75477 41.1601 5.63953 41.1601 6.60704C 41.1601 7.6 41.0319 8.49112 40.7757 9.2804C 40.5323 10.0697 40.1479 10.7444 39.6226 11.3045C 39.1102 11.8519 38.4568 12.272 37.6624 12.5648C 36.8681 12.8576 35.9264 13.004 34.8374 13.004C 34.4659 13.004 34.1264 12.9977 33.8189 12.9849C 33.5114 12.9849 33.1975 12.9849 32.8772 12.9849C 32.5569 12.9849 32.2174 12.9786 31.8587 12.9658C 31.4999 12.9658 31.0835 12.9658 30.6095 12.9658L 30.6095 0.0381911ZM 34.7605 2.21508C 34.5427 2.21508 34.3762 2.22144 34.2609 2.23417C 34.1456 2.23417 33.9854 2.23417 33.7804 2.23417L 33.7804 10.7698C 33.947 10.7826 34.0943 10.7889 34.2224 10.7889C 34.3506 10.7889 34.5299 10.7889 34.7605 10.7889C 35.3243 10.7889 35.7919 10.6935 36.1634 10.5025C 36.5478 10.3116 36.8553 10.0379 37.0859 9.68141C 37.3165 9.32496 37.4831 8.89213 37.5856 8.38291C 37.688 7.86097 37.7393 7.28174 37.7393 6.64523C 37.7393 3.69179 36.7464 2.21508 34.7605 2.21508ZM 46.9342 3.18894C 48.4588 3.18894 49.567 3.62178 50.2589 4.48744C 50.9635 5.3531 51.3159 6.54975 51.3159 8.07739C 51.3159 8.80301 51.2198 9.47772 51.0276 10.1015C 50.8482 10.7126 50.5664 11.2472 50.182 11.7055C 49.8105 12.1511 49.3364 12.5075 48.7599 12.7749C 48.1962 13.0295 47.5364 13.1568 46.7805 13.1568C 46.0118 13.1568 45.3455 13.0486 44.7818 12.8322C 44.2309 12.603 43.7761 12.2784 43.4174 11.8583C 43.0714 11.4382 42.8088 10.929 42.6294 10.3307C 42.4629 9.7196 42.3796 9.03853 42.3796 8.28744C 42.3796 7.56181 42.4693 6.8871 42.6487 6.26332C 42.8408 5.63953 43.1227 5.10486 43.4942 4.6593C 43.8786 4.201 44.3526 3.84456 44.9164 3.58995C 45.4929 3.32261 46.1655 3.18894 46.9342 3.18894ZM 46.7613 5.46131C 46.5306 5.46131 46.3385 5.53132 46.1847 5.67136C 46.031 5.79866 45.9093 5.98325 45.8196 6.22513C 45.7427 6.45427 45.6851 6.72797 45.6466 7.04623C 45.621 7.36449 45.6082 7.70821 45.6082 8.07739C 45.6082 8.4593 45.6274 8.82211 45.6658 9.16583C 45.7043 9.50955 45.7683 9.80871 45.858 10.0633C 45.9605 10.3179 46.1014 10.5216 46.2808 10.6744C 46.4602 10.8144 46.6844 10.8844 46.9534 10.8844C 47.184 10.8844 47.3762 10.8144 47.53 10.6744C 47.6837 10.5343 47.799 10.3497 47.8759 10.1206C 47.9656 9.87873 48.0232 9.59866 48.0488 9.2804C 48.0873 8.96214 48.1065 8.62479 48.1065 8.26834C 48.1065 7.8737 48.0873 7.51089 48.0488 7.1799C 48.0104 6.83618 47.9399 6.53702 47.8374 6.28241C 47.7478 6.02781 47.6132 5.83049 47.4339 5.69045C 47.2545 5.53769 47.0303 5.46131 46.7613 5.46131ZM 54.4394 13.9397C 55.0031 14.1307 55.49 14.2771 55.8999 14.3789C 56.3227 14.4935 56.7711 14.5508 57.2452 14.5508C 57.7576 14.5508 58.1676 14.4044 58.4751 14.1116C 58.7954 13.8188 58.9556 13.3987 58.9556 12.8513C 58.9556 12.2657 58.8659 11.7437 58.6865 11.2854C 58.4687 11.8583 58.1484 12.3039 57.7256 12.6221C 57.3028 12.9276 56.7519 13.0804 56.0729 13.0804C 55.4451 13.0804 54.8942 12.9658 54.4202 12.7367C 53.9589 12.5075 53.5746 12.1893 53.2671 11.7819C 52.9596 11.3618 52.729 10.859 52.5753 10.2734C 52.4343 9.68777 52.3639 9.03853 52.3639 8.32563C 52.3639 7.6 52.4792 6.92529 52.7098 6.30151C 52.9532 5.67772 53.2863 5.14305 53.7091 4.69749C 54.1319 4.2392 54.638 3.88275 55.2273 3.62814C 55.8167 3.37353 56.4701 3.24623 57.1875 3.24623C 57.5719 3.24623 57.969 3.27169 58.379 3.32261C 58.8018 3.37353 59.1926 3.43082 59.5513 3.49447C 59.9228 3.55812 60.2431 3.62178 60.5122 3.68543C 60.7941 3.73635 60.9798 3.77454 61.0695 3.8L 60.9926 8.55477C 60.9926 8.96214 61.0247 9.34405 61.0887 9.7005C 61.1656 10.0442 61.2425 10.3879 61.3193 10.7317C 61.409 11.0626 61.4923 11.4064 61.5692 11.7628C 61.646 12.1193 61.6845 12.5012 61.6845 12.9085C 61.6845 14.2452 61.3001 15.27 60.5314 15.9829C 59.7755 16.7085 58.7442 17.0714 57.4374 17.0714C 56.848 17.0714 56.233 17.0013 55.5924 16.8613C 54.9519 16.7213 54.3305 16.524 53.7283 16.2693L 54.4394 13.9397ZM 56.5726 10.8653C 56.7775 10.8653 56.9633 10.7826 57.1299 10.6171C 57.2964 10.4389 57.4438 10.2034 57.5719 9.91055C 57.7 9.61775 57.7961 9.2804 57.8601 8.89849C 57.937 8.51658 57.9755 8.11558 57.9755 7.69548L 57.9755 5.61407C 57.8858 5.57588 57.7576 5.54405 57.5911 5.51859C 57.4374 5.4804 57.3028 5.46131 57.1875 5.46131C 56.88 5.46131 56.6238 5.53132 56.4188 5.67136C 56.2138 5.79866 56.0473 5.98325 55.9192 6.22513C 55.8038 6.45427 55.7206 6.73434 55.6693 7.06533C 55.6181 7.39632 55.5924 7.75276 55.5924 8.13467C 55.5924 8.49112 55.5989 8.83484 55.6117 9.16583C 55.6245 9.48409 55.6629 9.77052 55.727 10.0251C 55.8038 10.2797 55.9063 10.4834 56.0345 10.6362C 56.1626 10.7889 56.3419 10.8653 56.5726 10.8653ZM 72.0226 0.0381911L 74.8476 0.0381911L 79.6136 12.9658L 76.4042 12.9658L 75.4434 9.85327L 71.2347 9.85327L 70.2354 12.9658L 67.0836 12.9658L 72.0226 0.0381911ZM 74.7323 7.52362C 74.6042 7.15444 74.4697 6.77253 74.3287 6.37789C 74.2006 5.97052 74.0725 5.57588 73.9444 5.19397C 73.8291 4.81206 73.7202 4.45561 73.6177 4.12462C 73.5152 3.7809 73.4255 3.49447 73.3486 3.26533C 73.2718 3.5072 73.1821 3.8 73.0796 4.14372C 72.9771 4.47471 72.8618 4.83116 72.7337 5.21307C 72.6183 5.59497 72.4902 5.98325 72.3493 6.37789C 72.2212 6.77253 72.0931 7.15444 71.9649 7.52362L 74.7323 7.52362ZM 80.7746 0.0381911L 83.9455 0.0381911L 83.9455 12.9658L 80.7746 12.9658L 80.7746 0.0381911Z"/>
</defs>
</svg>
